<svg xmlns="http://www.w3.org/2000/svg" width="256" height="256" viewBox="0 0 100 100"><rect width="100" height="100" rx="20" fill="#9b9b9b"></rect><path fill="#fff" d="M40.66 56.48L40.66 56.48Q41.67 56.48 42.33 56.28Q42.99 56.07 43.28 55.88L43.28 55.88L43.28 52.40L40.30 52.71Q39.06 52.83 38.46 53.28Q37.86 53.72 37.86 54.58L37.86 54.58Q37.86 55.50 38.55 55.99Q39.25 56.48 40.66 56.48ZM40.64 46.33L40.64 46.33Q42.73 46.33 43.95 47.26Q45.18 48.20 45.18 50.22L45.18 50.22L45.18 55.90Q45.18 56.43 44.97 56.71Q44.77 56.98 44.36 57.22L44.36 57.22Q43.78 57.56 42.84 57.81Q41.89 58.06 40.66 58.06L40.66 58.06Q38.41 58.06 37.17 57.18Q35.94 56.29 35.94 54.61L35.94 54.61Q35.94 53.02 36.97 52.22Q38 51.42 39.87 51.22L39.87 51.22L43.28 50.89L43.28 50.22Q43.28 49.02 42.56 48.46Q41.84 47.91 40.62 47.91L40.62 47.91Q39.61 47.91 38.72 48.20Q37.83 48.49 37.14 48.85L37.14 48.85Q36.94 48.68 36.79 48.46Q36.63 48.25 36.63 47.98L36.63 47.98Q36.63 47.65 36.80 47.43Q36.97 47.22 37.33 47.02L37.33 47.02Q37.98 46.69 38.82 46.51Q39.66 46.33 40.64 46.33ZM50.72 47.41L50.72 57.68Q50.60 57.73 50.36 57.79Q50.12 57.85 49.83 57.85L49.83 57.85Q48.80 57.85 48.80 56.98L48.80 56.98L48.80 46.69Q48.92 46.64 49.17 46.58Q49.42 46.52 49.71 46.52L49.71 46.52Q50.72 46.52 50.72 47.41L50.72 47.41ZM48.51 43.14L48.51 43.14Q48.51 42.63 48.86 42.28Q49.21 41.94 49.76 41.94L49.76 41.94Q50.31 41.94 50.65 42.28Q50.98 42.63 50.98 43.14L50.98 43.14Q50.98 43.64 50.65 43.99Q50.31 44.34 49.76 44.34L49.76 44.34Q49.21 44.34 48.86 43.99Q48.51 43.64 48.51 43.14ZM62.14 50.50L62.14 50.50Q62.14 49.16 61.39 48.54Q60.63 47.91 59.36 47.91L59.36 47.91Q58.40 47.91 57.66 48.15Q56.91 48.39 56.38 48.70L56.38 48.70L56.38 57.68Q56.26 57.73 56.02 57.79Q55.78 57.85 55.50 57.85L55.50 57.85Q54.46 57.85 54.46 56.98L54.46 56.98L54.46 48.80Q54.46 48.30 54.67 47.97Q54.87 47.65 55.38 47.34L55.38 47.34Q56.00 46.95 57.03 46.64Q58.06 46.33 59.36 46.33L59.36 46.33Q61.54 46.33 62.80 47.31Q64.06 48.30 64.06 50.41L64.06 50.41L64.06 57.68Q63.94 57.73 63.69 57.79Q63.44 57.85 63.18 57.85L63.18 57.85Q62.14 57.85 62.14 56.98L62.14 56.98L62.14 50.50Z"></path></svg>