<svg xmlns="http://www.w3.org/2000/svg" width="256" height="256" viewBox="0 0 100 100"><rect width="100" height="100" rx="20" fill="#9b9b9b"></rect><path fill="#fff" d="M5.48 48.16L5.48 48.16Q6.03 48.16 6.51 48.34Q6.99 48.52 7.35 48.88Q7.70 49.24 7.90 49.80Q8.10 50.35 8.10 51.09L8.10 51.09Q8.10 51.85 7.89 52.40Q7.69 52.95 7.32 53.31Q6.96 53.67 6.44 53.85Q5.92 54.02 5.31 54.02L5.31 54.02Q4.72 54.02 4.25 53.88Q3.78 53.74 3.48 53.56L3.48 53.56Q3.22 53.41 3.13 53.26Q3.03 53.11 3.03 52.86L3.03 52.86L3.03 46.09Q3.09 46.06 3.22 46.03Q3.34 46.00 3.49 46.00L3.49 46.00Q3.99 46.00 3.99 46.44L3.99 46.44L3.99 48.58Q4.26 48.42 4.62 48.29Q4.99 48.16 5.48 48.16ZM5.34 48.96L5.34 48.96Q4.92 48.96 4.57 49.11Q4.23 49.26 3.99 49.46L3.99 49.46L3.99 52.86Q4.17 52.99 4.51 53.11Q4.86 53.23 5.31 53.23L5.31 53.23Q5.72 53.23 6.05 53.10Q6.38 52.98 6.62 52.71Q6.86 52.45 6.99 52.05Q7.12 51.64 7.12 51.09L7.12 51.09Q7.12 50.54 6.99 50.13Q6.86 49.72 6.62 49.47Q6.38 49.21 6.05 49.08Q5.72 48.96 5.34 48.96ZM9.60 51.84L9.60 48.34Q9.66 48.32 9.78 48.29Q9.91 48.26 10.05 48.26L10.05 48.26Q10.56 48.26 10.56 48.70L10.56 48.70L10.56 51.79Q10.56 52.57 10.96 52.90Q11.37 53.23 12.09 53.23L12.09 53.23Q12.57 53.23 12.91 53.13Q13.24 53.02 13.44 52.92L13.44 52.92L13.44 48.34Q13.50 48.32 13.62 48.29Q13.75 48.26 13.88 48.26L13.88 48.26Q14.40 48.26 14.40 48.70L14.40 48.70L14.40 52.88Q14.40 53.13 14.33 53.28Q14.26 53.43 14.01 53.58L14.01 53.58Q13.74 53.73 13.25 53.88Q12.76 54.02 12.08 54.02L12.08 54.02Q10.88 54.02 10.24 53.49Q9.60 52.96 9.60 51.84L9.60 51.84ZM20.11 52.39L20.11 52.39Q20.11 53.16 19.54 53.59Q18.98 54.02 17.91 54.02L17.91 54.02Q17.46 54.02 17.07 53.94Q16.69 53.86 16.42 53.74Q16.15 53.61 16.00 53.45Q15.85 53.29 15.85 53.12L15.85 53.12Q15.85 52.98 15.93 52.84Q16.00 52.71 16.16 52.62L16.16 52.62Q16.48 52.86 16.92 53.04Q17.35 53.23 17.90 53.23L17.90 53.23Q19.15 53.23 19.15 52.39L19.15 52.39Q19.15 51.70 18.32 51.50L18.32 51.50L17.32 51.24Q16.59 51.04 16.26 50.68Q15.92 50.31 15.92 49.74L15.92 49.74Q15.92 49.42 16.05 49.14Q16.17 48.85 16.44 48.63Q16.70 48.42 17.09 48.29Q17.48 48.16 18.01 48.16L18.01 48.16Q18.85 48.16 19.36 48.41Q19.88 48.66 19.88 48.98L19.88 48.98Q19.88 49.14 19.80 49.26Q19.72 49.38 19.59 49.44L19.59 49.44Q19.38 49.29 18.98 49.12Q18.58 48.96 18.04 48.96L18.04 48.96Q17.50 48.96 17.19 49.16Q16.87 49.36 16.87 49.74L16.87 49.74Q16.87 50.01 17.05 50.20Q17.23 50.40 17.65 50.49L17.65 50.49L18.48 50.70Q19.29 50.90 19.70 51.30Q20.11 51.70 20.11 52.39ZM22.58 48.70L22.58 53.84Q22.52 53.86 22.40 53.89Q22.28 53.92 22.14 53.92L22.14 53.92Q21.62 53.92 21.62 53.49L21.62 53.49L21.62 48.34Q21.68 48.32 21.81 48.29Q21.93 48.26 22.08 48.26L22.08 48.26Q22.58 48.26 22.58 48.70L22.58 48.70ZM21.48 46.57L21.48 46.57Q21.48 46.32 21.65 46.14Q21.82 45.97 22.10 45.97L22.10 45.97Q22.38 45.97 22.54 46.14Q22.71 46.32 22.71 46.57L22.71 46.57Q22.71 46.82 22.54 46.99Q22.38 47.17 22.10 47.17L22.10 47.17Q21.82 47.17 21.65 46.99Q21.48 46.82 21.48 46.57ZM28.29 50.25L28.29 50.25Q28.29 49.58 27.91 49.27Q27.54 48.96 26.90 48.96L26.90 48.96Q26.42 48.96 26.05 49.08Q25.68 49.20 25.41 49.35L25.41 49.35L25.41 53.84Q25.35 53.86 25.23 53.89Q25.11 53.92 24.97 53.92L24.97 53.92Q24.45 53.92 24.45 53.49L24.45 53.49L24.45 49.40Q24.45 49.15 24.55 48.99Q24.66 48.82 24.91 48.67L24.91 48.67Q25.22 48.48 25.74 48.32Q26.25 48.16 26.90 48.16L26.90 48.16Q27.99 48.16 28.62 48.66Q29.25 49.15 29.25 50.20L29.25 50.20L29.25 53.84Q29.19 53.86 29.07 53.89Q28.94 53.92 28.81 53.92L28.81 53.92Q28.29 53.92 28.29 53.49L28.29 53.49L28.29 50.25ZM35.43 51.14L31.74 51.66Q32.06 53.23 33.80 53.23L33.80 53.23Q34.30 53.23 34.71 53.06Q35.12 52.89 35.36 52.70L35.36 52.70Q35.65 52.87 35.65 53.16L35.65 53.16Q35.65 53.32 35.50 53.48Q35.35 53.64 35.09 53.76Q34.83 53.88 34.49 53.95Q34.15 54.02 33.75 54.02L33.75 54.02Q32.36 54.02 31.55 53.26Q30.74 52.51 30.74 51.06L30.74 51.06Q30.74 50.37 30.94 49.84Q31.14 49.30 31.49 48.93Q31.84 48.56 32.34 48.36Q32.83 48.16 33.40 48.16L33.40 48.16Q33.94 48.16 34.40 48.34Q34.86 48.52 35.19 48.85Q35.52 49.18 35.70 49.63Q35.89 50.08 35.89 50.62L35.89 50.62Q35.89 50.89 35.77 51.00Q35.65 51.12 35.43 51.14L35.43 51.14ZM33.39 48.94L33.39 48.94Q32.66 48.94 32.18 49.45Q31.70 49.96 31.68 50.91L31.68 50.91L34.98 50.46Q34.92 49.80 34.51 49.37Q34.11 48.94 33.39 48.94ZM41.19 52.39L41.19 52.39Q41.19 53.16 40.63 53.59Q40.06 54.02 39.00 54.02L39.00 54.02Q38.54 54.02 38.16 53.94Q37.77 53.86 37.50 53.74Q37.23 53.61 37.08 53.45Q36.93 53.29 36.93 53.12L36.93 53.12Q36.93 52.98 37.01 52.84Q37.09 52.71 37.24 52.62L37.24 52.62Q37.57 52.86 38 53.04Q38.43 53.23 38.98 53.23L38.98 53.23Q40.23 53.23 40.23 52.39L40.23 52.39Q40.23 51.70 39.40 51.50L39.40 51.50L38.41 51.24Q37.68 51.04 37.34 50.68Q37.00 50.31 37.00 49.74L37.00 49.74Q37.00 49.42 37.13 49.14Q37.26 48.85 37.52 48.63Q37.78 48.42 38.17 48.29Q38.56 48.16 39.09 48.16L39.09 48.16Q39.93 48.16 40.45 48.41Q40.96 48.66 40.96 48.98L40.96 48.98Q40.96 49.14 40.89 49.26Q40.81 49.38 40.68 49.44L40.68 49.44Q40.46 49.29 40.06 49.12Q39.67 48.96 39.13 48.96L39.13 48.96Q38.59 48.96 38.27 49.16Q37.95 49.36 37.95 49.74L37.95 49.74Q37.95 50.01 38.13 50.20Q38.31 50.40 38.73 50.49L38.73 50.49L39.56 50.70Q40.38 50.90 40.78 51.30Q41.19 51.70 41.19 52.39ZM46.56 52.39L46.56 52.39Q46.56 53.16 45.99 53.59Q45.43 54.02 44.36 54.02L44.36 54.02Q43.90 54.02 43.52 53.94Q43.14 53.86 42.87 53.74Q42.60 53.61 42.45 53.45Q42.30 53.29 42.30 53.12L42.30 53.12Q42.30 52.98 42.37 52.84Q42.45 52.71 42.61 52.62L42.61 52.62Q42.93 52.86 43.36 53.04Q43.80 53.23 44.35 53.23L44.35 53.23Q45.60 53.23 45.60 52.39L45.60 52.39Q45.60 51.70 44.77 51.50L44.77 51.50L43.77 51.24Q43.04 51.04 42.70 50.68Q42.37 50.31 42.37 49.74L42.37 49.74Q42.37 49.42 42.49 49.14Q42.62 48.85 42.88 48.63Q43.15 48.42 43.54 48.29Q43.93 48.16 44.46 48.16L44.46 48.16Q45.30 48.16 45.81 48.41Q46.33 48.66 46.33 48.98L46.33 48.98Q46.33 49.14 46.25 49.26Q46.17 49.38 46.04 49.44L46.04 49.44Q45.82 49.29 45.43 49.12Q45.03 48.96 44.49 48.96L44.49 48.96Q43.95 48.96 43.63 49.16Q43.32 49.36 43.32 49.74L43.32 49.74Q43.32 50.01 43.50 50.20Q43.68 50.40 44.10 50.49L44.10 50.49L44.92 50.70Q45.74 50.90 46.15 51.30Q46.56 51.70 46.56 52.39ZM50.71 51.13L47.84 51.13Q47.80 51.04 47.78 50.95Q47.76 50.86 47.76 50.74L47.76 50.74Q47.76 50.34 48.18 50.34L48.18 50.34L51.04 50.34Q51.07 50.41 51.10 50.50Q51.13 50.60 51.13 50.71L51.13 50.71Q51.13 51.13 50.71 51.13L50.71 51.13ZM56.59 52.39L56.59 52.39Q56.59 53.16 56.02 53.59Q55.46 54.02 54.39 54.02L54.39 54.02Q53.94 54.02 53.55 53.94Q53.17 53.86 52.90 53.74Q52.63 53.61 52.48 53.45Q52.33 53.29 52.33 53.12L52.33 53.12Q52.33 52.98 52.41 52.84Q52.48 52.71 52.64 52.62L52.64 52.62Q52.96 52.86 53.40 53.04Q53.83 53.23 54.38 53.23L54.38 53.23Q55.63 53.23 55.63 52.39L55.63 52.39Q55.63 51.70 54.80 51.50L54.80 51.50L53.80 51.24Q53.07 51.04 52.74 50.68Q52.40 50.31 52.40 49.74L52.40 49.74Q52.40 49.42 52.53 49.14Q52.65 48.85 52.92 48.63Q53.18 48.42 53.57 48.29Q53.96 48.16 54.49 48.16L54.49 48.16Q55.33 48.16 55.84 48.41Q56.36 48.66 56.36 48.98L56.36 48.98Q56.36 49.14 56.28 49.26Q56.20 49.38 56.07 49.44L56.07 49.44Q55.86 49.29 55.46 49.12Q55.06 48.96 54.52 48.96L54.52 48.96Q53.98 48.96 53.67 49.16Q53.35 49.36 53.35 49.74L53.35 49.74Q53.35 50.01 53.53 50.20Q53.71 50.40 54.13 50.49L54.13 50.49L54.96 50.70Q55.77 50.90 56.18 51.30Q56.59 51.70 56.59 52.39ZM59.94 54.02L59.94 54.02Q59.10 54.02 58.57 53.65Q58.05 53.28 58.05 52.41L58.05 52.41L58.05 46.71Q58.11 46.69 58.24 46.66Q58.36 46.63 58.51 46.63L58.51 46.63Q59.01 46.63 59.01 47.06L59.01 47.06L59.01 48.44L60.98 48.44Q61.02 48.50 61.05 48.60Q61.09 48.70 61.09 48.82L61.09 48.82Q61.09 49.23 60.73 49.23L60.73 49.23L59.01 49.23L59.01 52.35Q59.01 52.83 59.28 53.03Q59.55 53.23 60.04 53.23L60.04 53.23Q60.25 53.23 60.50 53.16Q60.75 53.08 60.92 52.99L60.92 52.99Q60.99 53.06 61.05 53.17Q61.11 53.28 61.11 53.42L61.11 53.42Q61.11 53.68 60.80 53.85Q60.49 54.02 59.94 54.02ZM64.48 53.24L64.48 53.24Q64.99 53.24 65.32 53.14Q65.65 53.04 65.79 52.94L65.79 52.94L65.79 51.20L64.30 51.36Q63.68 51.42 63.38 51.64Q63.08 51.86 63.08 52.29L63.08 52.29Q63.08 52.75 63.43 52.99Q63.78 53.24 64.48 53.24ZM64.47 48.16L64.47 48.16Q65.52 48.16 66.13 48.63Q66.74 49.10 66.74 50.11L66.74 50.11L66.74 52.95Q66.74 53.22 66.64 53.35Q66.54 53.49 66.33 53.61L66.33 53.61Q66.04 53.78 65.57 53.91Q65.10 54.03 64.48 54.03L64.48 54.03Q63.36 54.03 62.74 53.59Q62.12 53.14 62.12 52.30L62.12 52.30Q62.12 51.51 62.64 51.11Q63.15 50.71 64.09 50.61L64.09 50.61L65.79 50.44L65.79 50.11Q65.79 49.51 65.43 49.23Q65.07 48.96 64.46 48.96L64.46 48.96Q63.96 48.96 63.51 49.10Q63.07 49.24 62.72 49.42L62.72 49.42Q62.62 49.34 62.55 49.23Q62.47 49.12 62.47 48.99L62.47 48.99Q62.47 48.82 62.55 48.72Q62.64 48.61 62.82 48.51L62.82 48.51Q63.14 48.34 63.56 48.25Q63.98 48.16 64.47 48.16ZM72.33 50.25L72.33 50.25Q72.33 49.58 71.95 49.27Q71.58 48.96 70.94 48.96L70.94 48.96Q70.46 48.96 70.09 49.08Q69.72 49.20 69.45 49.35L69.45 49.35L69.45 53.84Q69.39 53.86 69.27 53.89Q69.15 53.92 69.01 53.92L69.01 53.92Q68.49 53.92 68.49 53.49L68.49 53.49L68.49 49.40Q68.49 49.15 68.59 48.99Q68.70 48.82 68.95 48.67L68.95 48.67Q69.26 48.48 69.78 48.32Q70.29 48.16 70.94 48.16L70.94 48.16Q72.03 48.16 72.66 48.66Q73.29 49.15 73.29 50.20L73.29 50.20L73.29 53.84Q73.23 53.86 73.11 53.89Q72.98 53.92 72.85 53.92L72.85 53.92Q72.33 53.92 72.33 53.49L72.33 53.49L72.33 50.25ZM79.83 46.44L79.83 52.95Q79.83 53.19 79.73 53.32Q79.63 53.46 79.41 53.59L79.41 53.59Q79.17 53.74 78.73 53.88Q78.28 54.02 77.71 54.02L77.71 54.02Q77.06 54.02 76.52 53.85Q75.98 53.68 75.59 53.33Q75.20 52.98 74.99 52.43Q74.78 51.88 74.78 51.12L74.78 51.12Q74.78 50.34 75.00 49.78Q75.21 49.22 75.58 48.86Q75.94 48.50 76.44 48.33Q76.94 48.16 77.50 48.16L77.50 48.16Q77.89 48.16 78.25 48.26Q78.61 48.36 78.87 48.50L78.87 48.50L78.87 46.09Q78.93 46.06 79.06 46.03Q79.18 46.00 79.32 46.00L79.32 46.00Q79.83 46.00 79.83 46.44L79.83 46.44ZM78.87 52.92L78.87 49.36Q78.63 49.20 78.32 49.08Q78.01 48.96 77.60 48.96L77.60 48.96Q77.23 48.96 76.90 49.07Q76.57 49.18 76.32 49.44Q76.06 49.70 75.91 50.12Q75.76 50.54 75.76 51.14L75.76 51.14Q75.76 52.24 76.29 52.74Q76.82 53.23 77.70 53.23L77.70 53.23Q78.12 53.23 78.39 53.14Q78.66 53.05 78.87 52.92L78.87 52.92ZM83.64 53.24L83.64 53.24Q84.14 53.24 84.47 53.14Q84.80 53.04 84.94 52.94L84.94 52.94L84.94 51.20L83.46 51.36Q82.83 51.42 82.53 51.64Q82.23 51.86 82.23 52.29L82.23 52.29Q82.23 52.75 82.58 52.99Q82.93 53.24 83.64 53.24ZM83.62 48.16L83.62 48.16Q84.67 48.16 85.28 48.63Q85.89 49.10 85.89 50.11L85.89 50.11L85.89 52.95Q85.89 53.22 85.79 53.35Q85.69 53.49 85.48 53.61L85.48 53.61Q85.20 53.78 84.72 53.91Q84.25 54.03 83.64 54.03L83.64 54.03Q82.51 54.03 81.89 53.59Q81.27 53.14 81.27 52.30L81.27 52.30Q81.27 51.51 81.79 51.11Q82.30 50.71 83.24 50.61L83.24 50.61L84.94 50.44L84.94 50.11Q84.94 49.51 84.58 49.23Q84.22 48.96 83.61 48.96L83.61 48.96Q83.11 48.96 82.66 49.10Q82.22 49.24 81.87 49.42L81.87 49.42Q81.78 49.34 81.70 49.23Q81.62 49.12 81.62 48.99L81.62 48.99Q81.62 48.82 81.70 48.72Q81.79 48.61 81.97 48.51L81.97 48.51Q82.29 48.34 82.71 48.25Q83.13 48.16 83.62 48.16ZM88.60 49.35L88.60 53.84Q88.54 53.86 88.42 53.89Q88.30 53.92 88.16 53.92L88.16 53.92Q87.64 53.92 87.64 53.49L87.64 53.49L87.64 49.42Q87.64 49.15 87.75 48.99Q87.85 48.82 88.09 48.67L88.09 48.67Q88.40 48.46 88.93 48.31Q89.47 48.16 90.14 48.16L90.14 48.16Q91.10 48.16 91.10 48.64L91.10 48.64Q91.10 48.76 91.06 48.87Q91.03 48.97 90.97 49.04L90.97 49.04Q90.85 49.02 90.66 48.99Q90.46 48.97 90.27 48.97L90.27 48.97Q89.72 48.97 89.30 49.08Q88.88 49.20 88.60 49.35L88.60 49.35ZM96.97 46.44L96.97 52.95Q96.97 53.19 96.87 53.32Q96.76 53.46 96.55 53.59L96.55 53.59Q96.31 53.74 95.86 53.88Q95.42 54.02 94.84 54.02L94.84 54.02Q94.20 54.02 93.66 53.85Q93.12 53.68 92.73 53.33Q92.34 52.98 92.13 52.43Q91.92 51.88 91.92 51.12L91.92 51.12Q91.92 50.34 92.13 49.78Q92.35 49.22 92.71 48.86Q93.08 48.50 93.58 48.33Q94.08 48.16 94.64 48.16L94.64 48.16Q95.02 48.16 95.38 48.26Q95.74 48.36 96.01 48.50L96.01 48.50L96.01 46.09Q96.07 46.06 96.19 46.03Q96.32 46.00 96.45 46.00L96.45 46.00Q96.97 46.00 96.97 46.44L96.97 46.44ZM96.01 52.92L96.01 49.36Q95.77 49.20 95.46 49.08Q95.14 48.96 94.74 48.96L94.74 48.96Q94.36 48.96 94.03 49.07Q93.70 49.18 93.45 49.44Q93.20 49.70 93.05 50.12Q92.90 50.54 92.90 51.14L92.90 51.14Q92.90 52.24 93.43 52.74Q93.96 53.23 94.83 53.23L94.83 53.23Q95.25 53.23 95.52 53.14Q95.79 53.05 96.01 52.92L96.01 52.92Z"></path></svg>