<svg xmlns="http://www.w3.org/2000/svg" width="256" height="256" viewBox="0 0 100 100"><rect width="100" height="100" rx="20" fill="#9b9b9b"></rect><path fill="#fff" d="M33.81 47.29L33.81 47.29Q33.00 47.29 32.30 47.56Q31.60 47.84 31.10 48.38Q30.60 48.92 30.31 49.72Q30.02 50.53 30.02 51.56L30.02 51.56Q30.02 53.62 31.05 54.72Q32.08 55.81 33.81 55.81L33.81 55.81Q34.82 55.81 35.49 55.53Q36.16 55.26 36.69 54.90L36.69 54.90Q36.96 55.04 37.12 55.26Q37.29 55.47 37.29 55.78L37.29 55.78Q37.29 56.12 37.03 56.41Q36.76 56.70 36.30 56.91Q35.83 57.13 35.19 57.26Q34.56 57.39 33.81 57.39L33.81 57.39Q32.56 57.39 31.51 57.03Q30.45 56.67 29.68 55.95Q28.92 55.23 28.48 54.14Q28.05 53.05 28.05 51.56L28.05 51.56Q28.05 50.10 28.51 49.00Q28.96 47.91 29.73 47.17Q30.50 46.42 31.54 46.05Q32.59 45.68 33.76 45.68L33.76 45.68Q34.51 45.68 35.14 45.81Q35.78 45.94 36.24 46.18Q36.69 46.42 36.94 46.72Q37.20 47.02 37.20 47.34L37.20 47.34Q37.20 47.62 37.03 47.84Q36.86 48.06 36.60 48.18L36.60 48.18Q36.07 47.82 35.44 47.55Q34.82 47.29 33.81 47.29ZM47.83 49.86L47.83 49.86Q47.83 48.51 47.07 47.89Q46.32 47.26 45.04 47.26L45.04 47.26Q44.08 47.26 43.34 47.50Q42.60 47.74 42.07 48.06L42.07 48.06L42.07 57.03Q41.95 57.08 41.71 57.14Q41.47 57.20 41.18 57.20L41.18 57.20Q40.15 57.20 40.15 56.34L40.15 56.34L40.15 48.15Q40.15 47.65 40.35 47.32Q40.56 47 41.06 46.69L41.06 46.69Q41.68 46.30 42.72 45.99Q43.75 45.68 45.04 45.68L45.04 45.68Q47.23 45.68 48.49 46.66Q49.75 47.65 49.75 49.76L49.75 49.76L49.75 57.03Q49.63 57.08 49.38 57.14Q49.12 57.20 48.86 57.20L48.86 57.20Q47.83 57.20 47.83 56.34L47.83 56.34L47.83 49.86ZM62.11 51.63L54.72 52.66Q55.36 55.81 58.84 55.81L58.84 55.81Q59.85 55.81 60.67 55.47Q61.48 55.14 61.96 54.75L61.96 54.75Q62.54 55.09 62.54 55.66L62.54 55.66Q62.54 56 62.24 56.31Q61.94 56.62 61.42 56.86Q60.91 57.10 60.22 57.25Q59.54 57.39 58.75 57.39L58.75 57.39Q55.96 57.39 54.34 55.88Q52.72 54.37 52.72 51.46L52.72 51.46Q52.72 50.10 53.12 49.03Q53.52 47.96 54.22 47.22Q54.93 46.47 55.92 46.08Q56.90 45.68 58.05 45.68L58.05 45.68Q59.13 45.68 60.04 46.04Q60.96 46.40 61.62 47.06Q62.28 47.72 62.65 48.62Q63.02 49.52 63.02 50.60L63.02 50.60Q63.02 51.13 62.78 51.36Q62.54 51.58 62.11 51.63L62.11 51.63ZM58.03 47.24L58.03 47.24Q56.56 47.24 55.60 48.26Q54.64 49.28 54.60 51.18L54.60 51.18L61.20 50.26Q61.08 48.94 60.27 48.09Q59.47 47.24 58.03 47.24ZM69.60 57.39L69.60 57.39Q67.92 57.39 66.87 56.65Q65.83 55.90 65.83 54.18L65.83 54.18L65.83 42.78Q65.95 42.73 66.20 42.67Q66.45 42.61 66.74 42.61L66.74 42.61Q67.75 42.61 67.75 43.47L67.75 43.47L67.75 46.23L71.68 46.23Q71.76 46.35 71.83 46.56Q71.90 46.76 71.90 47L71.90 47Q71.90 47.82 71.18 47.82L71.18 47.82L67.75 47.82L67.75 54.06Q67.75 55.02 68.29 55.41Q68.83 55.81 69.81 55.81L69.81 55.81Q70.22 55.81 70.72 55.66Q71.23 55.52 71.56 55.33L71.56 55.33Q71.71 55.47 71.83 55.69Q71.95 55.90 71.95 56.19L71.95 56.19Q71.95 56.72 71.32 57.06Q70.70 57.39 69.60 57.39Z"></path></svg>