<svg xmlns="http://www.w3.org/2000/svg" width="256" height="256" viewBox="0 0 100 100"><rect width="100" height="100" rx="20" fill="#9b9b9b"></rect><path fill="#fff" d="M8.93 42.96L8.93 52.74Q8.93 53.10 8.78 53.29Q8.63 53.49 8.30 53.69L8.30 53.69Q7.94 53.92 7.28 54.13Q6.61 54.34 5.75 54.34L5.75 54.34Q4.77 54.34 3.96 54.09Q3.15 53.83 2.57 53.30Q1.98 52.77 1.67 51.95Q1.35 51.13 1.35 49.98L1.35 49.98Q1.35 48.81 1.68 47.98Q2.00 47.14 2.55 46.60Q3.10 46.06 3.85 45.81Q4.59 45.55 5.44 45.55L5.44 45.55Q6.02 45.55 6.56 45.70Q7.10 45.84 7.49 46.06L7.49 46.06L7.49 42.44Q7.58 42.40 7.77 42.36Q7.96 42.31 8.16 42.31L8.16 42.31Q8.93 42.31 8.93 42.96L8.93 42.96ZM7.49 52.68L7.49 47.35Q7.13 47.10 6.66 46.92Q6.20 46.74 5.58 46.74L5.58 46.74Q5.03 46.74 4.53 46.91Q4.04 47.08 3.66 47.47Q3.28 47.86 3.06 48.49Q2.83 49.12 2.83 50.02L2.83 50.02Q2.83 51.67 3.62 52.41Q4.41 53.15 5.73 53.15L5.73 53.15Q6.36 53.15 6.76 53.02Q7.17 52.88 7.49 52.68L7.49 52.68ZM13.20 46.36L13.20 54.07Q13.11 54.10 12.93 54.15Q12.75 54.19 12.53 54.19L12.53 54.19Q11.76 54.19 11.76 53.55L11.76 53.55L11.76 45.82Q11.85 45.79 12.04 45.74Q12.23 45.70 12.44 45.70L12.44 45.70Q13.20 45.70 13.20 46.36L13.20 46.36ZM11.54 43.16L11.54 43.16Q11.54 42.78 11.80 42.52Q12.06 42.26 12.48 42.26L12.48 42.26Q12.89 42.26 13.14 42.52Q13.40 42.78 13.40 43.16L13.40 43.16Q13.40 43.54 13.14 43.80Q12.89 44.06 12.48 44.06L12.48 44.06Q12.06 44.06 11.80 43.80Q11.54 43.54 11.54 43.16ZM21.57 54.37L21.57 53.24Q21.26 53.49 20.73 53.67Q20.20 53.85 19.46 53.85L19.46 53.85Q18.67 53.85 17.97 53.63Q17.27 53.40 16.74 52.91Q16.21 52.41 15.89 51.62Q15.57 50.83 15.57 49.69L15.57 49.69Q15.57 48.67 15.88 47.89Q16.19 47.12 16.74 46.60Q17.29 46.08 18.04 45.81Q18.80 45.55 19.71 45.55L19.71 45.55Q20.54 45.55 21.24 45.76Q21.93 45.97 22.40 46.27L22.40 46.27Q22.67 46.45 22.84 46.68Q23.01 46.90 23.01 47.23L23.01 47.23L23.01 54.46Q23.01 55.36 22.71 55.98Q22.41 56.61 21.88 56.99Q21.35 57.38 20.63 57.56Q19.91 57.74 19.09 57.74L19.09 57.74Q18.17 57.74 17.53 57.55Q16.89 57.36 16.66 57.22L16.66 57.22Q16.12 56.91 16.12 56.44L16.12 56.44Q16.12 56.19 16.23 56.02Q16.35 55.85 16.53 55.76L16.53 55.76Q16.91 56.05 17.59 56.29Q18.27 56.53 19.09 56.53L19.09 56.53Q20.29 56.53 20.93 56.02Q21.57 55.51 21.57 54.37L21.57 54.37ZM19.63 52.66L19.63 52.66Q20.34 52.66 20.80 52.44Q21.26 52.21 21.57 51.93L21.57 51.93L21.57 47.25Q21.26 47.05 20.80 46.89Q20.34 46.74 19.71 46.74L19.71 46.74Q18.49 46.74 17.76 47.48Q17.03 48.22 17.03 49.68L17.03 49.68Q17.03 50.49 17.23 51.05Q17.43 51.62 17.78 51.98Q18.13 52.34 18.61 52.50Q19.09 52.66 19.63 52.66ZM27.20 46.36L27.20 54.07Q27.11 54.10 26.93 54.15Q26.75 54.19 26.54 54.19L26.54 54.19Q25.76 54.19 25.76 53.55L25.76 53.55L25.76 45.82Q25.85 45.79 26.04 45.74Q26.23 45.70 26.45 45.70L26.45 45.70Q27.20 45.70 27.20 46.36L27.20 46.36ZM25.55 43.16L25.55 43.16Q25.55 42.78 25.81 42.52Q26.07 42.26 26.48 42.26L26.48 42.26Q26.90 42.26 27.15 42.52Q27.40 42.78 27.40 43.16L27.40 43.16Q27.40 43.54 27.15 43.80Q26.90 44.06 26.48 44.06L26.48 44.06Q26.07 44.06 25.81 43.80Q25.55 43.54 25.55 43.16ZM32.86 54.34L32.86 54.34Q31.60 54.34 30.81 53.78Q30.03 53.22 30.03 51.93L30.03 51.93L30.03 43.38Q30.12 43.34 30.31 43.30Q30.50 43.25 30.71 43.25L30.71 43.25Q31.47 43.25 31.47 43.90L31.47 43.90L31.47 45.97L34.42 45.97Q34.48 46.06 34.53 46.21Q34.58 46.36 34.58 46.54L34.58 46.54Q34.58 47.16 34.04 47.16L34.04 47.16L31.47 47.16L31.47 51.84Q31.47 52.56 31.87 52.85Q32.28 53.15 33.02 53.15L33.02 53.15Q33.32 53.15 33.70 53.04Q34.08 52.93 34.33 52.79L34.33 52.79Q34.44 52.90 34.53 53.06Q34.62 53.22 34.62 53.44L34.62 53.44Q34.62 53.83 34.15 54.09Q33.68 54.34 32.86 54.34ZM39.68 53.17L39.68 53.17Q40.43 53.17 40.93 53.02Q41.42 52.86 41.64 52.72L41.64 52.72L41.64 50.11L39.41 50.34Q38.47 50.43 38.02 50.77Q37.57 51.10 37.57 51.75L37.57 51.75Q37.57 52.43 38.09 52.80Q38.62 53.17 39.68 53.17ZM39.66 45.55L39.66 45.55Q41.23 45.55 42.14 46.26Q43.06 46.96 43.06 48.47L43.06 48.47L43.06 52.74Q43.06 53.13 42.91 53.34Q42.76 53.55 42.45 53.73L42.45 53.73Q42.02 53.98 41.31 54.17Q40.59 54.36 39.68 54.36L39.68 54.36Q37.98 54.36 37.06 53.69Q36.13 53.02 36.13 51.76L36.13 51.76Q36.13 50.58 36.91 49.97Q37.68 49.37 39.08 49.23L39.08 49.23L41.64 48.97L41.64 48.47Q41.64 47.57 41.10 47.16Q40.56 46.74 39.64 46.74L39.64 46.74Q38.88 46.74 38.22 46.96Q37.55 47.17 37.03 47.44L37.03 47.44Q36.89 47.32 36.77 47.16Q36.65 46.99 36.65 46.80L36.65 46.80Q36.65 46.54 36.78 46.38Q36.91 46.22 37.17 46.08L37.17 46.08Q37.66 45.82 38.29 45.69Q38.92 45.55 39.66 45.55ZM47.27 54.07L47.27 54.07Q47.18 54.10 47.00 54.15Q46.82 54.19 46.61 54.19L46.61 54.19Q45.83 54.19 45.83 53.55L45.83 53.55L45.83 42.44Q45.92 42.40 46.11 42.36Q46.30 42.31 46.50 42.31L46.50 42.31Q47.27 42.31 47.27 42.96L47.27 42.96L47.27 54.07ZM52.96 54.34L52.96 54.34Q51.70 54.34 50.92 53.78Q50.13 53.22 50.13 51.93L50.13 51.93L50.13 43.38Q50.22 43.34 50.41 43.30Q50.60 43.25 50.82 43.25L50.82 43.25Q51.57 43.25 51.57 43.90L51.57 43.90L51.57 45.97L54.53 45.97Q54.58 46.06 54.63 46.21Q54.69 46.36 54.69 46.54L54.69 46.54Q54.69 47.16 54.15 47.16L54.15 47.16L51.57 47.16L51.57 51.84Q51.57 52.56 51.98 52.85Q52.38 53.15 53.12 53.15L53.12 53.15Q53.43 53.15 53.81 53.04Q54.18 52.93 54.44 52.79L54.44 52.79Q54.54 52.90 54.63 53.06Q54.72 53.22 54.72 53.44L54.72 53.44Q54.72 53.83 54.26 54.09Q53.79 54.34 52.96 54.34ZM58.25 47.34L58.25 54.07Q58.16 54.10 57.98 54.15Q57.80 54.19 57.59 54.19L57.59 54.19Q56.81 54.19 56.81 53.55L56.81 53.55L56.81 47.44Q56.81 47.03 56.97 46.79Q57.12 46.54 57.48 46.31L57.48 46.31Q57.95 46.00 58.75 45.78Q59.55 45.55 60.56 45.55L60.56 45.55Q62.00 45.55 62.00 46.27L62.00 46.27Q62.00 46.45 61.94 46.61Q61.89 46.76 61.80 46.87L61.80 46.87Q61.62 46.83 61.33 46.80Q61.04 46.76 60.75 46.76L60.75 46.76Q59.93 46.76 59.30 46.93Q58.67 47.10 58.25 47.34L58.25 47.34ZM70.26 50.02L64.72 50.79Q65.20 53.15 67.81 53.15L67.81 53.15Q68.57 53.15 69.18 52.90Q69.79 52.65 70.15 52.36L70.15 52.36Q70.58 52.61 70.58 53.04L70.58 53.04Q70.58 53.29 70.36 53.53Q70.13 53.76 69.75 53.94Q69.36 54.12 68.85 54.23Q68.33 54.34 67.74 54.34L67.74 54.34Q65.65 54.34 64.44 53.20Q63.22 52.07 63.22 49.89L63.22 49.89Q63.22 48.87 63.52 48.06Q63.81 47.26 64.35 46.71Q64.88 46.15 65.61 45.85Q66.35 45.55 67.22 45.55L67.22 45.55Q68.03 45.55 68.71 45.82Q69.39 46.09 69.89 46.59Q70.39 47.08 70.66 47.76Q70.94 48.43 70.94 49.24L70.94 49.24Q70.94 49.64 70.76 49.81Q70.58 49.98 70.26 50.02L70.26 50.02ZM67.20 46.72L67.20 46.72Q66.10 46.72 65.38 47.49Q64.66 48.25 64.63 49.68L64.63 49.68L69.58 48.99Q69.48 48.00 68.88 47.36Q68.28 46.72 67.20 46.72ZM78.79 48.69L78.79 48.69Q78.79 47.68 78.22 47.21Q77.66 46.74 76.70 46.74L76.70 46.74Q75.98 46.74 75.42 46.92Q74.87 47.10 74.47 47.34L74.47 47.34L74.47 54.07Q74.38 54.10 74.20 54.15Q74.02 54.19 73.80 54.19L73.80 54.19Q73.03 54.19 73.03 53.55L73.03 53.55L73.03 47.41Q73.03 47.03 73.18 46.79Q73.34 46.54 73.72 46.31L73.72 46.31Q74.18 46.02 74.96 45.79Q75.73 45.55 76.70 45.55L76.70 45.55Q78.34 45.55 79.29 46.29Q80.23 47.03 80.23 48.61L80.23 48.61L80.23 54.07Q80.14 54.10 79.95 54.15Q79.76 54.19 79.56 54.19L79.56 54.19Q78.79 54.19 78.79 53.55L78.79 53.55L78.79 48.69ZM90.04 42.96L90.04 52.74Q90.04 53.10 89.89 53.29Q89.73 53.49 89.41 53.69L89.41 53.69Q89.05 53.92 88.39 54.13Q87.72 54.34 86.86 54.34L86.86 54.34Q85.88 54.34 85.07 54.09Q84.26 53.83 83.68 53.30Q83.09 52.77 82.78 51.95Q82.46 51.13 82.46 49.98L82.46 49.98Q82.46 48.81 82.79 47.98Q83.11 47.14 83.66 46.60Q84.21 46.06 84.96 45.81Q85.70 45.55 86.55 45.55L86.55 45.55Q87.13 45.55 87.67 45.70Q88.20 45.84 88.60 46.06L88.60 46.06L88.60 42.44Q88.69 42.40 88.88 42.36Q89.07 42.31 89.27 42.31L89.27 42.31Q90.04 42.31 90.04 42.96L90.04 42.96ZM88.60 52.68L88.60 47.35Q88.24 47.10 87.77 46.92Q87.31 46.74 86.69 46.74L86.69 46.74Q86.14 46.74 85.64 46.91Q85.15 47.08 84.77 47.47Q84.39 47.86 84.16 48.49Q83.94 49.12 83.94 50.02L83.94 50.02Q83.94 51.67 84.73 52.41Q85.52 53.15 86.84 53.15L86.84 53.15Q87.47 53.15 87.87 53.02Q88.28 52.88 88.60 52.68L88.60 52.68ZM98.65 51.89L98.65 51.89Q98.65 53.04 97.80 53.69Q96.95 54.34 95.35 54.34L95.35 54.34Q94.67 54.34 94.09 54.22Q93.52 54.10 93.11 53.91Q92.71 53.73 92.48 53.48Q92.26 53.24 92.26 52.99L92.26 52.99Q92.26 52.77 92.37 52.57Q92.49 52.38 92.72 52.23L92.72 52.23Q93.21 52.59 93.86 52.87Q94.51 53.15 95.33 53.15L95.33 53.15Q97.21 53.15 97.21 51.89L97.21 51.89Q97.21 50.86 95.96 50.56L95.96 50.56L94.47 50.16Q93.37 49.87 92.87 49.32Q92.36 48.78 92.36 47.91L92.36 47.91Q92.36 47.44 92.55 47.01Q92.74 46.58 93.14 46.26Q93.53 45.93 94.12 45.74Q94.70 45.55 95.50 45.55L95.50 45.55Q96.76 45.55 97.53 45.92Q98.30 46.29 98.30 46.78L98.30 46.78Q98.30 47.01 98.19 47.19Q98.07 47.37 97.87 47.46L97.87 47.46Q97.55 47.25 96.95 46.99Q96.36 46.74 95.55 46.74L95.55 46.74Q94.74 46.74 94.26 47.05Q93.79 47.35 93.79 47.91L93.79 47.91Q93.79 48.33 94.06 48.61Q94.33 48.90 94.96 49.05L94.96 49.05L96.20 49.35Q97.42 49.66 98.03 50.26Q98.65 50.86 98.65 51.89Z"></path></svg>