<svg xmlns="http://www.w3.org/2000/svg" width="256" height="256" viewBox="0 0 100 100"><rect width="100" height="100" rx="20" fill="#9b9b9b"></rect><path fill="#fff" d="M31.23 43.44L31.23 55.39Q31.23 55.83 31.05 56.07Q30.86 56.31 30.46 56.56L30.46 56.56Q30.02 56.84 29.21 57.09Q28.40 57.35 27.34 57.35L27.34 57.35Q26.15 57.35 25.16 57.04Q24.17 56.73 23.46 56.08Q22.74 55.43 22.36 54.43Q21.97 53.43 21.97 52.02L21.97 52.02Q21.97 50.59 22.37 49.57Q22.76 48.55 23.44 47.89Q24.11 47.23 25.02 46.92Q25.93 46.61 26.97 46.61L26.97 46.61Q27.67 46.61 28.33 46.79Q28.99 46.96 29.47 47.23L29.47 47.23L29.47 42.81Q29.58 42.76 29.82 42.71Q30.05 42.65 30.29 42.65L30.29 42.65Q31.23 42.65 31.23 43.44L31.23 43.44ZM29.47 55.32L29.47 48.81Q29.03 48.50 28.46 48.28Q27.89 48.06 27.14 48.06L27.14 48.06Q26.46 48.06 25.86 48.27Q25.25 48.48 24.79 48.95Q24.33 49.43 24.05 50.20Q23.78 50.97 23.78 52.07L23.78 52.07Q23.78 54.09 24.74 54.99Q25.71 55.90 27.32 55.90L27.32 55.90Q28.09 55.90 28.58 55.73Q29.08 55.57 29.47 55.32L29.47 55.32ZM34.27 57.06L34.27 57.06Q33.92 56.78 33.92 56.29L33.92 56.29Q33.92 56.03 34.03 55.80Q34.14 55.57 34.31 55.35L34.31 55.35L39.90 48.35L34.25 48.35Q34.18 48.24 34.12 48.05Q34.05 47.87 34.05 47.62L34.05 47.62Q34.05 46.90 34.71 46.90L34.71 46.90L41.75 46.90Q42.12 47.21 42.12 47.69L42.12 47.69Q42.12 48.13 41.71 48.61L41.71 48.61L36.12 55.63L42.08 55.63Q42.15 55.74 42.21 55.92Q42.28 56.09 42.28 56.34L42.28 56.34Q42.28 57.06 41.60 57.06L41.60 57.06L34.27 57.06ZM54.33 51.98L54.33 51.98Q54.33 53.21 53.98 54.20Q53.63 55.19 52.98 55.90Q52.33 56.60 51.41 56.97Q50.48 57.35 49.34 57.35L49.34 57.35Q48.20 57.35 47.27 56.97Q46.35 56.60 45.69 55.90Q45.03 55.19 44.68 54.20Q44.32 53.21 44.32 51.98L44.32 51.98Q44.32 50.75 44.69 49.76Q45.05 48.77 45.71 48.06Q46.37 47.36 47.29 46.99Q48.22 46.61 49.34 46.61L49.34 46.61Q50.46 46.61 51.39 46.99Q52.31 47.36 52.96 48.06Q53.61 48.77 53.97 49.76Q54.33 50.75 54.33 51.98ZM49.34 48.06L49.34 48.06Q47.84 48.06 46.99 49.10Q46.13 50.13 46.13 51.98L46.13 51.98Q46.13 53.85 46.98 54.87Q47.82 55.90 49.34 55.90L49.34 55.90Q50.86 55.90 51.69 54.86Q52.53 53.83 52.53 51.98L52.53 51.98Q52.53 50.13 51.68 49.10Q50.84 48.06 49.34 48.06ZM64.10 50.44L64.10 50.44Q64.10 49.21 63.41 48.64Q62.72 48.06 61.55 48.06L61.55 48.06Q60.67 48.06 59.99 48.28Q59.31 48.50 58.82 48.79L58.82 48.79L58.82 57.02Q58.71 57.06 58.49 57.12Q58.27 57.17 58.01 57.17L58.01 57.17Q57.06 57.17 57.06 56.38L57.06 56.38L57.06 48.88Q57.06 48.42 57.25 48.12Q57.44 47.82 57.90 47.54L57.90 47.54Q58.47 47.18 59.42 46.90Q60.36 46.61 61.55 46.61L61.55 46.61Q63.55 46.61 64.71 47.51Q65.86 48.42 65.86 50.35L65.86 50.35L65.86 57.02Q65.75 57.06 65.52 57.12Q65.29 57.17 65.05 57.17L65.05 57.17Q64.10 57.17 64.10 56.38L64.10 56.38L64.10 50.44ZM77.19 52.07L70.42 53.01Q71.01 55.90 74.20 55.90L74.20 55.90Q75.12 55.90 75.87 55.59Q76.62 55.28 77.06 54.93L77.06 54.93Q77.59 55.24 77.59 55.76L77.59 55.76Q77.59 56.07 77.31 56.36Q77.04 56.64 76.56 56.86Q76.09 57.08 75.47 57.22Q74.84 57.35 74.11 57.35L74.11 57.35Q71.56 57.35 70.08 55.96Q68.59 54.58 68.59 51.91L68.59 51.91Q68.59 50.66 68.95 49.68Q69.32 48.70 69.97 48.02Q70.61 47.34 71.52 46.97Q72.42 46.61 73.47 46.61L73.47 46.61Q74.46 46.61 75.30 46.94Q76.14 47.27 76.74 47.88Q77.35 48.48 77.69 49.31Q78.03 50.13 78.03 51.12L78.03 51.12Q78.03 51.61 77.81 51.81Q77.59 52.02 77.19 52.07L77.19 52.07ZM73.45 48.04L73.45 48.04Q72.11 48.04 71.23 48.98Q70.35 49.91 70.31 51.65L70.31 51.65L76.36 50.81Q76.25 49.60 75.51 48.82Q74.77 48.04 73.45 48.04Z"></path></svg>