<svg xmlns="http://www.w3.org/2000/svg" width="256" height="256" viewBox="0 0 100 100"><rect width="100" height="100" rx="20" fill="#9b9b9b"></rect><path fill="#fff" d="M13.43 51.91L7.27 52.77Q7.81 55.39 10.71 55.39L10.71 55.39Q11.55 55.39 12.23 55.11Q12.91 54.83 13.31 54.51L13.31 54.51Q13.79 54.79 13.79 55.27L13.79 55.27Q13.79 55.55 13.54 55.81Q13.29 56.07 12.86 56.27Q12.43 56.47 11.86 56.59Q11.29 56.71 10.63 56.71L10.63 56.71Q8.31 56.71 6.96 55.45Q5.61 54.19 5.61 51.77L5.61 51.77Q5.61 50.63 5.94 49.74Q6.27 48.85 6.86 48.23Q7.45 47.61 8.27 47.28Q9.09 46.95 10.05 46.95L10.05 46.95Q10.95 46.95 11.71 47.25Q12.47 47.55 13.02 48.10Q13.57 48.65 13.88 49.40Q14.19 50.15 14.19 51.05L14.19 51.05Q14.19 51.49 13.99 51.68Q13.79 51.87 13.43 51.91L13.43 51.91ZM10.03 48.25L10.03 48.25Q8.81 48.25 8.01 49.10Q7.21 49.95 7.17 51.53L7.17 51.53L12.67 50.77Q12.57 49.67 11.90 48.96Q11.23 48.25 10.03 48.25ZM20.79 48.29L20.79 48.29Q20.11 48.29 19.53 48.52Q18.95 48.75 18.53 49.20Q18.11 49.65 17.87 50.32Q17.63 50.99 17.63 51.85L17.63 51.85Q17.63 53.57 18.49 54.48Q19.35 55.39 20.79 55.39L20.79 55.39Q21.63 55.39 22.19 55.16Q22.75 54.93 23.19 54.63L23.19 54.63Q23.41 54.75 23.55 54.93Q23.69 55.11 23.69 55.37L23.69 55.37Q23.69 55.65 23.47 55.89Q23.25 56.13 22.86 56.31Q22.47 56.49 21.94 56.60Q21.41 56.71 20.79 56.71L20.79 56.71Q19.75 56.71 18.87 56.41Q17.99 56.11 17.35 55.51Q16.71 54.91 16.35 54.00Q15.99 53.09 15.99 51.85L15.99 51.85Q15.99 50.63 16.37 49.72Q16.75 48.81 17.39 48.19Q18.03 47.57 18.90 47.26Q19.77 46.95 20.75 46.95L20.75 46.95Q21.37 46.95 21.90 47.06Q22.43 47.17 22.81 47.37Q23.19 47.57 23.40 47.82Q23.61 48.07 23.61 48.33L23.61 48.33Q23.61 48.57 23.47 48.75Q23.33 48.93 23.11 49.03L23.11 49.03Q22.67 48.73 22.15 48.51Q21.63 48.29 20.79 48.29ZM34.65 51.83L34.65 51.83Q34.65 52.95 34.33 53.85Q34.01 54.75 33.42 55.39Q32.83 56.03 31.99 56.37Q31.15 56.71 30.11 56.71L30.11 56.71Q29.07 56.71 28.23 56.37Q27.39 56.03 26.79 55.39Q26.19 54.75 25.87 53.85Q25.55 52.95 25.55 51.83L25.55 51.83Q25.55 50.71 25.88 49.81Q26.21 48.91 26.81 48.27Q27.41 47.63 28.25 47.29Q29.09 46.95 30.11 46.95L30.11 46.95Q31.13 46.95 31.97 47.29Q32.81 47.63 33.40 48.27Q33.99 48.91 34.32 49.81Q34.65 50.71 34.65 51.83ZM30.11 48.27L30.11 48.27Q28.75 48.27 27.97 49.21Q27.19 50.15 27.19 51.83L27.19 51.83Q27.19 53.53 27.96 54.46Q28.73 55.39 30.11 55.39L30.11 55.39Q31.49 55.39 32.25 54.45Q33.01 53.51 33.01 51.83L33.01 51.83Q33.01 50.15 32.24 49.21Q31.47 48.27 30.11 48.27ZM43.53 50.43L43.53 50.43Q43.53 49.31 42.90 48.79Q42.27 48.27 41.21 48.27L41.21 48.27Q40.41 48.27 39.79 48.47Q39.17 48.67 38.73 48.93L38.73 48.93L38.73 56.41Q38.63 56.45 38.43 56.50Q38.23 56.55 37.99 56.55L37.99 56.55Q37.13 56.55 37.13 55.83L37.13 55.83L37.13 49.01Q37.13 48.59 37.30 48.32Q37.47 48.05 37.89 47.79L37.89 47.79Q38.41 47.47 39.27 47.21Q40.13 46.95 41.21 46.95L41.21 46.95Q43.03 46.95 44.08 47.77Q45.13 48.59 45.13 50.35L45.13 50.35L45.13 56.41Q45.03 56.45 44.82 56.50Q44.61 56.55 44.39 56.55L44.39 56.55Q43.53 56.55 43.53 55.83L43.53 55.83L43.53 50.43ZM56.71 51.83L56.71 51.83Q56.71 52.95 56.39 53.85Q56.07 54.75 55.48 55.39Q54.89 56.03 54.05 56.37Q53.21 56.71 52.17 56.71L52.17 56.71Q51.13 56.71 50.29 56.37Q49.45 56.03 48.85 55.39Q48.25 54.75 47.93 53.85Q47.61 52.95 47.61 51.83L47.61 51.83Q47.61 50.71 47.94 49.81Q48.27 48.91 48.87 48.27Q49.47 47.63 50.31 47.29Q51.15 46.95 52.17 46.95L52.17 46.95Q53.19 46.95 54.03 47.29Q54.87 47.63 55.46 48.27Q56.05 48.91 56.38 49.81Q56.71 50.71 56.71 51.83ZM52.17 48.27L52.17 48.27Q50.81 48.27 50.03 49.21Q49.25 50.15 49.25 51.83L49.25 51.83Q49.25 53.53 50.02 54.46Q50.79 55.39 52.17 55.39L52.17 55.39Q53.55 55.39 54.31 54.45Q55.07 53.51 55.07 51.83L55.07 51.83Q55.07 50.15 54.30 49.21Q53.53 48.27 52.17 48.27ZM70.91 50.17L70.91 50.17Q70.91 49.19 70.35 48.73Q69.79 48.27 68.85 48.27L68.85 48.27Q67.55 48.27 66.53 49.19L66.53 49.19Q66.65 49.59 66.65 50.05L66.65 50.05L66.65 56.41Q66.55 56.45 66.34 56.50Q66.13 56.55 65.91 56.55L65.91 56.55Q65.05 56.55 65.05 55.83L65.05 55.83L65.05 50.17Q65.05 49.19 64.49 48.73Q63.93 48.27 62.97 48.27L62.97 48.27Q62.33 48.27 61.76 48.47Q61.19 48.67 60.79 48.93L60.79 48.93L60.79 56.41Q60.69 56.45 60.49 56.50Q60.29 56.55 60.05 56.55L60.05 56.55Q59.19 56.55 59.19 55.83L59.19 55.83L59.19 49.01Q59.19 48.61 59.36 48.34Q59.53 48.07 59.95 47.79L59.95 47.79Q60.49 47.45 61.32 47.20Q62.15 46.95 62.99 46.95L62.99 46.95Q63.97 46.95 64.73 47.24Q65.49 47.53 65.89 48.03L65.89 48.03Q66.41 47.57 67.19 47.26Q67.97 46.95 68.97 46.95L68.97 46.95Q70.59 46.95 71.55 47.72Q72.51 48.49 72.51 50.09L72.51 50.09L72.51 56.41Q72.41 56.45 72.20 56.50Q71.99 56.55 71.77 56.55L71.77 56.55Q70.91 56.55 70.91 55.83L70.91 55.83L70.91 50.17ZM77.21 47.85L77.21 56.41Q77.11 56.45 76.91 56.50Q76.71 56.55 76.47 56.55L76.47 56.55Q75.61 56.55 75.61 55.83L75.61 55.83L75.61 47.25Q75.71 47.21 75.92 47.16Q76.13 47.11 76.37 47.11L76.37 47.11Q77.21 47.11 77.21 47.85L77.21 47.85ZM75.37 44.29L75.37 44.29Q75.37 43.87 75.66 43.58Q75.95 43.29 76.41 43.29L76.41 43.29Q76.87 43.29 77.15 43.58Q77.43 43.87 77.43 44.29L77.43 44.29Q77.43 44.71 77.15 45.00Q76.87 45.29 76.41 45.29L76.41 45.29Q75.95 45.29 75.66 45.00Q75.37 44.71 75.37 44.29ZM86.85 53.99L86.85 53.99Q86.85 55.27 85.91 55.99Q84.97 56.71 83.19 56.71L83.19 56.71Q82.43 56.71 81.79 56.58Q81.15 56.45 80.70 56.24Q80.25 56.03 80.00 55.76Q79.75 55.49 79.75 55.21L79.75 55.21Q79.75 54.97 79.88 54.75Q80.01 54.53 80.27 54.37L80.27 54.37Q80.81 54.77 81.53 55.08Q82.25 55.39 83.17 55.39L83.17 55.39Q85.25 55.39 85.25 53.99L85.25 53.99Q85.25 52.85 83.87 52.51L83.87 52.51L82.21 52.07Q80.99 51.75 80.43 51.14Q79.87 50.53 79.87 49.57L79.87 49.57Q79.87 49.05 80.08 48.57Q80.29 48.09 80.73 47.73Q81.17 47.37 81.82 47.16Q82.47 46.95 83.35 46.95L83.35 46.95Q84.75 46.95 85.61 47.36Q86.47 47.77 86.47 48.31L86.47 48.31Q86.47 48.57 86.34 48.77Q86.21 48.97 85.99 49.07L85.99 49.07Q85.63 48.83 84.97 48.55Q84.31 48.27 83.41 48.27L83.41 48.27Q82.51 48.27 81.98 48.61Q81.45 48.95 81.45 49.57L81.45 49.57Q81.45 50.03 81.75 50.35Q82.05 50.67 82.75 50.83L82.75 50.83L84.13 51.17Q85.49 51.51 86.17 52.18Q86.85 52.85 86.85 53.99ZM92.43 56.71L92.43 56.71Q91.03 56.71 90.16 56.09Q89.29 55.47 89.29 54.03L89.29 54.03L89.29 44.53Q89.39 44.49 89.60 44.44Q89.81 44.39 90.05 44.39L90.05 44.39Q90.89 44.39 90.89 45.11L90.89 45.11L90.89 47.41L94.17 47.41Q94.23 47.51 94.29 47.68Q94.35 47.85 94.35 48.05L94.35 48.05Q94.35 48.73 93.75 48.73L93.75 48.73L90.89 48.73L90.89 53.93Q90.89 54.73 91.34 55.06Q91.79 55.39 92.61 55.39L92.61 55.39Q92.95 55.39 93.37 55.27Q93.79 55.15 94.07 54.99L94.07 54.99Q94.19 55.11 94.29 55.29Q94.39 55.47 94.39 55.71L94.39 55.71Q94.39 56.15 93.87 56.43Q93.35 56.71 92.43 56.71Z"></path></svg>