<svg xmlns="http://www.w3.org/2000/svg" width="256" height="256" viewBox="0 0 100 100"><rect width="100" height="100" rx="20" fill="#9b9b9b"></rect><path fill="#fff" d="M21.57 50.15L14.79 51.10Q15.38 53.98 18.57 53.98L18.57 53.98Q19.50 53.98 20.25 53.67Q20.99 53.37 21.43 53.01L21.43 53.01Q21.96 53.32 21.96 53.85L21.96 53.85Q21.96 54.16 21.69 54.44Q21.41 54.73 20.94 54.95Q20.47 55.17 19.84 55.30Q19.21 55.43 18.49 55.43L18.49 55.43Q15.93 55.43 14.45 54.05Q12.96 52.66 12.96 50L12.96 50Q12.96 48.75 13.33 47.77Q13.69 46.79 14.34 46.11Q14.99 45.42 15.89 45.06Q16.79 44.70 17.85 44.70L17.85 44.70Q18.84 44.70 19.67 45.03Q20.51 45.36 21.11 45.96Q21.72 46.57 22.06 47.39Q22.40 48.22 22.40 49.21L22.40 49.21Q22.40 49.69 22.18 49.90Q21.96 50.11 21.57 50.15L21.57 50.15ZM17.83 46.13L17.83 46.13Q16.48 46.13 15.60 47.06Q14.72 48.00 14.68 49.74L14.68 49.74L20.73 48.90Q20.62 47.69 19.88 46.91Q19.15 46.13 17.83 46.13ZM29.29 55.43L29.29 55.43Q28.52 55.43 27.84 55.26Q27.15 55.08 26.71 54.84L26.71 54.84L26.71 59.11Q26.60 59.15 26.38 59.21Q26.16 59.26 25.90 59.26L25.90 59.26Q24.95 59.26 24.95 58.45L24.95 58.45L24.95 46.83Q24.95 46.39 25.11 46.13Q25.26 45.86 25.75 45.58L25.75 45.58Q26.34 45.25 27.16 44.97Q27.99 44.70 29.05 44.70L29.05 44.70Q30.12 44.70 31.08 45.01Q32.04 45.31 32.73 45.96Q33.42 46.61 33.83 47.62Q34.24 48.64 34.24 50.04L34.24 50.04Q34.24 51.41 33.87 52.42Q33.51 53.43 32.85 54.10Q32.19 54.77 31.28 55.10Q30.37 55.43 29.29 55.43ZM29.05 53.98L29.05 53.98Q30.59 53.98 31.52 53.05Q32.46 52.11 32.46 50.04L32.46 50.04Q32.46 48.97 32.18 48.22Q31.91 47.47 31.43 47.01Q30.96 46.55 30.34 46.35Q29.73 46.15 29.05 46.15L29.05 46.15Q28.25 46.15 27.70 46.35Q27.15 46.55 26.71 46.79L26.71 46.79L26.71 53.28Q27.13 53.59 27.70 53.78Q28.28 53.98 29.05 53.98ZM38.73 46.88L38.73 55.10Q38.62 55.15 38.40 55.20Q38.18 55.26 37.91 55.26L37.91 55.26Q36.97 55.26 36.97 54.47L36.97 54.47L36.97 47.01Q36.97 46.50 37.15 46.20Q37.34 45.91 37.78 45.62L37.78 45.62Q38.35 45.25 39.33 44.97Q40.31 44.70 41.54 44.70L41.54 44.70Q43.30 44.70 43.30 45.58L43.30 45.58Q43.30 45.80 43.24 45.98Q43.17 46.17 43.06 46.30L43.06 46.30Q42.84 46.26 42.49 46.22Q42.14 46.17 41.78 46.17L41.78 46.17Q40.77 46.17 40.00 46.38Q39.23 46.59 38.73 46.88L38.73 46.88ZM49.00 54.00L49.00 54.00Q49.92 54.00 50.53 53.82Q51.13 53.63 51.40 53.45L51.40 53.45L51.40 50.26L48.67 50.55Q47.53 50.66 46.98 51.07Q46.43 51.47 46.43 52.27L46.43 52.27Q46.43 53.10 47.06 53.55Q47.70 54.00 49.00 54.00ZM48.98 44.70L48.98 44.70Q50.89 44.70 52.01 45.56Q53.14 46.41 53.14 48.26L53.14 48.26L53.14 53.48Q53.14 53.96 52.95 54.21Q52.76 54.47 52.39 54.69L52.39 54.69Q51.86 54.99 50.99 55.22Q50.12 55.46 49.00 55.46L49.00 55.46Q46.93 55.46 45.80 54.64Q44.67 53.83 44.67 52.29L44.67 52.29Q44.67 50.84 45.61 50.10Q46.56 49.36 48.27 49.19L48.27 49.19L51.40 48.88L51.40 48.26Q51.40 47.16 50.74 46.66Q50.08 46.15 48.96 46.15L48.96 46.15Q48.03 46.15 47.22 46.41Q46.40 46.68 45.77 47.01L45.77 47.01Q45.59 46.85 45.45 46.66Q45.30 46.46 45.30 46.22L45.30 46.22Q45.30 45.91 45.46 45.71Q45.61 45.51 45.94 45.34L45.94 45.34Q46.54 45.03 47.31 44.86Q48.08 44.70 48.98 44.70ZM63.96 44.79L63.96 44.79Q64.33 44.79 64.56 44.98Q64.80 45.18 64.80 45.56L64.80 45.56Q64.80 45.80 64.62 46.40Q64.44 47.01 64.16 47.83Q63.87 48.66 63.51 49.65Q63.15 50.64 62.74 51.62Q62.33 52.60 61.92 53.50Q61.52 54.40 61.17 55.06L61.17 55.06Q61.06 55.15 60.78 55.21Q60.51 55.28 60.20 55.28L60.20 55.28Q59.38 55.28 59.14 54.82L59.14 54.82Q58.94 54.44 58.64 53.78Q58.33 53.12 57.98 52.29Q57.62 51.45 57.25 50.51Q56.88 49.56 56.52 48.63Q56.17 47.69 55.86 46.82Q55.56 45.95 55.36 45.27L55.36 45.27Q55.51 45.05 55.78 44.92Q56.04 44.79 56.30 44.79L56.30 44.79Q56.70 44.79 56.91 44.98Q57.12 45.18 57.29 45.64L57.29 45.64L58.66 49.58Q58.79 49.96 58.99 50.49Q59.19 51.03 59.39 51.59Q59.60 52.16 59.81 52.68Q60.02 53.21 60.15 53.59L60.15 53.59L60.24 53.59Q61.12 51.36 61.88 49.21Q62.64 47.05 63.21 44.96L63.21 44.96Q63.50 44.79 63.96 44.79ZM75.93 41.53L75.93 53.48Q75.93 53.92 75.74 54.16Q75.55 54.40 75.16 54.64L75.16 54.64Q74.72 54.93 73.90 55.18Q73.09 55.43 72.03 55.43L72.03 55.43Q70.84 55.43 69.86 55.13Q68.87 54.82 68.15 54.17Q67.44 53.52 67.05 52.52Q66.67 51.52 66.67 50.11L66.67 50.11Q66.67 48.68 67.06 47.66Q67.46 46.63 68.13 45.97Q68.80 45.31 69.71 45.01Q70.63 44.70 71.66 44.70L71.66 44.70Q72.36 44.70 73.02 44.87Q73.68 45.05 74.17 45.31L74.17 45.31L74.17 40.89Q74.28 40.85 74.51 40.79Q74.74 40.74 74.98 40.74L74.98 40.74Q75.93 40.74 75.93 41.53L75.93 41.53ZM74.17 53.41L74.17 46.90Q73.73 46.59 73.16 46.37Q72.58 46.15 71.84 46.15L71.84 46.15Q71.15 46.15 70.55 46.36Q69.94 46.57 69.48 47.04Q69.02 47.51 68.74 48.28Q68.47 49.05 68.47 50.15L68.47 50.15Q68.47 52.18 69.44 53.08Q70.41 53.98 72.01 53.98L72.01 53.98Q72.78 53.98 73.28 53.82Q73.77 53.65 74.17 53.41L74.17 53.41ZM82.90 54.00L82.90 54.00Q83.83 54.00 84.43 53.82Q85.04 53.63 85.30 53.45L85.30 53.45L85.30 50.26L82.57 50.55Q81.43 50.66 80.88 51.07Q80.33 51.47 80.33 52.27L80.33 52.27Q80.33 53.10 80.97 53.55Q81.60 54.00 82.90 54.00ZM82.88 44.70L82.88 44.70Q84.79 44.70 85.92 45.56Q87.04 46.41 87.04 48.26L87.04 48.26L87.04 53.48Q87.04 53.96 86.85 54.21Q86.66 54.47 86.29 54.69L86.29 54.69Q85.76 54.99 84.89 55.22Q84.02 55.46 82.90 55.46L82.90 55.46Q80.83 55.46 79.70 54.64Q78.57 53.83 78.57 52.29L78.57 52.29Q78.57 50.84 79.51 50.10Q80.46 49.36 82.18 49.19L82.18 49.19L85.30 48.88L85.30 48.26Q85.30 47.16 84.64 46.66Q83.98 46.15 82.86 46.15L82.86 46.15Q81.93 46.15 81.12 46.41Q80.31 46.68 79.67 47.01L79.67 47.01Q79.49 46.85 79.35 46.66Q79.21 46.46 79.21 46.22L79.21 46.22Q79.21 45.91 79.36 45.71Q79.51 45.51 79.84 45.34L79.84 45.34Q80.44 45.03 81.21 44.86Q81.98 44.70 82.88 44.70Z"></path></svg>