<svg xmlns="http://www.w3.org/2000/svg" width="256" height="256" viewBox="0 0 100 100"><rect width="100" height="100" rx="20" fill="#9b9b9b"></rect><path fill="#fff" d="M17.44 46.24L17.44 47.62L21.80 47.62Q21.86 47.73 21.93 47.91Q21.99 48.09 21.99 48.33L21.99 48.33Q21.99 49.05 21.31 49.05L21.31 49.05L17.46 49.05L17.46 57.17Q17.35 57.22 17.13 57.27Q16.91 57.33 16.65 57.33L16.65 57.33Q15.70 57.33 15.70 56.53L15.70 56.53L15.70 46.15Q15.70 44.21 16.75 43.34Q17.79 42.48 19.66 42.48L19.66 42.48Q20.92 42.48 21.63 42.81Q22.35 43.14 22.35 43.62L22.35 43.62Q22.35 44.10 21.97 44.43L21.97 44.43Q21.58 44.21 20.98 44.07Q20.39 43.93 19.84 43.93L19.84 43.93Q18.50 43.93 17.97 44.48Q17.44 45.03 17.44 46.24L17.44 46.24ZM26.31 47.76L26.31 57.17Q26.20 57.22 25.98 57.27Q25.76 57.33 25.49 57.33L25.49 57.33Q24.55 57.33 24.55 56.53L24.55 56.53L24.55 47.10Q24.66 47.05 24.89 47.00Q25.12 46.94 25.38 46.94L25.38 46.94Q26.31 46.94 26.31 47.76L26.31 47.76ZM24.28 43.84L24.28 43.84Q24.28 43.38 24.60 43.06Q24.92 42.74 25.43 42.74L25.43 42.74Q25.93 42.74 26.24 43.06Q26.55 43.38 26.55 43.84L26.55 43.84Q26.55 44.30 26.24 44.62Q25.93 44.94 25.43 44.94L25.43 44.94Q24.92 44.94 24.60 44.62Q24.28 44.30 24.28 43.84ZM36.78 50.59L36.78 50.59Q36.78 49.36 36.08 48.79Q35.39 48.22 34.23 48.22L34.23 48.22Q33.35 48.22 32.66 48.44Q31.98 48.66 31.50 48.94L31.50 48.94L31.50 57.17Q31.39 57.22 31.17 57.27Q30.95 57.33 30.68 57.33L30.68 57.33Q29.74 57.33 29.74 56.53L29.74 56.53L29.74 49.03Q29.74 48.57 29.92 48.27Q30.11 47.98 30.57 47.69L30.57 47.69Q31.15 47.34 32.09 47.05Q33.04 46.77 34.23 46.77L34.23 46.77Q36.23 46.77 37.38 47.67Q38.54 48.57 38.54 50.51L38.54 50.51L38.54 57.17Q38.43 57.22 38.20 57.27Q37.97 57.33 37.72 57.33L37.72 57.33Q36.78 57.33 36.78 56.53L36.78 56.53L36.78 50.59ZM45.47 56.07L45.47 56.07Q46.39 56.07 47.00 55.88Q47.60 55.70 47.87 55.52L47.87 55.52L47.87 52.33L45.14 52.62Q43.99 52.73 43.44 53.13Q42.89 53.54 42.89 54.33L42.89 54.33Q42.89 55.17 43.53 55.62Q44.17 56.07 45.47 56.07ZM45.45 46.77L45.45 46.77Q47.36 46.77 48.48 47.62Q49.60 48.48 49.60 50.33L49.60 50.33L49.60 55.54Q49.60 56.03 49.42 56.28Q49.23 56.53 48.86 56.75L48.86 56.75Q48.33 57.06 47.46 57.29Q46.59 57.52 45.47 57.52L45.47 57.52Q43.40 57.52 42.27 56.71Q41.13 55.90 41.13 54.36L41.13 54.36Q41.13 52.90 42.08 52.17Q43.03 51.43 44.74 51.25L44.74 51.25L47.87 50.95L47.87 50.33Q47.87 49.23 47.21 48.72Q46.55 48.22 45.42 48.22L45.42 48.22Q44.50 48.22 43.69 48.48Q42.87 48.75 42.23 49.08L42.23 49.08Q42.06 48.92 41.91 48.72Q41.77 48.53 41.77 48.28L41.77 48.28Q41.77 47.98 41.93 47.78Q42.08 47.58 42.41 47.40L42.41 47.40Q43.00 47.10 43.77 46.93Q44.54 46.77 45.45 46.77ZM59.86 50.59L59.86 50.59Q59.86 49.36 59.16 48.79Q58.47 48.22 57.30 48.22L57.30 48.22Q56.42 48.22 55.74 48.44Q55.06 48.66 54.58 48.94L54.58 48.94L54.58 57.17Q54.47 57.22 54.25 57.27Q54.03 57.33 53.76 57.33L53.76 57.33Q52.82 57.33 52.82 56.53L52.82 56.53L52.82 49.03Q52.82 48.57 53.00 48.27Q53.19 47.98 53.65 47.69L53.65 47.69Q54.22 47.34 55.17 47.05Q56.12 46.77 57.30 46.77L57.30 46.77Q59.31 46.77 60.46 47.67Q61.62 48.57 61.62 50.51L61.62 50.51L61.62 57.17Q61.51 57.22 61.27 57.27Q61.04 57.33 60.80 57.33L60.80 57.33Q59.86 57.33 59.86 56.53L59.86 56.53L59.86 50.59ZM69.62 48.24L69.62 48.24Q68.88 48.24 68.24 48.49Q67.60 48.75 67.14 49.24Q66.68 49.74 66.41 50.47Q66.15 51.21 66.15 52.16L66.15 52.16Q66.15 54.05 67.09 55.05Q68.04 56.05 69.62 56.05L69.62 56.05Q70.55 56.05 71.16 55.80Q71.78 55.54 72.26 55.21L72.26 55.21Q72.51 55.35 72.66 55.54Q72.81 55.74 72.81 56.03L72.81 56.03Q72.81 56.34 72.57 56.60Q72.33 56.86 71.90 57.06Q71.47 57.26 70.89 57.38Q70.31 57.50 69.62 57.50L69.62 57.50Q68.48 57.50 67.51 57.17Q66.54 56.84 65.84 56.18Q65.14 55.52 64.74 54.52Q64.34 53.52 64.34 52.16L64.34 52.16Q64.34 50.81 64.76 49.81Q65.18 48.81 65.88 48.13Q66.59 47.45 67.55 47.11Q68.50 46.77 69.58 46.77L69.58 46.77Q70.26 46.77 70.84 46.89Q71.43 47.01 71.85 47.23Q72.26 47.45 72.50 47.72Q72.73 48.00 72.73 48.28L72.73 48.28Q72.73 48.55 72.57 48.75Q72.42 48.94 72.18 49.05L72.18 49.05Q71.69 48.72 71.12 48.48Q70.55 48.24 69.62 48.24ZM83.46 52.22L76.69 53.17Q77.28 56.05 80.47 56.05L80.47 56.05Q81.39 56.05 82.14 55.74Q82.89 55.43 83.33 55.08L83.33 55.08Q83.86 55.39 83.86 55.92L83.86 55.92Q83.86 56.23 83.58 56.51Q83.31 56.80 82.83 57.02Q82.36 57.24 81.73 57.37Q81.11 57.50 80.38 57.50L80.38 57.50Q77.83 57.50 76.34 56.12Q74.86 54.73 74.86 52.07L74.86 52.07Q74.86 50.81 75.22 49.83Q75.59 48.86 76.23 48.17Q76.88 47.49 77.79 47.13Q78.69 46.77 79.74 46.77L79.74 46.77Q80.73 46.77 81.57 47.10Q82.41 47.43 83.01 48.03Q83.62 48.64 83.96 49.46Q84.30 50.29 84.30 51.28L84.30 51.28Q84.30 51.76 84.08 51.97Q83.86 52.18 83.46 52.22L83.46 52.22ZM79.72 48.20L79.72 48.20Q78.38 48.20 77.50 49.13Q76.62 50.07 76.58 51.80L76.58 51.80L82.63 50.97Q82.52 49.76 81.78 48.98Q81.04 48.20 79.72 48.20Z"></path></svg>