<svg xmlns="http://www.w3.org/2000/svg" width="256" height="256" viewBox="0 0 100 100"><rect width="100" height="100" rx="20" fill="#9b9b9b"></rect><path fill="#fff" d="M15.91 46.24L15.91 47.62L20.27 47.62Q20.33 47.73 20.40 47.91Q20.47 48.09 20.47 48.33L20.47 48.33Q20.47 49.05 19.78 49.05L19.78 49.05L15.93 49.05L15.93 57.17Q15.82 57.22 15.60 57.27Q15.38 57.33 15.12 57.33L15.12 57.33Q14.17 57.33 14.17 56.53L14.17 56.53L14.17 46.15Q14.17 44.21 15.22 43.34Q16.26 42.48 18.13 42.48L18.13 42.48Q19.39 42.48 20.10 42.81Q20.82 43.14 20.82 43.62L20.82 43.62Q20.82 44.10 20.44 44.43L20.44 44.43Q20.05 44.21 19.45 44.07Q18.86 43.93 18.31 43.93L18.31 43.93Q16.97 43.93 16.44 44.48Q15.91 45.03 15.91 46.24L15.91 46.24ZM32.35 52.13L32.35 52.13Q32.35 53.37 31.99 54.36Q31.64 55.35 30.99 56.05Q30.34 56.75 29.42 57.13Q28.50 57.50 27.35 57.50L27.35 57.50Q26.21 57.50 25.28 57.13Q24.36 56.75 23.70 56.05Q23.04 55.35 22.69 54.36Q22.34 53.37 22.34 52.13L22.34 52.13Q22.34 50.90 22.70 49.91Q23.06 48.92 23.72 48.22Q24.38 47.51 25.31 47.14Q26.23 46.77 27.35 46.77L27.35 46.77Q28.47 46.77 29.40 47.14Q30.32 47.51 30.97 48.22Q31.62 48.92 31.98 49.91Q32.35 50.90 32.35 52.13ZM27.35 48.22L27.35 48.22Q25.86 48.22 25.00 49.25Q24.14 50.29 24.14 52.13L24.14 52.13Q24.14 54.00 24.99 55.03Q25.83 56.05 27.35 56.05L27.35 56.05Q28.87 56.05 29.71 55.02Q30.54 53.98 30.54 52.13L30.54 52.13Q30.54 50.29 29.69 49.25Q28.85 48.22 27.35 48.22ZM44.51 52.13L44.51 52.13Q44.51 53.37 44.16 54.36Q43.81 55.35 43.16 56.05Q42.51 56.75 41.59 57.13Q40.66 57.50 39.52 57.50L39.52 57.50Q38.37 57.50 37.45 57.13Q36.53 56.75 35.87 56.05Q35.21 55.35 34.85 54.36Q34.50 53.37 34.50 52.13L34.50 52.13Q34.50 50.90 34.86 49.91Q35.23 48.92 35.89 48.22Q36.55 47.51 37.47 47.14Q38.40 46.77 39.52 46.77L39.52 46.77Q40.64 46.77 41.56 47.14Q42.49 47.51 43.14 48.22Q43.79 48.92 44.15 49.91Q44.51 50.90 44.51 52.13ZM39.52 48.22L39.52 48.22Q38.02 48.22 37.16 49.25Q36.31 50.29 36.31 52.13L36.31 52.13Q36.31 54.00 37.15 55.03Q38.00 56.05 39.52 56.05L39.52 56.05Q41.04 56.05 41.87 55.02Q42.71 53.98 42.71 52.13L42.71 52.13Q42.71 50.29 41.86 49.25Q41.01 48.22 39.52 48.22ZM50.72 57.50L50.72 57.50Q49.18 57.50 48.22 56.82Q47.26 56.14 47.26 54.55L47.26 54.55L47.26 44.10Q47.37 44.06 47.60 44.00Q47.83 43.95 48.10 43.95L48.10 43.95Q49.02 43.95 49.02 44.74L49.02 44.74L49.02 47.27L52.63 47.27Q52.70 47.38 52.76 47.57Q52.83 47.76 52.83 47.98L52.83 47.98Q52.83 48.72 52.17 48.72L52.17 48.72L49.02 48.72L49.02 54.44Q49.02 55.32 49.52 55.69Q50.01 56.05 50.91 56.05L50.91 56.05Q51.29 56.05 51.75 55.92Q52.21 55.79 52.52 55.61L52.52 55.61Q52.65 55.74 52.76 55.94Q52.87 56.14 52.87 56.40L52.87 56.40Q52.87 56.89 52.30 57.19Q51.73 57.50 50.72 57.50ZM59.96 46.77L59.96 46.77Q60.97 46.77 61.85 47.10Q62.73 47.43 63.38 48.09Q64.03 48.75 64.39 49.76Q64.75 50.77 64.75 52.13L64.75 52.13Q64.75 53.52 64.38 54.53Q64.00 55.54 63.33 56.20Q62.66 56.86 61.72 57.18Q60.77 57.50 59.65 57.50L59.65 57.50Q58.57 57.50 57.70 57.25Q56.83 57.00 56.28 56.67L56.28 56.67Q55.82 56.38 55.64 56.10Q55.47 55.83 55.47 55.37L55.47 55.37L55.47 42.96Q55.58 42.92 55.81 42.86Q56.04 42.81 56.30 42.81L56.30 42.81Q57.23 42.81 57.23 43.60L57.23 43.60L57.23 47.54Q57.71 47.23 58.38 47.00Q59.05 46.77 59.96 46.77ZM59.69 48.22L59.69 48.22Q58.92 48.22 58.29 48.49Q57.67 48.77 57.23 49.14L57.23 49.14L57.23 55.37Q57.56 55.61 58.18 55.83Q58.81 56.05 59.65 56.05L59.65 56.05Q60.40 56.05 61 55.82Q61.61 55.59 62.05 55.10Q62.48 54.62 62.73 53.88Q62.97 53.15 62.97 52.13L62.97 52.13Q62.97 51.12 62.73 50.37Q62.48 49.63 62.05 49.15Q61.61 48.68 61 48.45Q60.40 48.22 59.69 48.22ZM71.13 56.07L71.13 56.07Q72.05 56.07 72.66 55.88Q73.27 55.70 73.53 55.52L73.53 55.52L73.53 52.33L70.80 52.62Q69.66 52.73 69.11 53.13Q68.56 53.54 68.56 54.33L68.56 54.33Q68.56 55.17 69.19 55.62Q69.83 56.07 71.13 56.07ZM71.11 46.77L71.11 46.77Q73.02 46.77 74.14 47.62Q75.27 48.48 75.27 50.33L75.27 50.33L75.27 55.54Q75.27 56.03 75.08 56.28Q74.89 56.53 74.52 56.75L74.52 56.75Q73.99 57.06 73.12 57.29Q72.25 57.52 71.13 57.52L71.13 57.52Q69.06 57.52 67.93 56.71Q66.80 55.90 66.80 54.36L66.80 54.36Q66.80 52.90 67.74 52.17Q68.69 51.43 70.41 51.25L70.41 51.25L73.53 50.95L73.53 50.33Q73.53 49.23 72.87 48.72Q72.21 48.22 71.09 48.22L71.09 48.22Q70.16 48.22 69.35 48.48Q68.53 48.75 67.90 49.08L67.90 49.08Q67.72 48.92 67.58 48.72Q67.44 48.53 67.44 48.28L67.44 48.28Q67.44 47.98 67.59 47.78Q67.74 47.58 68.07 47.40L68.07 47.40Q68.67 47.10 69.44 46.93Q70.21 46.77 71.11 46.77ZM80.41 57.17L80.41 57.17Q80.30 57.22 80.08 57.27Q79.86 57.33 79.60 57.33L79.60 57.33Q78.65 57.33 78.65 56.53L78.65 56.53L78.65 42.96Q78.76 42.92 79.00 42.86Q79.23 42.81 79.47 42.81L79.47 42.81Q80.41 42.81 80.41 43.60L80.41 43.60L80.41 57.17ZM85.83 57.17L85.83 57.17Q85.72 57.22 85.50 57.27Q85.28 57.33 85.01 57.33L85.01 57.33Q84.07 57.33 84.07 56.53L84.07 56.53L84.07 42.96Q84.18 42.92 84.41 42.86Q84.64 42.81 84.88 42.81L84.88 42.81Q85.83 42.81 85.83 43.60L85.83 43.60L85.83 57.17Z"></path></svg>