<svg xmlns="http://www.w3.org/2000/svg" width="256" height="256" viewBox="0 0 100 100"><rect width="100" height="100" rx="20" fill="#9b9b9b"></rect><path fill="#fff" d="M16.46 46.25L16.46 47.63L20.82 47.63Q20.88 47.74 20.95 47.92Q21.02 48.10 21.02 48.34L21.02 48.34Q21.02 49.06 20.33 49.06L20.33 49.06L16.48 49.06L16.48 57.18Q16.37 57.23 16.15 57.28Q15.93 57.34 15.67 57.34L15.67 57.34Q14.72 57.34 14.72 56.54L14.72 56.54L14.72 46.16Q14.72 44.22 15.77 43.36Q16.81 42.49 18.68 42.49L18.68 42.49Q19.94 42.49 20.65 42.82Q21.37 43.15 21.37 43.63L21.37 43.63Q21.37 44.11 20.99 44.44L20.99 44.44Q20.60 44.22 20.00 44.08Q19.41 43.94 18.86 43.94L18.86 43.94Q17.52 43.94 16.99 44.49Q16.46 45.04 16.46 46.25L16.46 46.25ZM32.89 52.14L32.89 52.14Q32.89 53.38 32.54 54.37Q32.19 55.36 31.54 56.06Q30.89 56.76 29.97 57.14Q29.04 57.51 27.90 57.51L27.90 57.51Q26.76 57.51 25.83 57.14Q24.91 56.76 24.25 56.06Q23.59 55.36 23.24 54.37Q22.88 53.38 22.88 52.14L22.88 52.14Q22.88 50.91 23.25 49.92Q23.61 48.93 24.27 48.23Q24.93 47.52 25.85 47.15Q26.78 46.78 27.90 46.78L27.90 46.78Q29.02 46.78 29.95 47.15Q30.87 47.52 31.52 48.23Q32.17 48.93 32.53 49.92Q32.89 50.91 32.89 52.14ZM27.90 48.23L27.90 48.23Q26.40 48.23 25.55 49.26Q24.69 50.30 24.69 52.14L24.69 52.14Q24.69 54.02 25.54 55.04Q26.38 56.06 27.90 56.06L27.90 56.06Q29.42 56.06 30.25 55.03Q31.09 53.99 31.09 52.14L31.09 52.14Q31.09 50.30 30.24 49.26Q29.40 48.23 27.90 48.23ZM37.38 48.95L37.38 57.18Q37.27 57.23 37.05 57.28Q36.83 57.34 36.57 57.34L36.57 57.34Q35.62 57.34 35.62 56.54L35.62 56.54L35.62 49.09Q35.62 48.58 35.81 48.28Q36.00 47.99 36.44 47.70L36.44 47.70Q37.01 47.33 37.99 47.05Q38.97 46.78 40.20 46.78L40.20 46.78Q41.96 46.78 41.96 47.66L41.96 47.66Q41.96 47.88 41.89 48.06Q41.83 48.25 41.72 48.38L41.72 48.38Q41.50 48.34 41.14 48.30Q40.79 48.25 40.44 48.25L40.44 48.25Q39.43 48.25 38.66 48.46Q37.89 48.67 37.38 48.95L37.38 48.95ZM47.50 57.51L47.50 57.51Q45.96 57.51 45.01 56.83Q44.05 56.15 44.05 54.56L44.05 54.56L44.05 44.11Q44.16 44.07 44.39 44.02Q44.62 43.96 44.88 43.96L44.88 43.96Q45.81 43.96 45.81 44.75L45.81 44.75L45.81 47.28L49.42 47.28Q49.48 47.39 49.55 47.58Q49.61 47.77 49.61 47.99L49.61 47.99Q49.61 48.73 48.95 48.73L48.95 48.73L45.81 48.73L45.81 54.45Q45.81 55.33 46.30 55.70Q46.80 56.06 47.70 56.06L47.70 56.06Q48.07 56.06 48.54 55.93Q49.00 55.80 49.31 55.62L49.31 55.62Q49.44 55.75 49.55 55.95Q49.66 56.15 49.66 56.41L49.66 56.41Q49.66 56.90 49.09 57.20Q48.51 57.51 47.50 57.51ZM52.21 53.51L52.21 47.11Q52.32 47.06 52.55 47.01Q52.78 46.95 53.05 46.95L53.05 46.95Q53.97 46.95 53.97 47.77L53.97 47.77L53.97 53.42Q53.97 54.85 54.72 55.46Q55.47 56.06 56.79 56.06L56.79 56.06Q57.67 56.06 58.28 55.87Q58.90 55.69 59.25 55.49L59.25 55.49L59.25 47.11Q59.36 47.06 59.59 47.01Q59.82 46.95 60.06 46.95L60.06 46.95Q61.01 46.95 61.01 47.77L61.01 47.77L61.01 55.42Q61.01 55.88 60.89 56.16Q60.77 56.43 60.31 56.70L60.31 56.70Q59.80 56.98 58.91 57.25Q58.02 57.51 56.76 57.51L56.76 57.51Q54.56 57.51 53.39 56.54Q52.21 55.58 52.21 53.51L52.21 53.51ZM71.35 50.60L71.35 50.60Q71.35 49.37 70.66 48.80Q69.96 48.23 68.80 48.23L68.80 48.23Q67.92 48.23 67.24 48.45Q66.55 48.67 66.07 48.95L66.07 48.95L66.07 57.18Q65.96 57.23 65.74 57.28Q65.52 57.34 65.26 57.34L65.26 57.34Q64.31 57.34 64.31 56.54L64.31 56.54L64.31 49.04Q64.31 48.58 64.50 48.28Q64.68 47.99 65.15 47.70L65.15 47.70Q65.72 47.35 66.66 47.06Q67.61 46.78 68.80 46.78L68.80 46.78Q70.80 46.78 71.96 47.68Q73.11 48.58 73.11 50.52L73.11 50.52L73.11 57.18Q73.00 57.23 72.77 57.28Q72.54 57.34 72.30 57.34L72.30 57.34Q71.35 57.34 71.35 56.54L71.35 56.54L71.35 50.60ZM84.44 52.23L77.66 53.18Q78.26 56.06 81.45 56.06L81.45 56.06Q82.37 56.06 83.12 55.75Q83.87 55.45 84.31 55.09L84.31 55.09Q84.84 55.40 84.84 55.93L84.84 55.93Q84.84 56.24 84.56 56.52Q84.29 56.81 83.81 57.03Q83.34 57.25 82.71 57.38Q82.09 57.51 81.36 57.51L81.36 57.51Q78.81 57.51 77.32 56.13Q75.84 54.74 75.84 52.08L75.84 52.08Q75.84 50.82 76.20 49.85Q76.56 48.87 77.21 48.18Q77.86 47.50 78.77 47.14Q79.67 46.78 80.72 46.78L80.72 46.78Q81.71 46.78 82.55 47.11Q83.38 47.44 83.99 48.04Q84.59 48.65 84.94 49.47Q85.28 50.30 85.28 51.29L85.28 51.29Q85.28 51.77 85.06 51.98Q84.84 52.19 84.44 52.23L84.44 52.23ZM80.70 48.21L80.70 48.21Q79.36 48.21 78.48 49.14Q77.60 50.08 77.55 51.81L77.55 51.81L83.60 50.98Q83.49 49.77 82.76 48.99Q82.02 48.21 80.70 48.21Z"></path></svg>