<svg xmlns="http://www.w3.org/2000/svg" width="256" height="256" viewBox="0 0 100 100"><rect width="100" height="100" rx="20" fill="#9b9b9b"></rect><path fill="#fff" d="M17.11 54.83L17.11 53.57Q16.77 53.85 16.18 54.05Q15.59 54.25 14.77 54.25L14.77 54.25Q13.89 54.25 13.11 54.00Q12.33 53.75 11.74 53.20Q11.15 52.65 10.80 51.77Q10.45 50.89 10.45 49.63L10.45 49.63Q10.45 48.49 10.79 47.63Q11.13 46.77 11.74 46.19Q12.35 45.61 13.19 45.32Q14.03 45.03 15.05 45.03L15.05 45.03Q15.97 45.03 16.74 45.26Q17.51 45.49 18.03 45.83L18.03 45.83Q18.33 46.03 18.52 46.28Q18.71 46.53 18.71 46.89L18.71 46.89L18.71 54.93Q18.71 55.93 18.38 56.62Q18.05 57.31 17.46 57.74Q16.87 58.17 16.07 58.37Q15.27 58.57 14.35 58.57L14.35 58.57Q13.33 58.57 12.62 58.36Q11.91 58.15 11.65 57.99L11.65 57.99Q11.05 57.65 11.05 57.13L11.05 57.13Q11.05 56.85 11.18 56.66Q11.31 56.47 11.51 56.37L11.51 56.37Q11.93 56.69 12.69 56.96Q13.45 57.23 14.35 57.23L14.35 57.23Q15.69 57.23 16.40 56.66Q17.11 56.09 17.11 54.83L17.11 54.83ZM14.95 52.93L14.95 52.93Q15.75 52.93 16.26 52.68Q16.77 52.43 17.11 52.11L17.11 52.11L17.11 46.91Q16.77 46.69 16.26 46.52Q15.75 46.35 15.05 46.35L15.05 46.35Q13.69 46.35 12.88 47.17Q12.07 47.99 12.07 49.61L12.07 49.61Q12.07 50.51 12.29 51.14Q12.51 51.77 12.90 52.17Q13.29 52.57 13.82 52.75Q14.35 52.93 14.95 52.93ZM24.97 53.49L24.97 53.49Q25.81 53.49 26.36 53.32Q26.91 53.15 27.15 52.99L27.15 52.99L27.15 50.09L24.67 50.35Q23.63 50.45 23.13 50.82Q22.63 51.19 22.63 51.91L22.63 51.91Q22.63 52.67 23.21 53.08Q23.79 53.49 24.97 53.49ZM24.95 45.03L24.95 45.03Q26.69 45.03 27.71 45.81Q28.73 46.59 28.73 48.27L28.73 48.27L28.73 53.01Q28.73 53.45 28.56 53.68Q28.39 53.91 28.05 54.11L28.05 54.11Q27.57 54.39 26.78 54.60Q25.99 54.81 24.97 54.81L24.97 54.81Q23.09 54.81 22.06 54.07Q21.03 53.33 21.03 51.93L21.03 51.93Q21.03 50.61 21.89 49.94Q22.75 49.27 24.31 49.11L24.31 49.11L27.15 48.83L27.15 48.27Q27.15 47.27 26.55 46.81Q25.95 46.35 24.93 46.35L24.93 46.35Q24.09 46.35 23.35 46.59Q22.61 46.83 22.03 47.13L22.03 47.13Q21.87 46.99 21.74 46.81Q21.61 46.63 21.61 46.41L21.61 46.41Q21.61 46.13 21.75 45.95Q21.89 45.77 22.19 45.61L22.19 45.61Q22.73 45.33 23.43 45.18Q24.13 45.03 24.95 45.03ZM37.83 54.83L37.83 53.57Q37.49 53.85 36.90 54.05Q36.31 54.25 35.49 54.25L35.49 54.25Q34.61 54.25 33.83 54.00Q33.05 53.75 32.46 53.20Q31.87 52.65 31.52 51.77Q31.17 50.89 31.17 49.63L31.17 49.63Q31.17 48.49 31.51 47.63Q31.85 46.77 32.46 46.19Q33.07 45.61 33.91 45.32Q34.75 45.03 35.77 45.03L35.77 45.03Q36.69 45.03 37.46 45.26Q38.23 45.49 38.75 45.83L38.75 45.83Q39.05 46.03 39.24 46.28Q39.43 46.53 39.43 46.89L39.43 46.89L39.43 54.93Q39.43 55.93 39.10 56.62Q38.77 57.31 38.18 57.74Q37.59 58.17 36.79 58.37Q35.99 58.57 35.07 58.57L35.07 58.57Q34.05 58.57 33.34 58.36Q32.63 58.15 32.37 57.99L32.37 57.99Q31.77 57.65 31.77 57.13L31.77 57.13Q31.77 56.85 31.90 56.66Q32.03 56.47 32.23 56.37L32.23 56.37Q32.65 56.69 33.41 56.96Q34.17 57.23 35.07 57.23L35.07 57.23Q36.41 57.23 37.12 56.66Q37.83 56.09 37.83 54.83L37.83 54.83ZM35.67 52.93L35.67 52.93Q36.47 52.93 36.98 52.68Q37.49 52.43 37.83 52.11L37.83 52.11L37.83 46.91Q37.49 46.69 36.98 46.52Q36.47 46.35 35.77 46.35L35.77 46.35Q34.41 46.35 33.60 47.17Q32.79 47.99 32.79 49.61L32.79 49.61Q32.79 50.51 33.01 51.14Q33.23 51.77 33.62 52.17Q34.01 52.57 34.54 52.75Q35.07 52.93 35.67 52.93ZM45.69 53.49L45.69 53.49Q46.53 53.49 47.08 53.32Q47.63 53.15 47.87 52.99L47.87 52.99L47.87 50.09L45.39 50.35Q44.35 50.45 43.85 50.82Q43.35 51.19 43.35 51.91L43.35 51.91Q43.35 52.67 43.93 53.08Q44.51 53.49 45.69 53.49ZM45.67 45.03L45.67 45.03Q47.41 45.03 48.43 45.81Q49.45 46.59 49.45 48.27L49.45 48.27L49.45 53.01Q49.45 53.45 49.28 53.68Q49.11 53.91 48.77 54.11L48.77 54.11Q48.29 54.39 47.50 54.60Q46.71 54.81 45.69 54.81L45.69 54.81Q43.81 54.81 42.78 54.07Q41.75 53.33 41.75 51.93L41.75 51.93Q41.75 50.61 42.61 49.94Q43.47 49.27 45.03 49.11L45.03 49.11L47.87 48.83L47.87 48.27Q47.87 47.27 47.27 46.81Q46.67 46.35 45.65 46.35L45.65 46.35Q44.81 46.35 44.07 46.59Q43.33 46.83 42.75 47.13L42.75 47.13Q42.59 46.99 42.46 46.81Q42.33 46.63 42.33 46.41L42.33 46.41Q42.33 46.13 42.47 45.95Q42.61 45.77 42.91 45.61L42.91 45.61Q43.45 45.33 44.15 45.18Q44.85 45.03 45.67 45.03ZM60.27 42.15L60.27 53.01Q60.27 53.41 60.10 53.63Q59.93 53.85 59.57 54.07L59.57 54.07Q59.17 54.33 58.43 54.56Q57.69 54.79 56.73 54.79L56.73 54.79Q55.65 54.79 54.75 54.51Q53.85 54.23 53.20 53.64Q52.55 53.05 52.20 52.14Q51.85 51.23 51.85 49.95L51.85 49.95Q51.85 48.65 52.21 47.72Q52.57 46.79 53.18 46.19Q53.79 45.59 54.62 45.31Q55.45 45.03 56.39 45.03L56.39 45.03Q57.03 45.03 57.63 45.19Q58.23 45.35 58.67 45.59L58.67 45.59L58.67 41.57Q58.77 41.53 58.98 41.48Q59.19 41.43 59.41 41.43L59.41 41.43Q60.27 41.43 60.27 42.15L60.27 42.15ZM58.67 52.95L58.67 47.03Q58.27 46.75 57.75 46.55Q57.23 46.35 56.55 46.35L56.55 46.35Q55.93 46.35 55.38 46.54Q54.83 46.73 54.41 47.16Q53.99 47.59 53.74 48.29Q53.49 48.99 53.49 49.99L53.49 49.99Q53.49 51.83 54.37 52.65Q55.25 53.47 56.71 53.47L56.71 53.47Q57.41 53.47 57.86 53.32Q58.31 53.17 58.67 52.95L58.67 52.95ZM69.49 54.83L69.49 53.57Q69.15 53.85 68.56 54.05Q67.97 54.25 67.15 54.25L67.15 54.25Q66.27 54.25 65.49 54.00Q64.71 53.75 64.12 53.20Q63.53 52.65 63.18 51.77Q62.83 50.89 62.83 49.63L62.83 49.63Q62.83 48.49 63.17 47.63Q63.51 46.77 64.12 46.19Q64.73 45.61 65.57 45.32Q66.41 45.03 67.43 45.03L67.43 45.03Q68.35 45.03 69.12 45.26Q69.89 45.49 70.41 45.83L70.41 45.83Q70.71 46.03 70.90 46.28Q71.09 46.53 71.09 46.89L71.09 46.89L71.09 54.93Q71.09 55.93 70.76 56.62Q70.43 57.31 69.84 57.74Q69.25 58.17 68.45 58.37Q67.65 58.57 66.73 58.57L66.73 58.57Q65.71 58.57 65.00 58.36Q64.29 58.15 64.03 57.99L64.03 57.99Q63.43 57.65 63.43 57.13L63.43 57.13Q63.43 56.85 63.56 56.66Q63.69 56.47 63.89 56.37L63.89 56.37Q64.31 56.69 65.07 56.96Q65.83 57.23 66.73 57.23L66.73 57.23Q68.07 57.23 68.78 56.66Q69.49 56.09 69.49 54.83L69.49 54.83ZM67.33 52.93L67.33 52.93Q68.13 52.93 68.64 52.68Q69.15 52.43 69.49 52.11L69.49 52.11L69.49 46.91Q69.15 46.69 68.64 46.52Q68.13 46.35 67.43 46.35L67.43 46.35Q66.07 46.35 65.26 47.17Q64.45 47.99 64.45 49.61L64.45 49.61Q64.45 50.51 64.67 51.14Q64.89 51.77 65.28 52.17Q65.67 52.57 66.20 52.75Q66.73 52.93 67.33 52.93ZM81.35 49.99L75.19 50.85Q75.73 53.47 78.63 53.47L78.63 53.47Q79.47 53.47 80.15 53.19Q80.83 52.91 81.23 52.59L81.23 52.59Q81.71 52.87 81.71 53.35L81.71 53.35Q81.71 53.63 81.46 53.89Q81.21 54.15 80.78 54.35Q80.35 54.55 79.78 54.67Q79.21 54.79 78.55 54.79L78.55 54.79Q76.23 54.79 74.88 53.53Q73.53 52.27 73.53 49.85L73.53 49.85Q73.53 48.71 73.86 47.82Q74.19 46.93 74.78 46.31Q75.37 45.69 76.19 45.36Q77.01 45.03 77.97 45.03L77.97 45.03Q78.87 45.03 79.63 45.33Q80.39 45.63 80.94 46.18Q81.49 46.73 81.80 47.48Q82.11 48.23 82.11 49.13L82.11 49.13Q82.11 49.57 81.91 49.76Q81.71 49.95 81.35 49.99L81.35 49.99ZM77.95 46.33L77.95 46.33Q76.73 46.33 75.93 47.18Q75.13 48.03 75.09 49.61L75.09 49.61L80.59 48.85Q80.49 47.75 79.82 47.04Q79.15 46.33 77.95 46.33ZM87.59 54.79L87.59 54.79Q86.19 54.79 85.32 54.17Q84.45 53.55 84.45 52.11L84.45 52.11L84.45 42.61Q84.55 42.57 84.76 42.52Q84.97 42.47 85.21 42.47L85.21 42.47Q86.05 42.47 86.05 43.19L86.05 43.19L86.05 45.49L89.33 45.49Q89.39 45.59 89.45 45.76Q89.51 45.93 89.51 46.13L89.51 46.13Q89.51 46.81 88.91 46.81L88.91 46.81L86.05 46.81L86.05 52.01Q86.05 52.81 86.50 53.14Q86.95 53.47 87.77 53.47L87.77 53.47Q88.11 53.47 88.53 53.35Q88.95 53.23 89.23 53.07L89.23 53.07Q89.35 53.19 89.45 53.37Q89.55 53.55 89.55 53.79L89.55 53.79Q89.55 54.23 89.03 54.51Q88.51 54.79 87.59 54.79Z"></path></svg>