<svg xmlns="http://www.w3.org/2000/svg" width="256" height="256" viewBox="0 0 100 100"><rect width="100" height="100" rx="20" fill="#9b9b9b"></rect><path fill="#fff" d="M26.46 45.44L26.46 55.71Q26.34 55.76 26.10 55.82Q25.86 55.88 25.57 55.88L25.57 55.88Q24.54 55.88 24.54 55.02L24.54 55.02L24.54 44.72Q24.66 44.67 24.91 44.61Q25.16 44.55 25.45 44.55L25.45 44.55Q26.46 44.55 26.46 45.44L26.46 45.44ZM24.25 41.17L24.25 41.17Q24.25 40.66 24.60 40.32Q24.94 39.97 25.50 39.97L25.50 39.97Q26.05 39.97 26.38 40.32Q26.72 40.66 26.72 41.17L26.72 41.17Q26.72 41.67 26.38 42.02Q26.05 42.37 25.50 42.37L25.50 42.37Q24.94 42.37 24.60 42.02Q24.25 41.67 24.25 41.17ZM37.88 48.54L37.88 48.54Q37.88 47.19 37.12 46.57Q36.37 45.94 35.10 45.94L35.10 45.94Q34.14 45.94 33.39 46.18Q32.65 46.42 32.12 46.74L32.12 46.74L32.12 55.71Q32.00 55.76 31.76 55.82Q31.52 55.88 31.23 55.88L31.23 55.88Q30.20 55.88 30.20 55.02L30.20 55.02L30.20 46.83Q30.20 46.33 30.40 46.00Q30.61 45.68 31.11 45.37L31.11 45.37Q31.74 44.98 32.77 44.67Q33.80 44.36 35.10 44.36L35.10 44.36Q37.28 44.36 38.54 45.34Q39.80 46.33 39.80 48.44L39.80 48.44L39.80 55.71Q39.68 55.76 39.43 55.82Q39.18 55.88 38.91 55.88L38.91 55.88Q37.88 55.88 37.88 55.02L37.88 55.02L37.88 48.54ZM45.34 43.78L45.34 45.30L50.10 45.30Q50.17 45.42 50.24 45.61Q50.31 45.80 50.31 46.06L50.31 46.06Q50.31 46.86 49.57 46.86L49.57 46.86L45.37 46.86L45.37 55.71Q45.25 55.76 45.01 55.82Q44.77 55.88 44.48 55.88L44.48 55.88Q43.45 55.88 43.45 55.02L43.45 55.02L43.45 43.69Q43.45 41.58 44.59 40.63Q45.73 39.68 47.77 39.68L47.77 39.68Q49.14 39.68 49.92 40.04Q50.70 40.40 50.70 40.93L50.70 40.93Q50.70 41.46 50.29 41.82L50.29 41.82Q49.86 41.58 49.21 41.42Q48.56 41.26 47.96 41.26L47.96 41.26Q46.50 41.26 45.92 41.86Q45.34 42.46 45.34 43.78L45.34 43.78ZM63.27 50.22L63.27 50.22Q63.27 51.56 62.89 52.64Q62.50 53.72 61.80 54.49Q61.09 55.26 60.08 55.66Q59.07 56.07 57.82 56.07L57.82 56.07Q56.58 56.07 55.57 55.66Q54.56 55.26 53.84 54.49Q53.12 53.72 52.74 52.64Q52.35 51.56 52.35 50.22L52.35 50.22Q52.35 48.87 52.75 47.79Q53.14 46.71 53.86 45.94Q54.58 45.18 55.59 44.77Q56.60 44.36 57.82 44.36L57.82 44.36Q59.05 44.36 60.06 44.77Q61.06 45.18 61.77 45.94Q62.48 46.71 62.88 47.79Q63.27 48.87 63.27 50.22ZM57.82 45.94L57.82 45.94Q56.19 45.94 55.26 47.07Q54.32 48.20 54.32 50.22L54.32 50.22Q54.32 52.26 55.24 53.37Q56.17 54.49 57.82 54.49L57.82 54.49Q59.48 54.49 60.39 53.36Q61.30 52.23 61.30 50.22L61.30 50.22Q61.30 48.20 60.38 47.07Q59.46 45.94 57.82 45.94ZM75.75 46.59L75.75 60.15Q75.63 60.20 75.38 60.26Q75.13 60.32 74.86 60.32L74.86 60.32Q73.83 60.32 73.83 59.43L73.83 59.43L73.83 55.38Q73.35 55.66 72.67 55.87Q71.98 56.07 71.05 56.07L71.05 56.07Q69.87 56.07 68.88 55.74Q67.88 55.40 67.16 54.70Q66.44 54.01 66.03 52.90Q65.62 51.80 65.62 50.29L65.62 50.29Q65.62 48.78 66.06 47.66Q66.49 46.54 67.26 45.81Q68.02 45.08 69.07 44.72Q70.11 44.36 71.31 44.36L71.31 44.36Q72.46 44.36 73.40 44.65Q74.34 44.94 74.96 45.32L74.96 45.32Q75.32 45.54 75.54 45.85Q75.75 46.16 75.75 46.59L75.75 46.59ZM71.34 54.49L71.34 54.49Q72.10 54.49 72.75 54.26Q73.40 54.03 73.83 53.67L73.83 53.67L73.83 46.62Q73.42 46.35 72.81 46.15Q72.20 45.94 71.36 45.94L71.36 45.94Q70.59 45.94 69.91 46.18Q69.22 46.42 68.71 46.95Q68.19 47.48 67.89 48.30Q67.59 49.11 67.59 50.29L67.59 50.29Q67.59 52.50 68.61 53.49Q69.63 54.49 71.34 54.49Z"></path></svg>