<svg xmlns="http://www.w3.org/2000/svg" width="256" height="256" viewBox="0 0 100 100"><rect width="100" height="100" rx="20" fill="#9b9b9b"></rect><path fill="#fff" d="M7.42 47.77L7.42 57.18Q7.31 57.23 7.09 57.28Q6.87 57.34 6.60 57.34L6.60 57.34Q5.66 57.34 5.66 56.54L5.66 56.54L5.66 47.11Q5.77 47.06 6.00 47.01Q6.23 46.95 6.49 46.95L6.49 46.95Q7.42 46.95 7.42 47.77L7.42 47.77ZM5.39 43.85L5.39 43.85Q5.39 43.39 5.71 43.07Q6.03 42.75 6.54 42.75L6.54 42.75Q7.04 42.75 7.35 43.07Q7.66 43.39 7.66 43.85L7.66 43.85Q7.66 44.31 7.35 44.63Q7.04 44.95 6.54 44.95L6.54 44.95Q6.03 44.95 5.71 44.63Q5.39 44.31 5.39 43.85ZM17.89 50.60L17.89 50.60Q17.89 49.37 17.20 48.80Q16.50 48.23 15.34 48.23L15.34 48.23Q14.46 48.23 13.78 48.45Q13.09 48.67 12.61 48.95L12.61 48.95L12.61 57.18Q12.50 57.23 12.28 57.28Q12.06 57.34 11.80 57.34L11.80 57.34Q10.85 57.34 10.85 56.54L10.85 56.54L10.85 49.04Q10.85 48.58 11.04 48.28Q11.22 47.99 11.69 47.70L11.69 47.70Q12.26 47.35 13.20 47.06Q14.15 46.78 15.34 46.78L15.34 46.78Q17.34 46.78 18.50 47.68Q19.65 48.58 19.65 50.52L19.65 50.52L19.65 57.18Q19.54 57.23 19.31 57.28Q19.08 57.34 18.84 57.34L18.84 57.34Q17.89 57.34 17.89 56.54L17.89 56.54L17.89 50.60ZM24.73 46.25L24.73 47.63L29.09 47.63Q29.15 47.74 29.22 47.92Q29.29 48.10 29.29 48.34L29.29 48.34Q29.29 49.06 28.60 49.06L28.60 49.06L24.75 49.06L24.75 57.18Q24.64 57.23 24.42 57.28Q24.20 57.34 23.94 57.34L23.94 57.34Q22.99 57.34 22.99 56.54L22.99 56.54L22.99 46.16Q22.99 44.22 24.04 43.36Q25.08 42.49 26.95 42.49L26.95 42.49Q28.21 42.49 28.92 42.82Q29.64 43.15 29.64 43.63L29.64 43.63Q29.64 44.11 29.26 44.44L29.26 44.44Q28.87 44.22 28.27 44.08Q27.68 43.94 27.13 43.94L27.13 43.94Q25.79 43.94 25.26 44.49Q24.73 45.04 24.73 46.25L24.73 46.25ZM41.17 52.14L41.17 52.14Q41.17 53.38 40.81 54.37Q40.46 55.36 39.81 56.06Q39.16 56.76 38.24 57.14Q37.32 57.51 36.17 57.51L36.17 57.51Q35.03 57.51 34.10 57.14Q33.18 56.76 32.52 56.06Q31.86 55.36 31.51 54.37Q31.16 53.38 31.16 52.14L31.16 52.14Q31.16 50.91 31.52 49.92Q31.88 48.93 32.54 48.23Q33.20 47.52 34.13 47.15Q35.05 46.78 36.17 46.78L36.17 46.78Q37.29 46.78 38.22 47.15Q39.14 47.52 39.79 48.23Q40.44 48.93 40.80 49.92Q41.17 50.91 41.17 52.14ZM36.17 48.23L36.17 48.23Q34.68 48.23 33.82 49.26Q32.96 50.30 32.96 52.14L32.96 52.14Q32.96 54.02 33.81 55.04Q34.65 56.06 36.17 56.06L36.17 56.06Q37.69 56.06 38.53 55.03Q39.36 53.99 39.36 52.14L39.36 52.14Q39.36 50.30 38.52 49.26Q37.67 48.23 36.17 48.23ZM50.30 49.66L50.30 49.66Q49.99 50.69 49.67 51.75Q49.35 52.80 49.02 53.77Q48.69 54.74 48.38 55.60Q48.07 56.46 47.81 57.12L47.81 57.12Q47.63 57.23 47.41 57.29Q47.19 57.36 46.82 57.36L46.82 57.36Q46.47 57.36 46.17 57.24Q45.87 57.12 45.76 56.85L45.76 56.85Q45.50 56.30 45.14 55.14Q44.77 53.97 44.39 52.57Q44.00 51.18 43.66 49.76Q43.32 48.34 43.10 47.28L43.10 47.28Q43.26 47.13 43.49 47.00Q43.72 46.86 44.05 46.86L44.05 46.86Q44.47 46.86 44.66 47.10Q44.86 47.33 44.97 47.83L44.97 47.83Q45.17 48.76 45.43 49.93Q45.70 51.11 45.96 52.23Q46.23 53.35 46.46 54.28Q46.69 55.20 46.80 55.64L46.80 55.64L46.89 55.64Q47.02 55.25 47.27 54.45Q47.52 53.66 47.85 52.64Q48.18 51.62 48.58 50.43Q48.98 49.24 49.37 48.05L49.37 48.05Q49.77 47.83 50.32 47.83L50.32 47.83Q51.13 47.83 51.33 48.41L51.33 48.41Q51.73 49.55 52.09 50.68Q52.45 51.81 52.76 52.78Q53.07 53.75 53.29 54.51Q53.51 55.27 53.64 55.66L53.64 55.66L53.75 55.66Q54.26 53.68 54.85 51.46Q55.44 49.24 55.82 47.06L55.82 47.06Q56.13 46.86 56.57 46.86L56.57 46.86Q56.94 46.86 57.16 47.04Q57.38 47.22 57.38 47.59L57.38 47.59Q57.38 47.83 57.24 48.53Q57.09 49.22 56.85 50.13Q56.61 51.04 56.31 52.09Q56.02 53.13 55.71 54.11Q55.40 55.09 55.13 55.90Q54.85 56.70 54.65 57.12L54.65 57.12Q54.54 57.20 54.29 57.28Q54.04 57.36 53.71 57.36L53.71 57.36Q53.29 57.36 53.01 57.26Q52.74 57.16 52.65 56.94L52.65 56.94Q52.41 56.35 52.13 55.53Q51.86 54.72 51.55 53.76Q51.24 52.80 50.92 51.75Q50.60 50.69 50.30 49.66ZM69.37 52.14L69.37 52.14Q69.37 53.38 69.02 54.37Q68.67 55.36 68.02 56.06Q67.37 56.76 66.44 57.14Q65.52 57.51 64.38 57.51L64.38 57.51Q63.23 57.51 62.31 57.14Q61.38 56.76 60.72 56.06Q60.06 55.36 59.71 54.37Q59.36 53.38 59.36 52.14L59.36 52.14Q59.36 50.91 59.72 49.92Q60.09 48.93 60.75 48.23Q61.41 47.52 62.33 47.15Q63.25 46.78 64.38 46.78L64.38 46.78Q65.50 46.78 66.42 47.15Q67.35 47.52 68.00 48.23Q68.64 48.93 69.01 49.92Q69.37 50.91 69.37 52.14ZM64.38 48.23L64.38 48.23Q62.88 48.23 62.02 49.26Q61.16 50.30 61.16 52.14L61.16 52.14Q61.16 54.02 62.01 55.04Q62.86 56.06 64.38 56.06L64.38 56.06Q65.89 56.06 66.73 55.03Q67.57 53.99 67.57 52.14L67.57 52.14Q67.57 50.30 66.72 49.26Q65.87 48.23 64.38 48.23ZM73.86 48.95L73.86 57.18Q73.75 57.23 73.53 57.28Q73.31 57.34 73.04 57.34L73.04 57.34Q72.10 57.34 72.10 56.54L72.10 56.54L72.10 49.09Q72.10 48.58 72.29 48.28Q72.47 47.99 72.91 47.70L72.91 47.70Q73.48 47.33 74.46 47.05Q75.44 46.78 76.67 46.78L76.67 46.78Q78.43 46.78 78.43 47.66L78.43 47.66Q78.43 47.88 78.37 48.06Q78.30 48.25 78.19 48.38L78.19 48.38Q77.97 48.34 77.62 48.30Q77.27 48.25 76.92 48.25L76.92 48.25Q75.90 48.25 75.13 48.46Q74.36 48.67 73.86 48.95L73.86 48.95ZM82.44 57.18L82.44 57.18Q82.33 57.23 82.11 57.28Q81.89 57.34 81.62 57.34L81.62 57.34Q80.68 57.34 80.68 56.54L80.68 56.54L80.68 42.97Q80.79 42.93 81.02 42.87Q81.25 42.82 81.49 42.82L81.49 42.82Q82.44 42.82 82.44 43.61L82.44 43.61L82.44 57.18ZM94.60 43.61L94.60 55.55Q94.60 55.99 94.42 56.24Q94.23 56.48 93.83 56.72L93.83 56.72Q93.39 57.01 92.58 57.26Q91.77 57.51 90.71 57.51L90.71 57.51Q89.52 57.51 88.53 57.20Q87.54 56.90 86.83 56.25Q86.11 55.60 85.73 54.60Q85.34 53.60 85.34 52.19L85.34 52.19Q85.34 50.76 85.74 49.74Q86.13 48.71 86.81 48.05Q87.48 47.39 88.39 47.08Q89.30 46.78 90.34 46.78L90.34 46.78Q91.04 46.78 91.70 46.95Q92.36 47.13 92.84 47.39L92.84 47.39L92.84 42.97Q92.95 42.93 93.19 42.87Q93.42 42.82 93.66 42.82L93.66 42.82Q94.60 42.82 94.60 43.61L94.60 43.61ZM92.84 55.49L92.84 48.98Q92.40 48.67 91.83 48.45Q91.26 48.23 90.51 48.23L90.51 48.23Q89.83 48.23 89.23 48.44Q88.62 48.65 88.16 49.12Q87.70 49.59 87.42 50.36Q87.15 51.13 87.15 52.23L87.15 52.23Q87.15 54.26 88.11 55.16Q89.08 56.06 90.69 56.06L90.69 56.06Q91.46 56.06 91.95 55.90Q92.45 55.73 92.84 55.49L92.84 55.49Z"></path></svg>