<svg xmlns="http://www.w3.org/2000/svg" width="256" height="256" viewBox="0 0 100 100"><rect width="100" height="100" rx="20" fill="#9b9b9b"></rect><path fill="#fff" d="M42.05 47.85L42.05 56.41Q41.95 56.45 41.75 56.50Q41.55 56.55 41.31 56.55L41.31 56.55Q40.45 56.55 40.45 55.83L40.45 55.83L40.45 47.25Q40.55 47.21 40.76 47.16Q40.97 47.11 41.21 47.11L41.21 47.11Q42.05 47.11 42.05 47.85L42.05 47.85ZM40.21 44.29L40.21 44.29Q40.21 43.87 40.50 43.58Q40.79 43.29 41.25 43.29L41.25 43.29Q41.71 43.29 41.99 43.58Q42.27 43.87 42.27 44.29L42.27 44.29Q42.27 44.71 41.99 45.00Q41.71 45.29 41.25 45.29L41.25 45.29Q40.79 45.29 40.50 45.00Q40.21 44.71 40.21 44.29ZM48.33 56.71L48.33 56.71Q46.93 56.71 46.06 56.09Q45.19 55.47 45.19 54.03L45.19 54.03L45.19 44.53Q45.29 44.49 45.50 44.44Q45.71 44.39 45.95 44.39L45.95 44.39Q46.79 44.39 46.79 45.11L46.79 45.11L46.79 47.41L50.07 47.41Q50.13 47.51 50.19 47.68Q50.25 47.85 50.25 48.05L50.25 48.05Q50.25 48.73 49.65 48.73L49.65 48.73L46.79 48.73L46.79 53.93Q46.79 54.73 47.24 55.06Q47.69 55.39 48.51 55.39L48.51 55.39Q48.85 55.39 49.27 55.27Q49.69 55.15 49.97 54.99L49.97 54.99Q50.09 55.11 50.19 55.29Q50.29 55.47 50.29 55.71L50.29 55.71Q50.29 56.15 49.77 56.43Q49.25 56.71 48.33 56.71ZM56.89 48.29L56.89 48.29Q56.21 48.29 55.63 48.52Q55.05 48.75 54.63 49.20Q54.21 49.65 53.97 50.32Q53.73 50.99 53.73 51.85L53.73 51.85Q53.73 53.57 54.59 54.48Q55.45 55.39 56.89 55.39L56.89 55.39Q57.73 55.39 58.29 55.16Q58.85 54.93 59.29 54.63L59.29 54.63Q59.51 54.75 59.65 54.93Q59.79 55.11 59.79 55.37L59.79 55.37Q59.79 55.65 59.57 55.89Q59.35 56.13 58.96 56.31Q58.57 56.49 58.04 56.60Q57.51 56.71 56.89 56.71L56.89 56.71Q55.85 56.71 54.97 56.41Q54.09 56.11 53.45 55.51Q52.81 54.91 52.45 54.00Q52.09 53.09 52.09 51.85L52.09 51.85Q52.09 50.63 52.47 49.72Q52.85 48.81 53.49 48.19Q54.13 47.57 55 47.26Q55.87 46.95 56.85 46.95L56.85 46.95Q57.47 46.95 58 47.06Q58.53 47.17 58.91 47.37Q59.29 47.57 59.50 47.82Q59.71 48.07 59.71 48.33L59.71 48.33Q59.71 48.57 59.57 48.75Q59.43 48.93 59.21 49.03L59.21 49.03Q58.77 48.73 58.25 48.51Q57.73 48.29 56.89 48.29Z"></path></svg>