<svg xmlns="http://www.w3.org/2000/svg" width="256" height="256" viewBox="0 0 100 100"><rect width="100" height="100" rx="20" fill="#9b9b9b"></rect><path fill="#fff" d="M27.74 56.38L27.74 56.38Q27.64 56.42 27.44 56.47Q27.24 56.52 27 56.52L27 56.52Q26.14 56.52 26.14 55.80L26.14 55.80L26.14 43.46Q26.24 43.42 26.45 43.37Q26.66 43.32 26.90 43.32L26.90 43.32Q27.74 43.32 27.74 44.04L27.74 44.04L27.74 51.24L32.12 47.00Q32.60 47.02 32.87 47.23Q33.14 47.44 33.14 47.78L33.14 47.78Q33.14 48.06 32.96 48.27Q32.78 48.48 32.48 48.76L32.48 48.76L29.26 51.58L33.72 55.58Q33.68 56.02 33.45 56.28Q33.22 56.54 32.84 56.54L32.84 56.54Q32.54 56.54 32.29 56.39Q32.04 56.24 31.78 55.96L31.78 55.96L27.74 51.90L27.74 56.38ZM43.14 51.88L36.98 52.74Q37.52 55.36 40.42 55.36L40.42 55.36Q41.26 55.36 41.94 55.08Q42.62 54.80 43.02 54.48L43.02 54.48Q43.50 54.76 43.50 55.24L43.50 55.24Q43.50 55.52 43.25 55.78Q43 56.04 42.57 56.24Q42.14 56.44 41.57 56.56Q41 56.68 40.34 56.68L40.34 56.68Q38.02 56.68 36.67 55.42Q35.32 54.16 35.32 51.74L35.32 51.74Q35.32 50.60 35.65 49.71Q35.98 48.82 36.57 48.20Q37.16 47.58 37.98 47.25Q38.80 46.92 39.76 46.92L39.76 46.92Q40.66 46.92 41.42 47.22Q42.18 47.52 42.73 48.07Q43.28 48.62 43.59 49.37Q43.90 50.12 43.90 51.02L43.90 51.02Q43.90 51.46 43.70 51.65Q43.50 51.84 43.14 51.88L43.14 51.88ZM39.74 48.22L39.74 48.22Q38.52 48.22 37.72 49.07Q36.92 49.92 36.88 51.50L36.88 51.50L42.38 50.74Q42.28 49.64 41.61 48.93Q40.94 48.22 39.74 48.22ZM54.12 44.04L54.12 54.90Q54.12 55.30 53.95 55.52Q53.78 55.74 53.42 55.96L53.42 55.96Q53.02 56.22 52.28 56.45Q51.54 56.68 50.58 56.68L50.58 56.68Q49.50 56.68 48.60 56.40Q47.70 56.12 47.05 55.53Q46.40 54.94 46.05 54.03Q45.70 53.12 45.70 51.84L45.70 51.84Q45.70 50.54 46.06 49.61Q46.42 48.68 47.03 48.08Q47.64 47.48 48.47 47.20Q49.30 46.92 50.24 46.92L50.24 46.92Q50.88 46.92 51.48 47.08Q52.08 47.24 52.52 47.48L52.52 47.48L52.52 43.46Q52.62 43.42 52.83 43.37Q53.04 43.32 53.26 43.32L53.26 43.32Q54.12 43.32 54.12 44.04L54.12 44.04ZM52.52 54.84L52.52 48.92Q52.12 48.64 51.60 48.44Q51.08 48.24 50.40 48.24L50.40 48.24Q49.78 48.24 49.23 48.43Q48.68 48.62 48.26 49.05Q47.84 49.48 47.59 50.18Q47.34 50.88 47.34 51.88L47.34 51.88Q47.34 53.72 48.22 54.54Q49.10 55.36 50.56 55.36L50.56 55.36Q51.26 55.36 51.71 55.21Q52.16 55.06 52.52 54.84L52.52 54.84ZM65.06 44.04L65.06 54.90Q65.06 55.30 64.89 55.52Q64.72 55.74 64.36 55.96L64.36 55.96Q63.96 56.22 63.22 56.45Q62.48 56.68 61.52 56.68L61.52 56.68Q60.44 56.68 59.54 56.40Q58.64 56.12 57.99 55.53Q57.34 54.94 56.99 54.03Q56.64 53.12 56.64 51.84L56.64 51.84Q56.64 50.54 57.00 49.61Q57.36 48.68 57.97 48.08Q58.58 47.48 59.41 47.20Q60.24 46.92 61.18 46.92L61.18 46.92Q61.82 46.92 62.42 47.08Q63.02 47.24 63.46 47.48L63.46 47.48L63.46 43.46Q63.56 43.42 63.77 43.37Q63.98 43.32 64.20 43.32L64.20 43.32Q65.06 43.32 65.06 44.04L65.06 44.04ZM63.46 54.84L63.46 48.92Q63.06 48.64 62.54 48.44Q62.02 48.24 61.34 48.24L61.34 48.24Q60.72 48.24 60.17 48.43Q59.62 48.62 59.20 49.05Q58.78 49.48 58.53 50.18Q58.28 50.88 58.28 51.88L58.28 51.88Q58.28 53.72 59.16 54.54Q60.04 55.36 61.50 55.36L61.50 55.36Q62.20 55.36 62.65 55.21Q63.10 55.06 63.46 54.84L63.46 54.84ZM69.70 48.90L69.70 56.38Q69.60 56.42 69.40 56.47Q69.20 56.52 68.96 56.52L68.96 56.52Q68.10 56.52 68.10 55.80L68.10 55.80L68.10 49.02Q68.10 48.56 68.27 48.29Q68.44 48.02 68.84 47.76L68.84 47.76Q69.36 47.42 70.25 47.17Q71.14 46.92 72.26 46.92L72.26 46.92Q73.86 46.92 73.86 47.72L73.86 47.72Q73.86 47.92 73.80 48.09Q73.74 48.26 73.64 48.38L73.64 48.38Q73.44 48.34 73.12 48.30Q72.80 48.26 72.48 48.26L72.48 48.26Q71.56 48.26 70.86 48.45Q70.16 48.64 69.70 48.90L69.70 48.90Z"></path></svg>