<svg xmlns="http://www.w3.org/2000/svg" width="256" height="256" viewBox="0 0 100 100"><rect width="100" height="100" rx="20" fill="#9b9b9b"></rect><path fill="#fff" d="M35.49 55.42L35.49 55.42Q35.37 55.47 35.13 55.53Q34.89 55.59 34.60 55.59L34.60 55.59Q33.57 55.59 33.57 54.73L33.57 54.73L33.57 39.92Q33.69 39.87 33.94 39.81Q34.20 39.75 34.46 39.75L34.46 39.75Q35.49 39.75 35.49 40.62L35.49 40.62L35.49 55.42ZM41.32 45.15L41.32 55.42Q41.20 55.47 40.96 55.53Q40.72 55.59 40.44 55.59L40.44 55.59Q39.40 55.59 39.40 54.73L39.40 54.73L39.40 44.43Q39.52 44.38 39.78 44.32Q40.03 44.26 40.32 44.26L40.32 44.26Q41.32 44.26 41.32 45.15L41.32 45.15ZM39.12 40.88L39.12 40.88Q39.12 40.38 39.46 40.03Q39.81 39.68 40.36 39.68L40.36 39.68Q40.92 39.68 41.25 40.03Q41.59 40.38 41.59 40.88L41.59 40.88Q41.59 41.38 41.25 41.73Q40.92 42.08 40.36 42.08L40.36 42.08Q39.81 42.08 39.46 41.73Q39.12 41.38 39.12 40.88ZM52.48 55.83L52.48 54.32Q52.08 54.66 51.37 54.90Q50.66 55.14 49.68 55.14L49.68 55.14Q48.62 55.14 47.68 54.84Q46.75 54.54 46.04 53.88Q45.33 53.22 44.91 52.16Q44.49 51.10 44.49 49.59L44.49 49.59Q44.49 48.22 44.90 47.19Q45.31 46.16 46.04 45.46Q46.77 44.77 47.78 44.42Q48.79 44.07 50.01 44.07L50.01 44.07Q51.12 44.07 52.04 44.35Q52.96 44.62 53.59 45.03L53.59 45.03Q53.95 45.27 54.18 45.57Q54.40 45.87 54.40 46.30L54.40 46.30L54.40 55.95Q54.40 57.15 54.01 57.98Q53.61 58.81 52.90 59.32Q52.20 59.84 51.24 60.08Q50.28 60.32 49.17 60.32L49.17 60.32Q47.95 60.32 47.10 60.07Q46.24 59.82 45.93 59.62L45.93 59.62Q45.21 59.22 45.21 58.59L45.21 58.59Q45.21 58.26 45.37 58.03Q45.52 57.80 45.76 57.68L45.76 57.68Q46.27 58.06 47.18 58.39Q48.09 58.71 49.17 58.71L49.17 58.71Q50.78 58.71 51.63 58.03Q52.48 57.34 52.48 55.83L52.48 55.83ZM49.89 53.55L49.89 53.55Q50.85 53.55 51.46 53.25Q52.08 52.95 52.48 52.57L52.48 52.57L52.48 46.33Q52.08 46.06 51.46 45.86Q50.85 45.66 50.01 45.66L50.01 45.66Q48.38 45.66 47.41 46.64Q46.44 47.62 46.44 49.57L46.44 49.57Q46.44 50.65 46.70 51.40Q46.96 52.16 47.43 52.64Q47.90 53.12 48.54 53.34Q49.17 53.55 49.89 53.55ZM61.92 54.22L61.92 54.22Q62.92 54.22 63.58 54.02Q64.24 53.82 64.53 53.62L64.53 53.62L64.53 50.14L61.56 50.46Q60.31 50.58 59.71 51.02Q59.11 51.46 59.11 52.33L59.11 52.33Q59.11 53.24 59.80 53.73Q60.50 54.22 61.92 54.22ZM61.89 44.07L61.89 44.07Q63.98 44.07 65.20 45.01Q66.43 45.94 66.43 47.96L66.43 47.96L66.43 53.65Q66.43 54.18 66.22 54.45Q66.02 54.73 65.61 54.97L65.61 54.97Q65.04 55.30 64.09 55.56Q63.14 55.81 61.92 55.81L61.92 55.81Q59.66 55.81 58.42 54.92Q57.19 54.03 57.19 52.35L57.19 52.35Q57.19 50.77 58.22 49.96Q59.25 49.16 61.12 48.97L61.12 48.97L64.53 48.63L64.53 47.96Q64.53 46.76 63.81 46.21Q63.09 45.66 61.87 45.66L61.87 45.66Q60.86 45.66 59.97 45.94Q59.08 46.23 58.39 46.59L58.39 46.59Q58.20 46.42 58.04 46.21Q57.88 45.99 57.88 45.73L57.88 45.73Q57.88 45.39 58.05 45.18Q58.22 44.96 58.58 44.77L58.58 44.77Q59.23 44.43 60.07 44.25Q60.91 44.07 61.89 44.07Z"></path></svg>