<svg xmlns="http://www.w3.org/2000/svg" width="256" height="256" viewBox="0 0 100 100"><rect width="100" height="100" rx="20" fill="#9b9b9b"></rect><path fill="#fff" d="M33.77 50.41L33.77 50.41Q33.77 49.33 33.16 48.82Q32.54 48.32 31.51 48.32L31.51 48.32Q30.08 48.32 28.96 49.33L28.96 49.33Q29.09 49.77 29.09 50.27L29.09 50.27L29.09 57.27Q28.98 57.31 28.75 57.37Q28.52 57.42 28.27 57.42L28.27 57.42Q27.33 57.42 27.33 56.63L27.33 56.63L27.33 50.41Q27.33 49.33 26.71 48.82Q26.10 48.32 25.04 48.32L25.04 48.32Q24.34 48.32 23.71 48.54Q23.08 48.76 22.64 49.04L22.64 49.04L22.64 57.27Q22.53 57.31 22.31 57.37Q22.09 57.42 21.83 57.42L21.83 57.42Q20.88 57.42 20.88 56.63L20.88 56.63L20.88 49.13Q20.88 48.69 21.07 48.39Q21.26 48.10 21.72 47.79L21.72 47.79Q22.31 47.41 23.23 47.14Q24.14 46.86 25.06 46.86L25.06 46.86Q26.14 46.86 26.98 47.18Q27.81 47.50 28.25 48.05L28.25 48.05Q28.82 47.55 29.68 47.21Q30.54 46.86 31.64 46.86L31.64 46.86Q33.42 46.86 34.48 47.71Q35.53 48.56 35.53 50.32L35.53 50.32L35.53 57.27Q35.42 57.31 35.19 57.37Q34.96 57.42 34.72 57.42L34.72 57.42Q33.77 57.42 33.77 56.63L33.77 56.63L33.77 50.41ZM40.70 47.85L40.70 57.27Q40.59 57.31 40.38 57.37Q40.16 57.42 39.89 57.42L39.89 57.42Q38.95 57.42 38.95 56.63L38.95 56.63L38.95 47.20Q39.05 47.15 39.29 47.10Q39.52 47.04 39.78 47.04L39.78 47.04Q40.70 47.04 40.70 47.85L40.70 47.85ZM38.68 43.94L38.68 43.94Q38.68 43.48 39 43.16Q39.32 42.84 39.83 42.84L39.83 42.84Q40.33 42.84 40.64 43.16Q40.95 43.48 40.95 43.94L40.95 43.94Q40.95 44.40 40.64 44.72Q40.33 45.04 39.83 45.04L39.83 45.04Q39.32 45.04 39 44.72Q38.68 44.40 38.68 43.94ZM51.18 50.69L51.18 50.69Q51.18 49.46 50.48 48.89Q49.79 48.32 48.63 48.32L48.63 48.32Q47.75 48.32 47.06 48.54Q46.38 48.76 45.90 49.04L45.90 49.04L45.90 57.27Q45.79 57.31 45.57 57.37Q45.35 57.42 45.08 57.42L45.08 57.42Q44.14 57.42 44.14 56.63L44.14 56.63L44.14 49.13Q44.14 48.67 44.32 48.37Q44.51 48.07 44.97 47.79L44.97 47.79Q45.55 47.44 46.49 47.15Q47.44 46.86 48.63 46.86L48.63 46.86Q50.63 46.86 51.78 47.77Q52.94 48.67 52.94 50.60L52.94 50.60L52.94 57.27Q52.83 57.31 52.60 57.37Q52.37 57.42 52.12 57.42L52.12 57.42Q51.18 57.42 51.18 56.63L51.18 56.63L51.18 50.69ZM58.02 46.34L58.02 47.72L62.38 47.72Q62.44 47.83 62.51 48.01Q62.57 48.19 62.57 48.43L62.57 48.43Q62.57 49.15 61.89 49.15L61.89 49.15L58.04 49.15L58.04 57.27Q57.93 57.31 57.71 57.37Q57.49 57.42 57.23 57.42L57.23 57.42Q56.28 57.42 56.28 56.63L56.28 56.63L56.28 46.25Q56.28 44.31 57.33 43.44Q58.37 42.58 60.24 42.58L60.24 42.58Q61.50 42.58 62.21 42.91Q62.93 43.23 62.93 43.72L62.93 43.72Q62.93 44.20 62.55 44.53L62.55 44.53Q62.16 44.31 61.56 44.17Q60.97 44.03 60.42 44.03L60.42 44.03Q59.08 44.03 58.55 44.58Q58.02 45.13 58.02 46.34L58.02 46.34ZM66.89 47.85L66.89 57.27Q66.78 57.31 66.56 57.37Q66.34 57.42 66.07 57.42L66.07 57.42Q65.13 57.42 65.13 56.63L65.13 56.63L65.13 47.20Q65.23 47.15 65.47 47.10Q65.70 47.04 65.96 47.04L65.96 47.04Q66.89 47.04 66.89 47.85L66.89 47.85ZM64.86 43.94L64.86 43.94Q64.86 43.48 65.18 43.16Q65.50 42.84 66.00 42.84L66.00 42.84Q66.51 42.84 66.82 43.16Q67.13 43.48 67.13 43.94L67.13 43.94Q67.13 44.40 66.82 44.72Q66.51 45.04 66.00 45.04L66.00 45.04Q65.50 45.04 65.18 44.72Q64.86 44.40 64.86 43.94ZM77.36 50.69L77.36 50.69Q77.36 49.46 76.66 48.89Q75.97 48.32 74.81 48.32L74.81 48.32Q73.92 48.32 73.24 48.54Q72.56 48.76 72.08 49.04L72.08 49.04L72.08 57.27Q71.97 57.31 71.75 57.37Q71.53 57.42 71.26 57.42L71.26 57.42Q70.32 57.42 70.32 56.63L70.32 56.63L70.32 49.13Q70.32 48.67 70.50 48.37Q70.69 48.07 71.15 47.79L71.15 47.79Q71.72 47.44 72.67 47.15Q73.62 46.86 74.81 46.86L74.81 46.86Q76.81 46.86 77.96 47.77Q79.12 48.67 79.12 50.60L79.12 50.60L79.12 57.27Q79.01 57.31 78.78 57.37Q78.55 57.42 78.30 57.42L78.30 57.42Q77.36 57.42 77.36 56.63L77.36 56.63L77.36 50.69Z"></path></svg>