<svg xmlns="http://www.w3.org/2000/svg" width="256" height="256" viewBox="0 0 100 100"><rect width="100" height="100" rx="20" fill="#9b9b9b"></rect><path fill="#fff" d="M13.35 48.80L13.35 48.80Q13.35 48.11 12.96 47.79Q12.56 47.47 11.91 47.47L11.91 47.47Q11.00 47.47 10.28 48.11L10.28 48.11Q10.37 48.39 10.37 48.71L10.37 48.71L10.37 53.16Q10.30 53.19 10.15 53.23Q10.00 53.26 9.85 53.26L9.85 53.26Q9.25 53.26 9.25 52.76L9.25 52.76L9.25 48.80Q9.25 48.11 8.85 47.79Q8.46 47.47 7.79 47.47L7.79 47.47Q7.34 47.47 6.94 47.61Q6.54 47.75 6.26 47.93L6.26 47.93L6.26 53.16Q6.19 53.19 6.05 53.23Q5.91 53.26 5.75 53.26L5.75 53.26Q5.14 53.26 5.14 52.76L5.14 52.76L5.14 47.98Q5.14 47.70 5.26 47.52Q5.38 47.33 5.68 47.13L5.68 47.13Q6.05 46.89 6.64 46.72Q7.22 46.54 7.80 46.54L7.80 46.54Q8.49 46.54 9.02 46.74Q9.55 46.95 9.83 47.30L9.83 47.30Q10.20 46.98 10.74 46.76Q11.29 46.54 11.99 46.54L11.99 46.54Q13.12 46.54 13.80 47.08Q14.47 47.62 14.47 48.74L14.47 48.74L14.47 53.16Q14.40 53.19 14.25 53.23Q14.10 53.26 13.95 53.26L13.95 53.26Q13.35 53.26 13.35 52.76L13.35 52.76L13.35 48.80ZM22.57 49.96L22.57 49.96Q22.57 50.74 22.35 51.37Q22.13 52.00 21.71 52.45Q21.30 52.90 20.71 53.14Q20.12 53.37 19.40 53.37L19.40 53.37Q18.67 53.37 18.08 53.14Q17.49 52.90 17.07 52.45Q16.65 52.00 16.43 51.37Q16.20 50.74 16.20 49.96L16.20 49.96Q16.20 49.17 16.44 48.54Q16.67 47.91 17.09 47.47Q17.51 47.02 18.09 46.78Q18.68 46.54 19.40 46.54L19.40 46.54Q20.11 46.54 20.70 46.78Q21.29 47.02 21.70 47.47Q22.11 47.91 22.34 48.54Q22.57 49.17 22.57 49.96ZM19.40 47.47L19.40 47.47Q18.44 47.47 17.90 48.12Q17.35 48.78 17.35 49.96L17.35 49.96Q17.35 51.15 17.89 51.80Q18.43 52.45 19.40 52.45L19.40 52.45Q20.36 52.45 20.89 51.79Q21.43 51.13 21.43 49.96L21.43 49.96Q21.43 48.78 20.89 48.12Q20.35 47.47 19.40 47.47ZM28.79 48.98L28.79 48.98Q28.79 48.19 28.35 47.83Q27.91 47.47 27.17 47.47L27.17 47.47Q26.61 47.47 26.17 47.61Q25.74 47.75 25.43 47.93L25.43 47.93L25.43 53.16Q25.36 53.19 25.22 53.23Q25.08 53.26 24.91 53.26L24.91 53.26Q24.31 53.26 24.31 52.76L24.31 52.76L24.31 47.98Q24.31 47.69 24.43 47.50Q24.55 47.31 24.84 47.13L24.84 47.13Q25.21 46.91 25.81 46.72Q26.41 46.54 27.17 46.54L27.17 46.54Q28.44 46.54 29.18 47.12Q29.91 47.69 29.91 48.92L29.91 48.92L29.91 53.16Q29.84 53.19 29.69 53.23Q29.55 53.26 29.39 53.26L29.39 53.26Q28.79 53.26 28.79 52.76L28.79 52.76L28.79 48.98ZM37.12 50.01L32.81 50.62Q33.19 52.45 35.22 52.45L35.22 52.45Q35.80 52.45 36.28 52.25Q36.76 52.06 37.04 51.83L37.04 51.83Q37.37 52.03 37.37 52.37L37.37 52.37Q37.37 52.56 37.20 52.74Q37.02 52.93 36.72 53.07Q36.42 53.21 36.02 53.29Q35.62 53.37 35.16 53.37L35.16 53.37Q33.54 53.37 32.59 52.49Q31.65 51.61 31.65 49.92L31.65 49.92Q31.65 49.12 31.88 48.49Q32.11 47.87 32.52 47.44Q32.93 47.00 33.51 46.77Q34.08 46.54 34.75 46.54L34.75 46.54Q35.38 46.54 35.92 46.75Q36.45 46.96 36.83 47.35Q37.22 47.73 37.44 48.26Q37.65 48.78 37.65 49.41L37.65 49.41Q37.65 49.72 37.51 49.85Q37.37 49.99 37.12 50.01L37.12 50.01ZM34.74 47.45L34.74 47.45Q33.89 47.45 33.33 48.05Q32.77 48.64 32.74 49.75L32.74 49.75L36.59 49.22Q36.52 48.45 36.05 47.95Q35.58 47.45 34.74 47.45ZM40.59 51.75L40.59 51.75Q40.41 51.41 40.17 50.90Q39.93 50.38 39.68 49.73Q39.42 49.09 39.15 48.37Q38.88 47.65 38.65 46.91L38.65 46.91Q38.74 46.77 38.91 46.68Q39.07 46.60 39.25 46.60L39.25 46.60Q39.49 46.60 39.63 46.72Q39.78 46.85 39.89 47.14L39.89 47.14Q40.31 48.33 40.77 49.48Q41.22 50.63 41.80 51.89L41.80 51.89L41.85 51.89Q42.08 51.46 42.31 50.83Q42.55 50.21 42.78 49.51Q43.01 48.81 43.22 48.09Q43.42 47.37 43.57 46.71L43.57 46.71Q43.67 46.67 43.78 46.63Q43.90 46.60 44.05 46.60L44.05 46.60Q44.29 46.60 44.44 46.72Q44.60 46.84 44.60 47.07L44.60 47.07Q44.60 47.35 44.40 48.10Q44.20 48.84 43.89 49.76Q43.57 50.69 43.17 51.66Q42.76 52.63 42.34 53.39L42.34 53.39Q41.68 54.58 41.16 55.22Q40.63 55.85 40.19 55.85L40.19 55.85Q39.86 55.85 39.69 55.68Q39.51 55.52 39.47 55.29L39.47 55.29Q39.70 55.10 39.98 54.79Q40.26 54.48 40.54 54.12Q40.82 53.77 41.07 53.39Q41.32 53.01 41.49 52.66L41.49 52.66Q41.25 52.59 41.05 52.41Q40.84 52.24 40.59 51.75ZM54.33 48.80L54.33 48.80Q54.33 48.11 53.93 47.79Q53.54 47.47 52.88 47.47L52.88 47.47Q51.97 47.47 51.26 48.11L51.26 48.11Q51.34 48.39 51.34 48.71L51.34 48.71L51.34 53.16Q51.27 53.19 51.13 53.23Q50.98 53.26 50.83 53.26L50.83 53.26Q50.22 53.26 50.22 52.76L50.22 52.76L50.22 48.80Q50.22 48.11 49.83 47.79Q49.44 47.47 48.77 47.47L48.77 47.47Q48.32 47.47 47.92 47.61Q47.52 47.75 47.24 47.93L47.24 47.93L47.24 53.16Q47.17 53.19 47.03 53.23Q46.89 53.26 46.72 53.26L46.72 53.26Q46.12 53.26 46.12 52.76L46.12 52.76L46.12 47.98Q46.12 47.70 46.24 47.52Q46.36 47.33 46.65 47.13L46.65 47.13Q47.03 46.89 47.61 46.72Q48.19 46.54 48.78 46.54L48.78 46.54Q49.47 46.54 50 46.74Q50.53 46.95 50.81 47.30L50.81 47.30Q51.18 46.98 51.72 46.76Q52.27 46.54 52.97 46.54L52.97 46.54Q54.10 46.54 54.77 47.08Q55.45 47.62 55.45 48.74L55.45 48.74L55.45 53.16Q55.38 53.19 55.23 53.23Q55.08 53.26 54.93 53.26L54.93 53.26Q54.33 53.26 54.33 52.76L54.33 52.76L54.33 48.80ZM63.55 49.96L63.55 49.96Q63.55 50.74 63.33 51.37Q63.10 52.00 62.69 52.45Q62.28 52.90 61.69 53.14Q61.10 53.37 60.37 53.37L60.37 53.37Q59.65 53.37 59.06 53.14Q58.47 52.90 58.05 52.45Q57.63 52.00 57.41 51.37Q57.18 50.74 57.18 49.96L57.18 49.96Q57.18 49.17 57.41 48.54Q57.64 47.91 58.06 47.47Q58.48 47.02 59.07 46.78Q59.66 46.54 60.37 46.54L60.37 46.54Q61.09 46.54 61.68 46.78Q62.26 47.02 62.68 47.47Q63.09 47.91 63.32 48.54Q63.55 49.17 63.55 49.96ZM60.37 47.47L60.37 47.47Q59.42 47.47 58.88 48.12Q58.33 48.78 58.33 49.96L58.33 49.96Q58.33 51.15 58.87 51.80Q59.41 52.45 60.37 52.45L60.37 52.45Q61.34 52.45 61.87 51.79Q62.40 51.13 62.40 49.96L62.40 49.96Q62.40 48.78 61.87 48.12Q61.33 47.47 60.37 47.47ZM66.41 47.93L66.41 53.16Q66.34 53.19 66.20 53.23Q66.06 53.26 65.89 53.26L65.89 53.26Q65.29 53.26 65.29 52.76L65.29 52.76L65.29 48.01Q65.29 47.69 65.41 47.50Q65.53 47.31 65.81 47.13L65.81 47.13Q66.17 46.89 66.79 46.72Q67.42 46.54 68.20 46.54L68.20 46.54Q69.32 46.54 69.32 47.10L69.32 47.10Q69.32 47.24 69.28 47.36Q69.24 47.48 69.17 47.56L69.17 47.56Q69.03 47.54 68.80 47.51Q68.58 47.48 68.35 47.48L68.35 47.48Q67.71 47.48 67.22 47.61Q66.73 47.75 66.41 47.93L66.41 47.93ZM75.12 48.98L75.12 48.98Q75.12 48.19 74.67 47.83Q74.23 47.47 73.49 47.47L73.49 47.47Q72.93 47.47 72.50 47.61Q72.06 47.75 71.76 47.93L71.76 47.93L71.76 53.16Q71.69 53.19 71.55 53.23Q71.41 53.26 71.24 53.26L71.24 53.26Q70.64 53.26 70.64 52.76L70.64 52.76L70.64 47.98Q70.64 47.69 70.75 47.50Q70.87 47.31 71.17 47.13L71.17 47.13Q71.53 46.91 72.13 46.72Q72.74 46.54 73.49 46.54L73.49 46.54Q74.77 46.54 75.50 47.12Q76.24 47.69 76.24 48.92L76.24 48.92L76.24 53.16Q76.17 53.19 76.02 53.23Q75.87 53.26 75.72 53.26L75.72 53.26Q75.12 53.26 75.12 52.76L75.12 52.76L75.12 48.98ZM79.53 47.17L79.53 53.16Q79.46 53.19 79.32 53.23Q79.18 53.26 79.01 53.26L79.01 53.26Q78.41 53.26 78.41 52.76L78.41 52.76L78.41 46.75Q78.48 46.72 78.62 46.69Q78.77 46.65 78.94 46.65L78.94 46.65Q79.53 46.65 79.53 47.17L79.53 47.17ZM78.24 44.68L78.24 44.68Q78.24 44.39 78.44 44.18Q78.64 43.98 78.97 43.98L78.97 43.98Q79.29 43.98 79.48 44.18Q79.68 44.39 79.68 44.68L79.68 44.68Q79.68 44.97 79.48 45.18Q79.29 45.38 78.97 45.38L78.97 45.38Q78.64 45.38 78.44 45.18Q78.24 44.97 78.24 44.68ZM86.19 48.98L86.19 48.98Q86.19 48.19 85.75 47.83Q85.31 47.47 84.57 47.47L84.57 47.47Q84.01 47.47 83.57 47.61Q83.14 47.75 82.83 47.93L82.83 47.93L82.83 53.16Q82.76 53.19 82.62 53.23Q82.48 53.26 82.31 53.26L82.31 53.26Q81.71 53.26 81.71 52.76L81.71 52.76L81.71 47.98Q81.71 47.69 81.83 47.50Q81.95 47.31 82.24 47.13L82.24 47.13Q82.61 46.91 83.21 46.72Q83.81 46.54 84.57 46.54L84.57 46.54Q85.84 46.54 86.58 47.12Q87.31 47.69 87.31 48.92L87.31 48.92L87.31 53.16Q87.24 53.19 87.09 53.23Q86.95 53.26 86.79 53.26L86.79 53.26Q86.19 53.26 86.19 52.76L86.19 52.76L86.19 48.98ZM93.74 53.40L93.74 52.52Q93.50 52.72 93.08 52.86Q92.67 53.00 92.10 53.00L92.10 53.00Q91.48 53.00 90.94 52.82Q90.39 52.65 89.98 52.26Q89.56 51.88 89.32 51.26Q89.07 50.64 89.07 49.76L89.07 49.76Q89.07 48.96 89.31 48.36Q89.55 47.76 89.98 47.35Q90.40 46.95 90.99 46.74Q91.58 46.54 92.29 46.54L92.29 46.54Q92.94 46.54 93.48 46.70Q94.02 46.86 94.38 47.10L94.38 47.10Q94.59 47.24 94.72 47.42Q94.86 47.59 94.86 47.84L94.86 47.84L94.86 53.47Q94.86 54.17 94.63 54.66Q94.39 55.14 93.98 55.44Q93.57 55.74 93.01 55.88Q92.45 56.02 91.80 56.02L91.80 56.02Q91.09 56.02 90.59 55.87Q90.10 55.73 89.91 55.61L89.91 55.61Q89.49 55.38 89.49 55.01L89.49 55.01Q89.49 54.82 89.58 54.68Q89.68 54.55 89.82 54.48L89.82 54.48Q90.11 54.70 90.64 54.89Q91.17 55.08 91.80 55.08L91.80 55.08Q92.74 55.08 93.24 54.68Q93.74 54.28 93.74 53.40L93.74 53.40ZM92.22 52.07L92.22 52.07Q92.78 52.07 93.14 51.90Q93.50 51.72 93.74 51.50L93.74 51.50L93.74 47.86Q93.50 47.70 93.14 47.59Q92.78 47.47 92.29 47.47L92.29 47.47Q91.34 47.47 90.78 48.04Q90.21 48.61 90.21 49.75L90.21 49.75Q90.21 50.38 90.36 50.82Q90.52 51.26 90.79 51.54Q91.06 51.82 91.43 51.95Q91.80 52.07 92.22 52.07Z"></path></svg>