<svg xmlns="http://www.w3.org/2000/svg" width="256" height="256" viewBox="0 0 100 100"><rect width="100" height="100" rx="20" fill="#9b9b9b"></rect><path fill="#fff" d="M46.47 48.40L46.47 48.40Q46.47 47.06 45.72 46.44Q44.96 45.81 43.69 45.81L43.69 45.81Q42.73 45.81 41.98 46.05Q41.24 46.29 40.71 46.60L40.71 46.60L40.71 55.58Q40.59 55.63 40.35 55.69Q40.11 55.75 39.82 55.75L39.82 55.75Q38.79 55.75 38.79 54.88L38.79 54.88L38.79 46.70Q38.79 46.20 39.00 45.87Q39.20 45.55 39.70 45.24L39.70 45.24Q40.33 44.85 41.36 44.54Q42.39 44.23 43.69 44.23L43.69 44.23Q45.87 44.23 47.13 45.21Q48.39 46.20 48.39 48.31L48.39 48.31L48.39 55.58Q48.27 55.63 48.02 55.69Q47.77 55.75 47.50 55.75L47.50 55.75Q46.47 55.75 46.47 54.88L46.47 54.88L46.47 48.40ZM60.30 44.32L60.30 44.32Q60.70 44.32 60.96 44.54Q61.21 44.76 61.21 45.16L61.21 45.16Q61.21 45.43 61.02 46.09Q60.82 46.75 60.51 47.65Q60.20 48.55 59.80 49.63Q59.41 50.71 58.96 51.78Q58.52 52.84 58.08 53.83Q57.63 54.81 57.25 55.53L57.25 55.53Q57.13 55.63 56.83 55.70Q56.53 55.77 56.19 55.77L56.19 55.77Q55.30 55.77 55.04 55.27L55.04 55.27Q54.82 54.86 54.49 54.14Q54.15 53.42 53.77 52.51Q53.38 51.60 52.98 50.56Q52.57 49.53 52.18 48.51Q51.80 47.49 51.46 46.54Q51.13 45.60 50.91 44.85L50.91 44.85Q51.08 44.61 51.37 44.47Q51.66 44.32 51.94 44.32L51.94 44.32Q52.38 44.32 52.60 44.54Q52.83 44.76 53.02 45.26L53.02 45.26L54.51 49.56Q54.66 49.96 54.87 50.55Q55.09 51.14 55.32 51.75Q55.54 52.36 55.77 52.94Q56.00 53.52 56.14 53.92L56.14 53.92L56.24 53.92Q57.20 51.50 58.03 49.15Q58.86 46.80 59.48 44.52L59.48 44.52Q59.79 44.32 60.30 44.32Z"></path></svg>