<svg xmlns="http://www.w3.org/2000/svg" width="256" height="256" viewBox="0 0 100 100"><rect width="100" height="100" rx="20" fill="#9b9b9b"></rect><path fill="#fff" d="M5.31 48.97L5.31 56.08Q5.22 56.12 5.03 56.17Q4.84 56.21 4.61 56.21L4.61 56.21Q3.79 56.21 3.79 55.53L3.79 55.53L3.79 49.09Q3.79 48.65 3.95 48.39Q4.11 48.14 4.49 47.89L4.49 47.89Q4.99 47.57 5.83 47.33Q6.68 47.09 7.74 47.09L7.74 47.09Q9.26 47.09 9.26 47.85L9.26 47.85Q9.26 48.04 9.21 48.20Q9.15 48.37 9.05 48.48L9.05 48.48Q8.86 48.44 8.56 48.40Q8.26 48.37 7.95 48.37L7.95 48.37Q7.08 48.37 6.41 48.55Q5.75 48.73 5.31 48.97L5.31 48.97ZM19.20 51.73L19.20 51.73Q19.20 52.79 18.90 53.65Q18.59 54.50 18.03 55.11Q17.47 55.72 16.67 56.04Q15.88 56.36 14.89 56.36L14.89 56.36Q13.90 56.36 13.10 56.04Q12.30 55.72 11.73 55.11Q11.16 54.50 10.86 53.65Q10.56 52.79 10.56 51.73L10.56 51.73Q10.56 50.66 10.87 49.81Q11.18 48.95 11.75 48.35Q12.32 47.74 13.12 47.42Q13.92 47.09 14.89 47.09L14.89 47.09Q15.86 47.09 16.65 47.42Q17.45 47.74 18.01 48.35Q18.57 48.95 18.89 49.81Q19.20 50.66 19.20 51.73ZM14.89 48.35L14.89 48.35Q13.60 48.35 12.85 49.24Q12.11 50.13 12.11 51.73L12.11 51.73Q12.11 53.34 12.85 54.23Q13.58 55.11 14.89 55.11L14.89 55.11Q16.20 55.11 16.92 54.22Q17.64 53.32 17.64 51.73L17.64 51.73Q17.64 50.13 16.91 49.24Q16.18 48.35 14.89 48.35ZM29.71 51.73L29.71 51.73Q29.71 52.79 29.40 53.65Q29.10 54.50 28.54 55.11Q27.98 55.72 27.18 56.04Q26.38 56.36 25.39 56.36L25.39 56.36Q24.41 56.36 23.61 56.04Q22.81 55.72 22.24 55.11Q21.67 54.50 21.37 53.65Q21.06 52.79 21.06 51.73L21.06 51.73Q21.06 50.66 21.38 49.81Q21.69 48.95 22.26 48.35Q22.83 47.74 23.63 47.42Q24.43 47.09 25.39 47.09L25.39 47.09Q26.36 47.09 27.16 47.42Q27.96 47.74 28.52 48.35Q29.08 48.95 29.39 49.81Q29.71 50.66 29.71 51.73ZM25.39 48.35L25.39 48.35Q24.10 48.35 23.36 49.24Q22.62 50.13 22.62 51.73L22.62 51.73Q22.62 53.34 23.35 54.23Q24.08 55.11 25.39 55.11L25.39 55.11Q26.71 55.11 27.43 54.22Q28.15 53.32 28.15 51.73L28.15 51.73Q28.15 50.13 27.42 49.24Q26.69 48.35 25.39 48.35ZM35.07 56.36L35.07 56.36Q33.74 56.36 32.91 55.78Q32.08 55.19 32.08 53.82L32.08 53.82L32.08 44.79Q32.18 44.76 32.38 44.71Q32.58 44.66 32.80 44.66L32.80 44.66Q33.60 44.66 33.60 45.34L33.60 45.34L33.60 47.53L36.72 47.53Q36.78 47.62 36.83 47.79Q36.89 47.95 36.89 48.14L36.89 48.14Q36.89 48.78 36.32 48.78L36.32 48.78L33.60 48.78L33.60 53.72Q33.60 54.48 34.03 54.80Q34.46 55.11 35.24 55.11L35.24 55.11Q35.56 55.11 35.96 55.00Q36.36 54.88 36.62 54.73L36.62 54.73Q36.74 54.84 36.83 55.02Q36.93 55.19 36.93 55.41L36.93 55.41Q36.93 55.83 36.43 56.10Q35.94 56.36 35.07 56.36ZM43.41 51.79L38.87 51.79Q38.81 51.65 38.77 51.51Q38.73 51.37 38.73 51.18L38.73 51.18Q38.73 50.53 39.40 50.53L39.40 50.53L43.94 50.53Q43.98 50.65 44.02 50.80Q44.07 50.95 44.07 51.12L44.07 51.12Q44.07 51.79 43.41 51.79L43.41 51.79ZM52.60 50.40L52.60 50.40Q52.60 49.33 52.00 48.84Q51.41 48.35 50.40 48.35L50.40 48.35Q49.64 48.35 49.05 48.54Q48.46 48.73 48.04 48.97L48.04 48.97L48.04 56.08Q47.95 56.12 47.76 56.17Q47.57 56.21 47.34 56.21L47.34 56.21Q46.52 56.21 46.52 55.53L46.52 55.53L46.52 49.05Q46.52 48.65 46.68 48.39Q46.85 48.14 47.24 47.89L47.24 47.89Q47.74 47.59 48.56 47.34Q49.37 47.09 50.40 47.09L50.40 47.09Q52.13 47.09 53.13 47.87Q54.12 48.65 54.12 50.32L54.12 50.32L54.12 56.08Q54.03 56.12 53.83 56.17Q53.63 56.21 53.42 56.21L53.42 56.21Q52.60 56.21 52.60 55.53L52.60 55.53L52.60 50.40ZM60.11 55.13L60.11 55.13Q60.91 55.13 61.43 54.97Q61.95 54.81 62.18 54.65L62.18 54.65L62.18 51.90L59.82 52.15Q58.83 52.24 58.36 52.59Q57.88 52.94 57.88 53.63L57.88 53.63Q57.88 54.35 58.44 54.74Q58.99 55.13 60.11 55.13ZM60.09 47.09L60.09 47.09Q61.74 47.09 62.71 47.83Q63.68 48.57 63.68 50.17L63.68 50.17L63.68 54.67Q63.68 55.09 63.52 55.31Q63.36 55.53 63.03 55.72L63.03 55.72Q62.58 55.98 61.83 56.18Q61.08 56.38 60.11 56.38L60.11 56.38Q58.32 56.38 57.34 55.68Q56.36 54.98 56.36 53.65L56.36 53.65Q56.36 52.39 57.18 51.76Q58.00 51.12 59.48 50.97L59.48 50.97L62.18 50.70L62.18 50.17Q62.18 49.22 61.61 48.78Q61.04 48.35 60.07 48.35L60.07 48.35Q59.27 48.35 58.57 48.57Q57.87 48.80 57.31 49.09L57.31 49.09Q57.16 48.95 57.04 48.78Q56.92 48.61 56.92 48.40L56.92 48.40Q56.92 48.14 57.05 47.97Q57.18 47.80 57.47 47.64L57.47 47.64Q57.98 47.38 58.64 47.24Q59.31 47.09 60.09 47.09ZM69.46 56.36L69.46 56.36Q68.13 56.36 67.30 55.78Q66.47 55.19 66.47 53.82L66.47 53.82L66.47 44.79Q66.57 44.76 66.77 44.71Q66.97 44.66 67.19 44.66L67.19 44.66Q67.99 44.66 67.99 45.34L67.99 45.34L67.99 47.53L71.11 47.53Q71.17 47.62 71.22 47.79Q71.28 47.95 71.28 48.14L71.28 48.14Q71.28 48.78 70.71 48.78L70.71 48.78L67.99 48.78L67.99 53.72Q67.99 54.48 68.42 54.80Q68.85 55.11 69.63 55.11L69.63 55.11Q69.95 55.11 70.35 55.00Q70.75 54.88 71.01 54.73L71.01 54.73Q71.13 54.84 71.22 55.02Q71.32 55.19 71.32 55.41L71.32 55.41Q71.32 55.83 70.82 56.10Q70.33 56.36 69.46 56.36ZM75.14 47.95L75.14 56.08Q75.04 56.12 74.85 56.17Q74.66 56.21 74.43 56.21L74.43 56.21Q73.62 56.21 73.62 55.53L73.62 55.53L73.62 47.38Q73.71 47.34 73.91 47.29Q74.11 47.24 74.34 47.24L74.34 47.24Q75.14 47.24 75.14 47.95L75.14 47.95ZM73.39 44.57L73.39 44.57Q73.39 44.17 73.66 43.89Q73.94 43.62 74.38 43.62L74.38 43.62Q74.81 43.62 75.08 43.89Q75.35 44.17 75.35 44.57L75.35 44.57Q75.35 44.96 75.08 45.24Q74.81 45.52 74.38 45.52L74.38 45.52Q73.94 45.52 73.66 45.24Q73.39 44.96 73.39 44.57ZM86.25 51.73L86.25 51.73Q86.25 52.79 85.95 53.65Q85.64 54.50 85.08 55.11Q84.52 55.72 83.72 56.04Q82.93 56.36 81.94 56.36L81.94 56.36Q80.95 56.36 80.15 56.04Q79.35 55.72 78.78 55.11Q78.21 54.50 77.91 53.65Q77.61 52.79 77.61 51.73L77.61 51.73Q77.61 50.66 77.92 49.81Q78.23 48.95 78.80 48.35Q79.37 47.74 80.17 47.42Q80.97 47.09 81.94 47.09L81.94 47.09Q82.91 47.09 83.71 47.42Q84.50 47.74 85.06 48.35Q85.62 48.95 85.94 49.81Q86.25 50.66 86.25 51.73ZM81.94 48.35L81.94 48.35Q80.65 48.35 79.91 49.24Q79.16 50.13 79.16 51.73L79.16 51.73Q79.16 53.34 79.90 54.23Q80.63 55.11 81.94 55.11L81.94 55.11Q83.25 55.11 83.97 54.22Q84.69 53.32 84.69 51.73L84.69 51.73Q84.69 50.13 83.96 49.24Q83.23 48.35 81.94 48.35ZM94.69 50.40L94.69 50.40Q94.69 49.33 94.09 48.84Q93.49 48.35 92.48 48.35L92.48 48.35Q91.72 48.35 91.13 48.54Q90.55 48.73 90.13 48.97L90.13 48.97L90.13 56.08Q90.03 56.12 89.84 56.17Q89.65 56.21 89.42 56.21L89.42 56.21Q88.61 56.21 88.61 55.53L88.61 55.53L88.61 49.05Q88.61 48.65 88.77 48.39Q88.93 48.14 89.33 47.89L89.33 47.89Q89.82 47.59 90.64 47.34Q91.46 47.09 92.48 47.09L92.48 47.09Q94.21 47.09 95.21 47.87Q96.21 48.65 96.21 50.32L96.21 50.32L96.21 56.08Q96.11 56.12 95.91 56.17Q95.71 56.21 95.50 56.21L95.50 56.21Q94.69 56.21 94.69 55.53L94.69 55.53L94.69 50.40Z"></path></svg>