<svg xmlns="http://www.w3.org/2000/svg" width="256" height="256" viewBox="0 0 100 100"><rect width="100" height="100" rx="20" fill="#9b9b9b"></rect><path fill="#fff" d="M21.54 54.39L21.54 54.39Q21.54 55.80 20.51 56.59Q19.48 57.38 17.52 57.38L17.52 57.38Q16.68 57.38 15.98 57.24Q15.27 57.09 14.78 56.86Q14.28 56.63 14.01 56.34Q13.73 56.04 13.73 55.73L13.73 55.73Q13.73 55.47 13.88 55.23Q14.02 54.98 14.31 54.81L14.31 54.81Q14.90 55.25 15.69 55.59Q16.48 55.93 17.50 55.93L17.50 55.93Q19.78 55.93 19.78 54.39L19.78 54.39Q19.78 53.13 18.27 52.76L18.27 52.76L16.44 52.28Q15.10 51.92 14.48 51.25Q13.87 50.58 13.87 49.53L13.87 49.53Q13.87 48.95 14.10 48.43Q14.33 47.90 14.81 47.50Q15.30 47.11 16.01 46.88Q16.73 46.64 17.69 46.64L17.69 46.64Q19.23 46.64 20.18 47.10Q21.13 47.55 21.13 48.14L21.13 48.14Q21.13 48.43 20.98 48.65Q20.84 48.87 20.60 48.98L20.60 48.98Q20.20 48.71 19.48 48.41Q18.75 48.10 17.76 48.10L17.76 48.10Q16.77 48.10 16.19 48.47Q15.60 48.84 15.60 49.53L15.60 49.53Q15.60 50.03 15.93 50.38Q16.26 50.74 17.03 50.91L17.03 50.91L18.55 51.29Q20.05 51.66 20.80 52.40Q21.54 53.13 21.54 54.39ZM32.90 43.48L32.90 55.42Q32.90 55.86 32.71 56.10Q32.52 56.35 32.13 56.59L32.13 56.59Q31.69 56.88 30.87 57.13Q30.06 57.38 29.00 57.38L29.00 57.38Q27.81 57.38 26.82 57.07Q25.83 56.77 25.12 56.12Q24.40 55.47 24.02 54.47Q23.63 53.46 23.63 52.06L23.63 52.06Q23.63 50.63 24.03 49.60Q24.43 48.58 25.10 47.92Q25.77 47.26 26.68 46.95Q27.59 46.64 28.63 46.64L28.63 46.64Q29.33 46.64 29.99 46.82Q30.65 47.00 31.14 47.26L31.14 47.26L31.14 42.84Q31.25 42.80 31.48 42.74Q31.71 42.69 31.95 42.69L31.95 42.69Q32.90 42.69 32.90 43.48L32.90 43.48ZM31.14 55.36L31.14 48.84Q30.70 48.54 30.12 48.32Q29.55 48.10 28.80 48.10L28.80 48.10Q28.12 48.10 27.52 48.31Q26.91 48.52 26.45 48.99Q25.99 49.46 25.71 50.23Q25.44 51.00 25.44 52.10L25.44 52.10Q25.44 54.13 26.41 55.03Q27.37 55.93 28.98 55.93L28.98 55.93Q29.75 55.93 30.24 55.76Q30.74 55.60 31.14 55.36L31.14 55.36ZM39.71 57.38L39.71 57.38Q38.17 57.38 37.22 56.70Q36.26 56.02 36.26 54.43L36.26 54.43L36.26 43.98Q36.37 43.94 36.60 43.88Q36.83 43.83 37.10 43.83L37.10 43.83Q38.02 43.83 38.02 44.62L38.02 44.62L38.02 47.15L41.63 47.15Q41.70 47.26 41.76 47.45Q41.83 47.63 41.83 47.85L41.83 47.85Q41.83 48.60 41.17 48.60L41.17 48.60L38.02 48.60L38.02 54.32Q38.02 55.20 38.52 55.57Q39.01 55.93 39.91 55.93L39.91 55.93Q40.29 55.93 40.75 55.80Q41.21 55.66 41.52 55.49L41.52 55.49Q41.65 55.62 41.76 55.82Q41.87 56.02 41.87 56.28L41.87 56.28Q41.87 56.77 41.30 57.07Q40.73 57.38 39.71 57.38ZM46.29 47.63L46.29 57.05Q46.18 57.09 45.96 57.15Q45.74 57.20 45.48 57.20L45.48 57.20Q44.53 57.20 44.53 56.41L44.53 56.41L44.53 46.98Q44.64 46.93 44.87 46.88Q45.10 46.82 45.37 46.82L45.37 46.82Q46.29 46.82 46.29 47.63L46.29 47.63ZM44.27 43.72L44.27 43.72Q44.27 43.26 44.59 42.94Q44.91 42.62 45.41 42.62L45.41 42.62Q45.92 42.62 46.23 42.94Q46.53 43.26 46.53 43.72L46.53 43.72Q46.53 44.18 46.23 44.50Q45.92 44.82 45.41 44.82L45.41 44.82Q44.91 44.82 44.59 44.50Q44.27 44.18 44.27 43.72ZM62.62 50.19L62.62 50.19Q62.62 49.11 62.00 48.60Q61.38 48.10 60.35 48.10L60.35 48.10Q58.92 48.10 57.80 49.11L57.80 49.11Q57.93 49.55 57.93 50.05L57.93 50.05L57.93 57.05Q57.82 57.09 57.59 57.15Q57.36 57.20 57.12 57.20L57.12 57.20Q56.17 57.20 56.17 56.41L56.17 56.41L56.17 50.19Q56.17 49.11 55.55 48.60Q54.94 48.10 53.88 48.10L53.88 48.10Q53.18 48.10 52.55 48.32Q51.92 48.54 51.48 48.82L51.48 48.82L51.48 57.05Q51.37 57.09 51.15 57.15Q50.93 57.20 50.67 57.20L50.67 57.20Q49.72 57.20 49.72 56.41L49.72 56.41L49.72 48.91Q49.72 48.47 49.91 48.17Q50.10 47.88 50.56 47.57L50.56 47.57Q51.15 47.20 52.07 46.92Q52.98 46.64 53.90 46.64L53.90 46.64Q54.98 46.64 55.82 46.96Q56.65 47.28 57.09 47.83L57.09 47.83Q57.67 47.33 58.52 46.99Q59.38 46.64 60.48 46.64L60.48 46.64Q62.26 46.64 63.32 47.49Q64.38 48.34 64.38 50.10L64.38 50.10L64.38 57.05Q64.27 57.09 64.04 57.15Q63.80 57.20 63.56 57.20L63.56 57.20Q62.62 57.20 62.62 56.41L62.62 56.41L62.62 50.19ZM75.71 52.10L68.93 53.05Q69.52 55.93 72.71 55.93L72.71 55.93Q73.64 55.93 74.39 55.62Q75.13 55.31 75.57 54.96L75.57 54.96Q76.10 55.27 76.10 55.80L76.10 55.80Q76.10 56.10 75.83 56.39Q75.55 56.68 75.08 56.90Q74.61 57.12 73.98 57.25Q73.35 57.38 72.63 57.38L72.63 57.38Q70.07 57.38 68.59 55.99Q67.10 54.61 67.10 51.95L67.10 51.95Q67.10 50.69 67.47 49.71Q67.83 48.73 68.48 48.05Q69.13 47.37 70.03 47.01Q70.93 46.64 71.99 46.64L71.99 46.64Q72.98 46.64 73.81 46.98Q74.65 47.30 75.26 47.91Q75.86 48.52 76.20 49.34Q76.54 50.16 76.54 51.16L76.54 51.16Q76.54 51.64 76.32 51.85Q76.10 52.06 75.71 52.10L75.71 52.10ZM71.97 48.08L71.97 48.08Q70.62 48.08 69.74 49.01Q68.86 49.95 68.82 51.68L68.82 51.68L74.87 50.85Q74.76 49.64 74.02 48.86Q73.29 48.08 71.97 48.08ZM86.27 54.39L86.27 54.39Q86.27 55.80 85.23 56.59Q84.20 57.38 82.24 57.38L82.24 57.38Q81.40 57.38 80.70 57.24Q80.00 57.09 79.50 56.86Q79.01 56.63 78.73 56.34Q78.46 56.04 78.46 55.73L78.46 55.73Q78.46 55.47 78.60 55.23Q78.74 54.98 79.03 54.81L79.03 54.81Q79.62 55.25 80.41 55.59Q81.21 55.93 82.22 55.93L82.22 55.93Q84.51 55.93 84.51 54.39L84.51 54.39Q84.51 53.13 82.99 52.76L82.99 52.76L81.16 52.28Q79.82 51.92 79.20 51.25Q78.59 50.58 78.59 49.53L78.59 49.53Q78.59 48.95 78.82 48.43Q79.05 47.90 79.53 47.50Q80.02 47.11 80.73 46.88Q81.45 46.64 82.42 46.64L82.42 46.64Q83.96 46.64 84.90 47.10Q85.85 47.55 85.85 48.14L85.85 48.14Q85.85 48.43 85.71 48.65Q85.56 48.87 85.32 48.98L85.32 48.98Q84.92 48.71 84.20 48.41Q83.47 48.10 82.48 48.10L82.48 48.10Q81.49 48.10 80.91 48.47Q80.33 48.84 80.33 49.53L80.33 49.53Q80.33 50.03 80.66 50.38Q80.99 50.74 81.76 50.91L81.76 50.91L83.27 51.29Q84.77 51.66 85.52 52.40Q86.27 53.13 86.27 54.39Z"></path></svg>