<svg xmlns="http://www.w3.org/2000/svg" width="256" height="256" viewBox="0 0 100 100"><rect width="100" height="100" rx="20" fill="#9b9b9b"></rect><path fill="#fff" d="M33.47 51.87L33.47 51.87Q33.47 53.28 32.43 54.07Q31.40 54.86 29.44 54.86L29.44 54.86Q28.61 54.86 27.90 54.72Q27.20 54.58 26.70 54.34Q26.21 54.11 25.93 53.82Q25.66 53.52 25.66 53.21L25.66 53.21Q25.66 52.95 25.80 52.71Q25.94 52.46 26.23 52.29L26.23 52.29Q26.82 52.73 27.62 53.07Q28.41 53.41 29.42 53.41L29.42 53.41Q31.71 53.41 31.71 51.87L31.71 51.87Q31.71 50.62 30.19 50.24L30.19 50.24L28.36 49.76Q27.02 49.41 26.41 48.73Q25.79 48.06 25.79 47.01L25.79 47.01Q25.79 46.44 26.02 45.91Q26.25 45.38 26.74 44.98Q27.22 44.59 27.93 44.36Q28.65 44.13 29.62 44.13L29.62 44.13Q31.16 44.13 32.10 44.58Q33.05 45.03 33.05 45.62L33.05 45.62Q33.05 45.91 32.91 46.13Q32.76 46.35 32.52 46.46L32.52 46.46Q32.13 46.19 31.40 45.89Q30.67 45.58 29.68 45.58L29.68 45.58Q28.69 45.58 28.11 45.95Q27.53 46.33 27.53 47.01L27.53 47.01Q27.53 47.51 27.86 47.87Q28.19 48.22 28.96 48.39L28.96 48.39L30.48 48.77Q31.97 49.14 32.72 49.88Q33.47 50.62 33.47 51.87ZM40.46 54.86L40.46 54.86Q39.69 54.86 39.01 54.69Q38.33 54.51 37.89 54.27L37.89 54.27L37.89 58.54Q37.78 58.58 37.56 58.63Q37.34 58.69 37.07 58.69L37.07 58.69Q36.13 58.69 36.13 57.88L36.13 57.88L36.13 46.26Q36.13 45.82 36.28 45.56Q36.44 45.29 36.92 45.01L36.92 45.01Q37.52 44.68 38.34 44.40Q39.16 44.13 40.22 44.13L40.22 44.13Q41.30 44.13 42.26 44.43Q43.21 44.74 43.91 45.39Q44.60 46.04 45.01 47.05Q45.41 48.06 45.41 49.47L45.41 49.47Q45.41 50.84 45.05 51.85Q44.69 52.86 44.03 53.53Q43.37 54.20 42.45 54.53Q41.54 54.86 40.46 54.86ZM40.22 53.41L40.22 53.41Q41.76 53.41 42.70 52.48Q43.63 51.54 43.63 49.47L43.63 49.47Q43.63 48.39 43.36 47.65Q43.08 46.90 42.61 46.44Q42.13 45.97 41.52 45.78Q40.90 45.58 40.22 45.58L40.22 45.58Q39.43 45.58 38.88 45.78Q38.33 45.97 37.89 46.22L37.89 46.22L37.89 52.71Q38.31 53.01 38.88 53.21Q39.45 53.41 40.22 53.41ZM57.58 49.49L57.58 49.49Q57.58 50.73 57.23 51.72Q56.88 52.71 56.23 53.41Q55.58 54.11 54.65 54.49Q53.73 54.86 52.59 54.86L52.59 54.86Q51.44 54.86 50.52 54.49Q49.59 54.11 48.93 53.41Q48.27 52.71 47.92 51.72Q47.57 50.73 47.57 49.49L47.57 49.49Q47.57 48.26 47.93 47.27Q48.30 46.28 48.95 45.58Q49.62 44.87 50.54 44.50Q51.46 44.13 52.59 44.13L52.59 44.13Q53.71 44.13 54.63 44.50Q55.55 44.87 56.20 45.58Q56.85 46.28 57.22 47.27Q57.58 48.26 57.58 49.49ZM52.59 45.58L52.59 45.58Q51.09 45.58 50.23 46.61Q49.37 47.65 49.37 49.49L49.37 49.49Q49.37 51.36 50.22 52.39Q51.07 53.41 52.59 53.41L52.59 53.41Q54.10 53.41 54.94 52.38Q55.77 51.34 55.77 49.49L55.77 49.49Q55.77 47.65 54.93 46.61Q54.08 45.58 52.59 45.58ZM62.07 46.30L62.07 54.53Q61.96 54.58 61.74 54.63Q61.52 54.69 61.25 54.69L61.25 54.69Q60.31 54.69 60.31 53.89L60.31 53.89L60.31 46.44Q60.31 45.93 60.49 45.63Q60.68 45.34 61.12 45.05L61.12 45.05Q61.69 44.68 62.67 44.40Q63.65 44.13 64.88 44.13L64.88 44.13Q66.64 44.13 66.64 45.01L66.64 45.01Q66.64 45.23 66.58 45.41Q66.51 45.60 66.40 45.73L66.40 45.73Q66.18 45.69 65.83 45.64Q65.48 45.60 65.13 45.60L65.13 45.60Q64.11 45.60 63.34 45.81Q62.57 46.02 62.07 46.30L62.07 46.30ZM72.19 54.86L72.19 54.86Q70.65 54.86 69.69 54.18Q68.73 53.50 68.73 51.91L68.73 51.91L68.73 41.46Q68.84 41.42 69.07 41.37Q69.30 41.31 69.57 41.31L69.57 41.31Q70.49 41.31 70.49 42.10L70.49 42.10L70.49 44.63L74.10 44.63Q74.17 44.74 74.23 44.93Q74.30 45.12 74.30 45.34L74.30 45.34Q74.30 46.08 73.64 46.08L73.64 46.08L70.49 46.08L70.49 51.80Q70.49 52.68 70.99 53.05Q71.48 53.41 72.38 53.41L72.38 53.41Q72.76 53.41 73.22 53.28Q73.68 53.15 73.99 52.97L73.99 52.97Q74.12 53.10 74.23 53.30Q74.34 53.50 74.34 53.76L74.34 53.76Q74.34 54.25 73.77 54.55Q73.20 54.86 72.19 54.86Z"></path></svg>