<svg xmlns="http://www.w3.org/2000/svg" width="256" height="256" viewBox="0 0 100 100"><rect width="100" height="100" rx="20" fill="#9b9b9b"></rect><path fill="#fff" d="M10.78 51.70L10.78 51.70Q10.78 52.98 9.84 53.70Q8.90 54.42 7.12 54.42L7.12 54.42Q6.36 54.42 5.72 54.29Q5.08 54.16 4.63 53.95Q4.18 53.74 3.93 53.47Q3.68 53.20 3.68 52.92L3.68 52.92Q3.68 52.68 3.81 52.46Q3.94 52.24 4.20 52.08L4.20 52.08Q4.74 52.48 5.46 52.79Q6.18 53.10 7.10 53.10L7.10 53.10Q9.18 53.10 9.18 51.70L9.18 51.70Q9.18 50.56 7.80 50.22L7.80 50.22L6.14 49.78Q4.92 49.46 4.36 48.85Q3.80 48.24 3.80 47.28L3.80 47.28Q3.80 46.76 4.01 46.28Q4.22 45.80 4.66 45.44Q5.10 45.08 5.75 44.87Q6.40 44.66 7.28 44.66L7.28 44.66Q8.68 44.66 9.54 45.07Q10.40 45.48 10.40 46.02L10.40 46.02Q10.40 46.28 10.27 46.48Q10.14 46.68 9.92 46.78L9.92 46.78Q9.56 46.54 8.90 46.26Q8.24 45.98 7.34 45.98L7.34 45.98Q6.44 45.98 5.91 46.32Q5.38 46.66 5.38 47.28L5.38 47.28Q5.38 47.74 5.68 48.06Q5.98 48.38 6.68 48.54L6.68 48.54L8.06 48.88Q9.42 49.22 10.10 49.89Q10.78 50.56 10.78 51.70ZM17.14 54.42L17.14 54.42Q16.44 54.42 15.82 54.26Q15.20 54.10 14.80 53.88L14.80 53.88L14.80 57.76Q14.70 57.80 14.50 57.85Q14.30 57.90 14.06 57.90L14.06 57.90Q13.20 57.90 13.20 57.16L13.20 57.16L13.20 46.60Q13.20 46.20 13.34 45.96Q13.48 45.72 13.92 45.46L13.92 45.46Q14.46 45.16 15.21 44.91Q15.96 44.66 16.92 44.66L16.92 44.66Q17.90 44.66 18.77 44.94Q19.64 45.22 20.27 45.81Q20.90 46.40 21.27 47.32Q21.64 48.24 21.64 49.52L21.64 49.52Q21.64 50.76 21.31 51.68Q20.98 52.60 20.38 53.21Q19.78 53.82 18.95 54.12Q18.12 54.42 17.14 54.42ZM16.92 53.10L16.92 53.10Q18.32 53.10 19.17 52.25Q20.02 51.40 20.02 49.52L20.02 49.52Q20.02 48.54 19.77 47.86Q19.52 47.18 19.09 46.76Q18.66 46.34 18.10 46.16Q17.54 45.98 16.92 45.98L16.92 45.98Q16.20 45.98 15.70 46.16Q15.20 46.34 14.80 46.56L14.80 46.56L14.80 52.46Q15.18 52.74 15.70 52.92Q16.22 53.10 16.92 53.10ZM32.70 49.54L32.70 49.54Q32.70 50.66 32.38 51.56Q32.06 52.46 31.47 53.10Q30.88 53.74 30.04 54.08Q29.20 54.42 28.16 54.42L28.16 54.42Q27.12 54.42 26.28 54.08Q25.44 53.74 24.84 53.10Q24.24 52.46 23.92 51.56Q23.60 50.66 23.60 49.54L23.60 49.54Q23.60 48.42 23.93 47.52Q24.26 46.62 24.86 45.98Q25.46 45.34 26.30 45Q27.14 44.66 28.16 44.66L28.16 44.66Q29.18 44.66 30.02 45Q30.86 45.34 31.45 45.98Q32.04 46.62 32.37 47.52Q32.70 48.42 32.70 49.54ZM28.16 45.98L28.16 45.98Q26.80 45.98 26.02 46.92Q25.24 47.86 25.24 49.54L25.24 49.54Q25.24 51.24 26.01 52.17Q26.78 53.10 28.16 53.10L28.16 53.10Q29.54 53.10 30.30 52.16Q31.06 51.22 31.06 49.54L31.06 49.54Q31.06 47.86 30.29 46.92Q29.52 45.98 28.16 45.98ZM36.78 46.64L36.78 54.12Q36.68 54.16 36.48 54.21Q36.28 54.26 36.04 54.26L36.04 54.26Q35.18 54.26 35.18 53.54L35.18 53.54L35.18 46.76Q35.18 46.30 35.35 46.03Q35.52 45.76 35.92 45.50L35.92 45.50Q36.44 45.16 37.33 44.91Q38.22 44.66 39.34 44.66L39.34 44.66Q40.94 44.66 40.94 45.46L40.94 45.46Q40.94 45.66 40.88 45.83Q40.82 46 40.72 46.12L40.72 46.12Q40.52 46.08 40.20 46.04Q39.88 46 39.56 46L39.56 46Q38.64 46 37.94 46.19Q37.24 46.38 36.78 46.64L36.78 46.64ZM45.98 54.42L45.98 54.42Q44.58 54.42 43.71 53.80Q42.84 53.18 42.84 51.74L42.84 51.74L42.84 42.24Q42.94 42.20 43.15 42.15Q43.36 42.10 43.60 42.10L43.60 42.10Q44.44 42.10 44.44 42.82L44.44 42.82L44.44 45.12L47.72 45.12Q47.78 45.22 47.84 45.39Q47.90 45.56 47.90 45.76L47.90 45.76Q47.90 46.44 47.30 46.44L47.30 46.44L44.44 46.44L44.44 51.64Q44.44 52.44 44.89 52.77Q45.34 53.10 46.16 53.10L46.16 53.10Q46.50 53.10 46.92 52.98Q47.34 52.86 47.62 52.70L47.62 52.70Q47.74 52.82 47.84 53.00Q47.94 53.18 47.94 53.42L47.94 53.42Q47.94 53.86 47.42 54.14Q46.90 54.42 45.98 54.42ZM53.56 53.12L53.56 53.12Q54.40 53.12 54.95 52.95Q55.50 52.78 55.74 52.62L55.74 52.62L55.74 49.72L53.26 49.98Q52.22 50.08 51.72 50.45Q51.22 50.82 51.22 51.54L51.22 51.54Q51.22 52.30 51.80 52.71Q52.38 53.12 53.56 53.12ZM53.54 44.66L53.54 44.66Q55.28 44.66 56.30 45.44Q57.32 46.22 57.32 47.90L57.32 47.90L57.32 52.64Q57.32 53.08 57.15 53.31Q56.98 53.54 56.64 53.74L56.64 53.74Q56.16 54.02 55.37 54.23Q54.58 54.44 53.56 54.44L53.56 54.44Q51.68 54.44 50.65 53.70Q49.62 52.96 49.62 51.56L49.62 51.56Q49.62 50.24 50.48 49.57Q51.34 48.90 52.90 48.74L52.90 48.74L55.74 48.46L55.74 47.90Q55.74 46.90 55.14 46.44Q54.54 45.98 53.52 45.98L53.52 45.98Q52.68 45.98 51.94 46.22Q51.20 46.46 50.62 46.76L50.62 46.76Q50.46 46.62 50.33 46.44Q50.20 46.26 50.20 46.04L50.20 46.04Q50.20 45.76 50.34 45.58Q50.48 45.40 50.78 45.24L50.78 45.24Q51.32 44.96 52.02 44.81Q52.72 44.66 53.54 44.66ZM61.84 46.64L61.84 54.12Q61.74 54.16 61.54 54.21Q61.34 54.26 61.10 54.26L61.10 54.26Q60.24 54.26 60.24 53.54L60.24 53.54L60.24 46.76Q60.24 46.30 60.41 46.03Q60.58 45.76 60.98 45.50L60.98 45.50Q61.50 45.16 62.39 44.91Q63.28 44.66 64.40 44.66L64.40 44.66Q66 44.66 66 45.46L66 45.46Q66 45.66 65.94 45.83Q65.88 46 65.78 46.12L65.78 46.12Q65.58 46.08 65.26 46.04Q64.94 46 64.62 46L64.62 46Q63.70 46 63.00 46.19Q62.30 46.38 61.84 46.64L61.84 46.64ZM75.18 49.62L69.02 50.48Q69.56 53.10 72.46 53.10L72.46 53.10Q73.30 53.10 73.98 52.82Q74.66 52.54 75.06 52.22L75.06 52.22Q75.54 52.50 75.54 52.98L75.54 52.98Q75.54 53.26 75.29 53.52Q75.04 53.78 74.61 53.98Q74.18 54.18 73.61 54.30Q73.04 54.42 72.38 54.42L72.38 54.42Q70.06 54.42 68.71 53.16Q67.36 51.90 67.36 49.48L67.36 49.48Q67.36 48.34 67.69 47.45Q68.02 46.56 68.61 45.94Q69.20 45.32 70.02 44.99Q70.84 44.66 71.80 44.66L71.80 44.66Q72.70 44.66 73.46 44.96Q74.22 45.26 74.77 45.81Q75.32 46.36 75.63 47.11Q75.94 47.86 75.94 48.76L75.94 48.76Q75.94 49.20 75.74 49.39Q75.54 49.58 75.18 49.62L75.18 49.62ZM71.78 45.96L71.78 45.96Q70.56 45.96 69.76 46.81Q68.96 47.66 68.92 49.24L68.92 49.24L74.42 48.48Q74.32 47.38 73.65 46.67Q72.98 45.96 71.78 45.96ZM84.66 48.14L84.66 48.14Q84.66 47.02 84.03 46.50Q83.40 45.98 82.34 45.98L82.34 45.98Q81.54 45.98 80.92 46.18Q80.30 46.38 79.86 46.64L79.86 46.64L79.86 54.12Q79.76 54.16 79.56 54.21Q79.36 54.26 79.12 54.26L79.12 54.26Q78.26 54.26 78.26 53.54L78.26 53.54L78.26 46.72Q78.26 46.30 78.43 46.03Q78.60 45.76 79.02 45.50L79.02 45.50Q79.54 45.18 80.40 44.92Q81.26 44.66 82.34 44.66L82.34 44.66Q84.16 44.66 85.21 45.48Q86.26 46.30 86.26 48.06L86.26 48.06L86.26 54.12Q86.16 54.16 85.95 54.21Q85.74 54.26 85.52 54.26L85.52 54.26Q84.66 54.26 84.66 53.54L84.66 53.54L84.66 48.14ZM92.56 53.12L92.56 53.12Q93.40 53.12 93.95 52.95Q94.50 52.78 94.74 52.62L94.74 52.62L94.74 49.72L92.26 49.98Q91.22 50.08 90.72 50.45Q90.22 50.82 90.22 51.54L90.22 51.54Q90.22 52.30 90.80 52.71Q91.38 53.12 92.56 53.12ZM92.54 44.66L92.54 44.66Q94.28 44.66 95.30 45.44Q96.32 46.22 96.32 47.90L96.32 47.90L96.32 52.64Q96.32 53.08 96.15 53.31Q95.98 53.54 95.64 53.74L95.64 53.74Q95.16 54.02 94.37 54.23Q93.58 54.44 92.56 54.44L92.56 54.44Q90.68 54.44 89.65 53.70Q88.62 52.96 88.62 51.56L88.62 51.56Q88.62 50.24 89.48 49.57Q90.34 48.90 91.90 48.74L91.90 48.74L94.74 48.46L94.74 47.90Q94.74 46.90 94.14 46.44Q93.54 45.98 92.52 45.98L92.52 45.98Q91.68 45.98 90.94 46.22Q90.20 46.46 89.62 46.76L89.62 46.76Q89.46 46.62 89.33 46.44Q89.20 46.26 89.20 46.04L89.20 46.04Q89.20 45.76 89.34 45.58Q89.48 45.40 89.78 45.24L89.78 45.24Q90.32 44.96 91.02 44.81Q91.72 44.66 92.54 44.66Z"></path></svg>