<svg xmlns="http://www.w3.org/2000/svg" width="256" height="256" viewBox="0 0 100 100"><rect width="100" height="100" rx="20" fill="#9b9b9b"></rect><path fill="#fff" d="M5.03 54.47L5.03 54.47Q3.77 54.47 2.98 53.91Q2.20 53.36 2.20 52.06L2.20 52.06L2.20 43.51Q2.29 43.47 2.48 43.43Q2.67 43.38 2.88 43.38L2.88 43.38Q3.64 43.38 3.64 44.03L3.64 44.03L3.64 46.10L6.59 46.10Q6.65 46.19 6.70 46.35Q6.75 46.50 6.75 46.68L6.75 46.68Q6.75 47.29 6.21 47.29L6.21 47.29L3.64 47.29L3.64 51.97Q3.64 52.69 4.05 52.99Q4.45 53.28 5.19 53.28L5.19 53.28Q5.49 53.28 5.87 53.18Q6.25 53.07 6.50 52.92L6.50 52.92Q6.61 53.03 6.70 53.20Q6.79 53.36 6.79 53.57L6.79 53.57Q6.79 53.97 6.32 54.22Q5.85 54.47 5.03 54.47ZM15.45 50.15L9.90 50.93Q10.39 53.28 13.00 53.28L13.00 53.28Q13.76 53.28 14.37 53.03Q14.98 52.78 15.34 52.49L15.34 52.49Q15.77 52.74 15.77 53.18L15.77 53.18Q15.77 53.43 15.55 53.66Q15.32 53.90 14.94 54.08Q14.55 54.26 14.04 54.36Q13.52 54.47 12.93 54.47L12.93 54.47Q10.84 54.47 9.63 53.34Q8.41 52.20 8.41 50.03L8.41 50.03Q8.41 49.00 8.71 48.20Q9.00 47.40 9.54 46.84Q10.07 46.28 10.80 45.99Q11.54 45.69 12.41 45.69L12.41 45.69Q13.22 45.69 13.90 45.96Q14.58 46.23 15.08 46.72Q15.57 47.22 15.85 47.89Q16.13 48.57 16.13 49.38L16.13 49.38Q16.13 49.77 15.95 49.95Q15.77 50.12 15.45 50.15L15.45 50.15ZM12.39 46.86L12.39 46.86Q11.29 46.86 10.57 47.62Q9.85 48.39 9.81 49.81L9.81 49.81L14.76 49.13Q14.67 48.14 14.07 47.50Q13.47 46.86 12.39 46.86ZM22.07 46.89L22.07 46.89Q21.46 46.89 20.94 47.10Q20.42 47.31 20.04 47.71Q19.66 48.12 19.44 48.72Q19.23 49.32 19.23 50.10L19.23 50.10Q19.23 51.65 20.00 52.47Q20.78 53.28 22.07 53.28L22.07 53.28Q22.83 53.28 23.33 53.08Q23.84 52.87 24.23 52.60L24.23 52.60Q24.43 52.71 24.56 52.87Q24.68 53.03 24.68 53.27L24.68 53.27Q24.68 53.52 24.48 53.73Q24.29 53.95 23.94 54.11Q23.58 54.27 23.11 54.37Q22.63 54.47 22.07 54.47L22.07 54.47Q21.14 54.47 20.34 54.20Q19.55 53.93 18.98 53.39Q18.40 52.85 18.08 52.03Q17.75 51.21 17.75 50.10L17.75 50.10Q17.75 49.00 18.09 48.18Q18.44 47.36 19.01 46.80Q19.59 46.25 20.37 45.97Q21.15 45.69 22.04 45.69L22.04 45.69Q22.59 45.69 23.07 45.79Q23.55 45.89 23.89 46.07Q24.23 46.25 24.42 46.47Q24.61 46.70 24.61 46.93L24.61 46.93Q24.61 47.15 24.48 47.31Q24.36 47.47 24.16 47.56L24.16 47.56Q23.76 47.29 23.30 47.09Q22.83 46.89 22.07 46.89ZM28.30 54.20L28.30 54.20Q28.21 54.24 28.03 54.28Q27.85 54.33 27.63 54.33L27.63 54.33Q26.86 54.33 26.86 53.68L26.86 53.68L26.86 42.57Q26.95 42.54 27.14 42.49Q27.33 42.45 27.54 42.45L27.54 42.45Q28.30 42.45 28.30 43.10L28.30 43.10L28.30 46.34Q28.73 46.08 29.32 45.89Q29.90 45.69 30.64 45.69L30.64 45.69Q31.40 45.69 32.02 45.89Q32.64 46.08 33.09 46.49Q33.54 46.89 33.79 47.52Q34.04 48.14 34.04 48.96L34.04 48.96L34.04 54.20Q33.95 54.24 33.76 54.28Q33.57 54.33 33.38 54.33L33.38 54.33Q32.60 54.33 32.60 53.68L32.60 53.68L32.60 49.00Q32.60 47.92 32.01 47.40Q31.41 46.88 30.44 46.88L30.44 46.88Q29.81 46.88 29.26 47.10Q28.71 47.33 28.30 47.65L28.30 47.65L28.30 54.20ZM38.18 47.47L38.18 54.20Q38.09 54.24 37.91 54.28Q37.73 54.33 37.52 54.33L37.52 54.33Q36.74 54.33 36.74 53.68L36.74 53.68L36.74 47.58Q36.74 47.16 36.90 46.92Q37.05 46.68 37.41 46.44L37.41 46.44Q37.88 46.14 38.68 45.91Q39.48 45.69 40.49 45.69L40.49 45.69Q41.93 45.69 41.93 46.41L41.93 46.41Q41.93 46.59 41.87 46.74Q41.82 46.89 41.73 47.00L41.73 47.00Q41.55 46.97 41.26 46.93Q40.97 46.89 40.68 46.89L40.68 46.89Q39.86 46.89 39.23 47.07Q38.60 47.24 38.18 47.47L38.18 47.47ZM50.19 50.15L44.64 50.93Q45.13 53.28 47.74 53.28L47.74 53.28Q48.50 53.28 49.11 53.03Q49.72 52.78 50.08 52.49L50.08 52.49Q50.51 52.74 50.51 53.18L50.51 53.18Q50.51 53.43 50.29 53.66Q50.06 53.90 49.68 54.08Q49.29 54.26 48.78 54.36Q48.26 54.47 47.67 54.47L47.67 54.47Q45.58 54.47 44.37 53.34Q43.15 52.20 43.15 50.03L43.15 50.03Q43.15 49.00 43.45 48.20Q43.74 47.40 44.28 46.84Q44.81 46.28 45.54 45.99Q46.28 45.69 47.15 45.69L47.15 45.69Q47.96 45.69 48.64 45.96Q49.32 46.23 49.82 46.72Q50.31 47.22 50.59 47.89Q50.87 48.57 50.87 49.38L50.87 49.38Q50.87 49.77 50.69 49.95Q50.51 50.12 50.19 50.15L50.19 50.15ZM47.13 46.86L47.13 46.86Q46.03 46.86 45.31 47.62Q44.59 48.39 44.55 49.81L44.55 49.81L49.50 49.13Q49.41 48.14 48.81 47.50Q48.21 46.86 47.13 46.86ZM56.51 54.47L56.51 54.47Q55.88 54.47 55.32 54.33Q54.76 54.18 54.40 53.99L54.40 53.99L54.40 57.48Q54.31 57.52 54.13 57.56Q53.95 57.60 53.73 57.60L53.73 57.60Q52.96 57.60 52.96 56.94L52.96 56.94L52.96 47.43Q52.96 47.07 53.09 46.86Q53.21 46.64 53.61 46.41L53.61 46.41Q54.09 46.14 54.77 45.91Q55.44 45.69 56.31 45.69L56.31 45.69Q57.19 45.69 57.97 45.94Q58.76 46.19 59.32 46.72Q59.89 47.25 60.22 48.08Q60.56 48.91 60.56 50.06L60.56 50.06Q60.56 51.18 60.26 52.01Q59.96 52.83 59.42 53.38Q58.88 53.93 58.14 54.20Q57.39 54.47 56.51 54.47ZM56.31 53.28L56.31 53.28Q57.57 53.28 58.33 52.52Q59.10 51.75 59.10 50.06L59.10 50.06Q59.10 49.18 58.87 48.57Q58.65 47.96 58.26 47.58Q57.87 47.20 57.37 47.04Q56.87 46.88 56.31 46.88L56.31 46.88Q55.66 46.88 55.21 47.04Q54.76 47.20 54.40 47.40L54.40 47.40L54.40 52.71Q54.74 52.96 55.21 53.12Q55.68 53.28 56.31 53.28ZM62.79 51.20L62.79 45.96Q62.88 45.92 63.07 45.88Q63.26 45.83 63.47 45.83L63.47 45.83Q64.23 45.83 64.23 46.50L64.23 46.50L64.23 51.13Q64.23 52.29 64.84 52.79Q65.45 53.28 66.53 53.28L66.53 53.28Q67.25 53.28 67.76 53.13Q68.26 52.98 68.55 52.82L68.55 52.82L68.55 45.96Q68.64 45.92 68.83 45.88Q69.02 45.83 69.21 45.83L69.21 45.83Q69.99 45.83 69.99 46.50L69.99 46.50L69.99 52.76Q69.99 53.14 69.89 53.37Q69.79 53.59 69.41 53.81L69.41 53.81Q69.00 54.04 68.27 54.26Q67.54 54.47 66.51 54.47L66.51 54.47Q64.71 54.47 63.75 53.68Q62.79 52.89 62.79 51.20L62.79 51.20ZM76.40 45.69L76.40 45.69Q77.22 45.69 77.94 45.96Q78.66 46.23 79.20 46.77Q79.73 47.31 80.02 48.14Q80.32 48.96 80.32 50.08L80.32 50.08Q80.32 51.21 80.02 52.04Q79.71 52.87 79.16 53.41Q78.61 53.95 77.84 54.21Q77.06 54.47 76.14 54.47L76.14 54.47Q75.26 54.47 74.55 54.27Q73.84 54.06 73.39 53.79L73.39 53.79Q73.01 53.55 72.87 53.33Q72.72 53.10 72.72 52.73L72.72 52.73L72.72 42.57Q72.81 42.54 73.00 42.49Q73.19 42.45 73.41 42.45L73.41 42.45Q74.16 42.45 74.16 43.10L74.16 43.10L74.16 46.32Q74.56 46.07 75.11 45.88Q75.66 45.69 76.40 45.69ZM76.18 46.88L76.18 46.88Q75.55 46.88 75.04 47.10Q74.53 47.33 74.16 47.63L74.16 47.63L74.16 52.73Q74.44 52.92 74.95 53.10Q75.46 53.28 76.14 53.28L76.14 53.28Q76.76 53.28 77.25 53.10Q77.75 52.91 78.11 52.51Q78.47 52.11 78.66 51.51Q78.86 50.91 78.86 50.08L78.86 50.08Q78.86 49.25 78.66 48.64Q78.47 48.03 78.11 47.64Q77.75 47.25 77.25 47.07Q76.76 46.88 76.18 46.88ZM84.16 54.20L84.16 54.20Q84.06 54.24 83.89 54.28Q83.70 54.33 83.49 54.33L83.49 54.33Q82.72 54.33 82.72 53.68L82.72 53.68L82.72 42.57Q82.81 42.54 82.99 42.49Q83.18 42.45 83.38 42.45L83.38 42.45Q84.16 42.45 84.16 43.10L84.16 43.10L84.16 54.20ZM88.53 46.50L88.53 54.20Q88.44 54.24 88.26 54.28Q88.08 54.33 87.86 54.33L87.86 54.33Q87.09 54.33 87.09 53.68L87.09 53.68L87.09 45.96Q87.18 45.92 87.37 45.88Q87.56 45.83 87.77 45.83L87.77 45.83Q88.53 45.83 88.53 46.50L88.53 46.50ZM86.87 43.29L86.87 43.29Q86.87 42.92 87.13 42.66Q87.39 42.39 87.81 42.39L87.81 42.39Q88.22 42.39 88.47 42.66Q88.73 42.92 88.73 43.29L88.73 43.29Q88.73 43.67 88.47 43.93Q88.22 44.19 87.81 44.19L87.81 44.19Q87.39 44.19 87.13 43.93Q86.87 43.67 86.87 43.29ZM95.19 46.89L95.19 46.89Q94.58 46.89 94.05 47.10Q93.53 47.31 93.16 47.71Q92.78 48.12 92.56 48.72Q92.34 49.32 92.34 50.10L92.34 50.10Q92.34 51.65 93.12 52.47Q93.89 53.28 95.19 53.28L95.19 53.28Q95.94 53.28 96.45 53.08Q96.95 52.87 97.35 52.60L97.35 52.60Q97.55 52.71 97.67 52.87Q97.80 53.03 97.80 53.27L97.80 53.27Q97.80 53.52 97.60 53.73Q97.40 53.95 97.05 54.11Q96.70 54.27 96.22 54.37Q95.75 54.47 95.19 54.47L95.19 54.47Q94.25 54.47 93.46 54.20Q92.67 53.93 92.09 53.39Q91.52 52.85 91.19 52.03Q90.87 51.21 90.87 50.10L90.87 50.10Q90.87 49.00 91.21 48.18Q91.55 47.36 92.13 46.80Q92.70 46.25 93.49 45.97Q94.27 45.69 95.15 45.69L95.15 45.69Q95.71 45.69 96.19 45.79Q96.66 45.89 97.01 46.07Q97.35 46.25 97.54 46.47Q97.73 46.70 97.73 46.93L97.73 46.93Q97.73 47.15 97.60 47.31Q97.47 47.47 97.28 47.56L97.28 47.56Q96.88 47.29 96.41 47.09Q95.94 46.89 95.19 46.89Z"></path></svg>