<svg xmlns="http://www.w3.org/2000/svg" width="256" height="256" viewBox="0 0 100 100"><rect width="100" height="100" rx="20" fill="#9b9b9b"></rect><path fill="#fff" d="M7.98 57.34L7.98 57.34Q6.44 57.34 5.48 56.65Q4.53 55.97 4.53 54.39L4.53 54.39L4.53 43.94Q4.64 43.89 4.87 43.84Q5.10 43.78 5.36 43.78L5.36 43.78Q6.29 43.78 6.29 44.58L6.29 44.58L6.29 47.11L9.89 47.11Q9.96 47.22 10.03 47.40Q10.09 47.59 10.09 47.81L10.09 47.81Q10.09 48.56 9.43 48.56L9.43 48.56L6.29 48.56L6.29 54.28Q6.29 55.16 6.78 55.52Q7.28 55.88 8.18 55.88L8.18 55.88Q8.55 55.88 9.01 55.75Q9.48 55.62 9.78 55.44L9.78 55.44Q9.92 55.58 10.03 55.77Q10.14 55.97 10.14 56.24L10.14 56.24Q10.14 56.72 9.56 57.03Q8.99 57.34 7.98 57.34ZM20.72 52.06L13.94 53.00Q14.54 55.88 17.73 55.88L17.73 55.88Q18.65 55.88 19.40 55.58Q20.15 55.27 20.59 54.92L20.59 54.92Q21.11 55.22 21.11 55.75L21.11 55.75Q21.11 56.06 20.84 56.35Q20.56 56.63 20.09 56.85Q19.62 57.07 18.99 57.20Q18.36 57.34 17.64 57.34L17.64 57.34Q15.09 57.34 13.60 55.95Q12.12 54.56 12.12 51.90L12.12 51.90Q12.12 50.65 12.48 49.67Q12.84 48.69 13.49 48.01Q14.14 47.33 15.04 46.96Q15.94 46.60 17.00 46.60L17.00 46.60Q17.99 46.60 18.83 46.93Q19.66 47.26 20.27 47.87Q20.87 48.47 21.21 49.30Q21.55 50.12 21.55 51.11L21.55 51.11Q21.55 51.59 21.33 51.80Q21.11 52.01 20.72 52.06L20.72 52.06ZM16.98 48.03L16.98 48.03Q15.64 48.03 14.76 48.97Q13.88 49.90 13.83 51.64L13.83 51.64L19.88 50.80Q19.77 49.59 19.04 48.81Q18.30 48.03 16.98 48.03ZM28.81 48.07L28.81 48.07Q28.07 48.07 27.43 48.33Q26.79 48.58 26.33 49.08Q25.87 49.57 25.60 50.31Q25.34 51.04 25.34 51.99L25.34 51.99Q25.34 53.88 26.28 54.88Q27.23 55.88 28.81 55.88L28.81 55.88Q29.74 55.88 30.35 55.63Q30.97 55.38 31.45 55.05L31.45 55.05Q31.70 55.18 31.85 55.38Q32.00 55.58 32.00 55.86L32.00 55.86Q32.00 56.17 31.76 56.43Q31.52 56.70 31.09 56.90Q30.66 57.09 30.08 57.22Q29.50 57.34 28.81 57.34L28.81 57.34Q27.67 57.34 26.70 57.01Q25.73 56.68 25.03 56.02Q24.33 55.36 23.93 54.36Q23.53 53.35 23.53 51.99L23.53 51.99Q23.53 50.65 23.95 49.65Q24.37 48.65 25.07 47.96Q25.78 47.28 26.74 46.94Q27.69 46.60 28.77 46.60L28.77 46.60Q29.45 46.60 30.04 46.72Q30.62 46.84 31.04 47.06Q31.45 47.28 31.69 47.56Q31.92 47.83 31.92 48.12L31.92 48.12Q31.92 48.38 31.76 48.58Q31.61 48.78 31.37 48.89L31.37 48.89Q30.88 48.56 30.31 48.32Q29.74 48.07 28.81 48.07ZM36.43 57.01L36.43 57.01Q36.32 57.05 36.10 57.11Q35.88 57.16 35.61 57.16L35.61 57.16Q34.67 57.16 34.67 56.37L34.67 56.37L34.67 42.79Q34.78 42.75 35.01 42.70Q35.24 42.64 35.50 42.64L35.50 42.64Q36.43 42.64 36.43 43.43L36.43 43.43L36.43 47.39Q36.95 47.08 37.67 46.84Q38.38 46.60 39.29 46.60L39.29 46.60Q40.21 46.60 40.97 46.84Q41.73 47.08 42.28 47.58Q42.83 48.07 43.14 48.83Q43.44 49.59 43.44 50.60L43.44 50.60L43.44 57.01Q43.33 57.05 43.10 57.11Q42.87 57.16 42.63 57.16L42.63 57.16Q41.68 57.16 41.68 56.37L41.68 56.37L41.68 50.65Q41.68 49.33 40.96 48.69Q40.23 48.05 39.04 48.05L39.04 48.05Q38.27 48.05 37.60 48.33Q36.93 48.60 36.43 49.00L36.43 49.00L36.43 57.01ZM48.50 48.78L48.50 57.01Q48.39 57.05 48.17 57.11Q47.95 57.16 47.69 57.16L47.69 57.16Q46.74 57.16 46.74 56.37L46.74 56.37L46.74 48.91Q46.74 48.40 46.93 48.11Q47.12 47.81 47.56 47.52L47.56 47.52Q48.13 47.15 49.11 46.88Q50.09 46.60 51.32 46.60L51.32 46.60Q53.08 46.60 53.08 47.48L53.08 47.48Q53.08 47.70 53.01 47.89Q52.95 48.07 52.84 48.21L52.84 48.21Q52.62 48.16 52.27 48.12Q51.91 48.07 51.56 48.07L51.56 48.07Q50.55 48.07 49.78 48.28Q49.01 48.49 48.50 48.78L48.50 48.78ZM58.78 55.91L58.78 55.91Q59.70 55.91 60.31 55.72Q60.91 55.53 61.18 55.36L61.18 55.36L61.18 52.17L58.45 52.45Q57.30 52.56 56.75 52.97Q56.20 53.38 56.20 54.17L56.20 54.17Q56.20 55.00 56.84 55.46Q57.48 55.91 58.78 55.91ZM58.76 46.60L58.76 46.60Q60.67 46.60 61.79 47.46Q62.91 48.32 62.91 50.16L62.91 50.16L62.91 55.38Q62.91 55.86 62.73 56.12Q62.54 56.37 62.17 56.59L62.17 56.59Q61.64 56.90 60.77 57.13Q59.90 57.36 58.78 57.36L58.78 57.36Q56.71 57.36 55.58 56.54Q54.44 55.73 54.44 54.19L54.44 54.19Q54.44 52.74 55.39 52.00Q56.34 51.26 58.05 51.09L58.05 51.09L61.18 50.78L61.18 50.16Q61.18 49.06 60.52 48.56Q59.86 48.05 58.73 48.05L58.73 48.05Q57.81 48.05 57.00 48.32Q56.18 48.58 55.54 48.91L55.54 48.91Q55.37 48.76 55.23 48.56Q55.08 48.36 55.08 48.12L55.08 48.12Q55.08 47.81 55.24 47.61Q55.39 47.41 55.72 47.24L55.72 47.24Q56.31 46.93 57.08 46.77Q57.85 46.60 58.76 46.60ZM74.82 43.43L74.82 55.38Q74.82 55.82 74.63 56.06Q74.44 56.30 74.05 56.54L74.05 56.54Q73.61 56.83 72.79 57.08Q71.98 57.34 70.92 57.34L70.92 57.34Q69.73 57.34 68.74 57.03Q67.75 56.72 67.04 56.07Q66.32 55.42 65.94 54.42Q65.55 53.42 65.55 52.01L65.55 52.01Q65.55 50.58 65.95 49.56Q66.35 48.54 67.02 47.88Q67.69 47.22 68.60 46.91Q69.51 46.60 70.55 46.60L70.55 46.60Q71.25 46.60 71.91 46.78Q72.57 46.95 73.06 47.22L73.06 47.22L73.06 42.79Q73.17 42.75 73.40 42.70Q73.63 42.64 73.87 42.64L73.87 42.64Q74.82 42.64 74.82 43.43L74.82 43.43ZM73.06 55.31L73.06 48.80Q72.62 48.49 72.04 48.27Q71.47 48.05 70.72 48.05L70.72 48.05Q70.04 48.05 69.44 48.26Q68.83 48.47 68.37 48.94Q67.91 49.42 67.63 50.19Q67.36 50.96 67.36 52.06L67.36 52.06Q67.36 54.08 68.33 54.98Q69.29 55.88 70.90 55.88L70.90 55.88Q71.67 55.88 72.16 55.72Q72.66 55.55 73.06 55.31L73.06 55.31ZM81.79 55.91L81.79 55.91Q82.71 55.91 83.32 55.72Q83.92 55.53 84.19 55.36L84.19 55.36L84.19 52.17L81.46 52.45Q80.32 52.56 79.77 52.97Q79.22 53.38 79.22 54.17L79.22 54.17Q79.22 55.00 79.85 55.46Q80.49 55.91 81.79 55.91ZM81.77 46.60L81.77 46.60Q83.68 46.60 84.80 47.46Q85.93 48.32 85.93 50.16L85.93 50.16L85.93 55.38Q85.93 55.86 85.74 56.12Q85.55 56.37 85.18 56.59L85.18 56.59Q84.65 56.90 83.78 57.13Q82.91 57.36 81.79 57.36L81.79 57.36Q79.72 57.36 78.59 56.54Q77.46 55.73 77.46 54.19L77.46 54.19Q77.46 52.74 78.40 52.00Q79.35 51.26 81.06 51.09L81.06 51.09L84.19 50.78L84.19 50.16Q84.19 49.06 83.53 48.56Q82.87 48.05 81.75 48.05L81.75 48.05Q80.82 48.05 80.01 48.32Q79.19 48.58 78.56 48.91L78.56 48.91Q78.38 48.76 78.24 48.56Q78.09 48.36 78.09 48.12L78.09 48.12Q78.09 47.81 78.25 47.61Q78.40 47.41 78.73 47.24L78.73 47.24Q79.33 46.93 80.10 46.77Q80.87 46.60 81.77 46.60ZM90.90 48.78L90.90 57.01Q90.79 57.05 90.57 57.11Q90.35 57.16 90.08 57.16L90.08 57.16Q89.14 57.16 89.14 56.37L89.14 56.37L89.14 48.91Q89.14 48.40 89.32 48.11Q89.51 47.81 89.95 47.52L89.95 47.52Q90.52 47.15 91.50 46.88Q92.48 46.60 93.71 46.60L93.71 46.60Q95.47 46.60 95.47 47.48L95.47 47.48Q95.47 47.70 95.41 47.89Q95.34 48.07 95.23 48.21L95.23 48.21Q95.01 48.16 94.66 48.12Q94.31 48.07 93.96 48.07L93.96 48.07Q92.94 48.07 92.17 48.28Q91.40 48.49 90.90 48.78L90.90 48.78Z"></path></svg>