<svg xmlns="http://www.w3.org/2000/svg" width="256" height="256" viewBox="0 0 100 100"><rect width="100" height="100" rx="20" fill="#9b9b9b"></rect><path fill="#fff" d="M10.00 56.01L10.00 56.01Q8.74 56.01 7.96 55.45Q7.18 54.90 7.18 53.60L7.18 53.60L7.18 45.05Q7.27 45.01 7.46 44.97Q7.65 44.92 7.86 44.92L7.86 44.92Q8.62 44.92 8.62 45.57L8.62 45.57L8.62 47.64L11.57 47.64Q11.62 47.73 11.68 47.89Q11.73 48.04 11.73 48.22L11.73 48.22Q11.73 48.83 11.19 48.83L11.19 48.83L8.62 48.83L8.62 53.51Q8.62 54.23 9.02 54.53Q9.43 54.82 10.17 54.82L10.17 54.82Q10.47 54.82 10.85 54.72Q11.23 54.61 11.48 54.46L11.48 54.46Q11.59 54.57 11.68 54.73Q11.77 54.90 11.77 55.11L11.77 55.11Q11.77 55.51 11.30 55.76Q10.83 56.01 10.00 56.01ZM20.43 51.69L14.88 52.47Q15.37 54.82 17.98 54.82L17.98 54.82Q18.73 54.82 19.35 54.57Q19.96 54.32 20.32 54.03L20.32 54.03Q20.75 54.28 20.75 54.72L20.75 54.72Q20.75 54.97 20.52 55.20Q20.30 55.44 19.91 55.62Q19.53 55.80 19.01 55.90Q18.50 56.01 17.91 56.01L17.91 56.01Q15.82 56.01 14.60 54.88Q13.39 53.74 13.39 51.57L13.39 51.57Q13.39 50.54 13.68 49.74Q13.98 48.94 14.51 48.38Q15.04 47.82 15.78 47.53Q16.52 47.23 17.38 47.23L17.38 47.23Q18.19 47.23 18.88 47.50Q19.56 47.77 20.06 48.26Q20.55 48.76 20.83 49.43Q21.11 50.11 21.11 50.92L21.11 50.92Q21.11 51.31 20.93 51.49Q20.75 51.66 20.43 51.69L20.43 51.69ZM17.37 48.40L17.37 48.40Q16.27 48.40 15.55 49.16Q14.83 49.93 14.79 51.35L14.79 51.35L19.74 50.67Q19.65 49.68 19.05 49.04Q18.45 48.40 17.37 48.40ZM27.05 48.43L27.05 48.43Q26.44 48.43 25.92 48.64Q25.39 48.85 25.02 49.25Q24.64 49.66 24.42 50.26Q24.21 50.86 24.21 51.64L24.21 51.64Q24.21 53.19 24.98 54.01Q25.75 54.82 27.05 54.82L27.05 54.82Q27.81 54.82 28.31 54.62Q28.81 54.41 29.21 54.14L29.21 54.14Q29.41 54.25 29.53 54.41Q29.66 54.57 29.66 54.81L29.66 54.81Q29.66 55.06 29.46 55.27Q29.26 55.49 28.91 55.65Q28.56 55.81 28.09 55.91Q27.61 56.01 27.05 56.01L27.05 56.01Q26.11 56.01 25.32 55.74Q24.53 55.47 23.95 54.93Q23.38 54.39 23.05 53.57Q22.73 52.75 22.73 51.64L22.73 51.64Q22.73 50.54 23.07 49.72Q23.41 48.90 23.99 48.34Q24.57 47.79 25.35 47.51Q26.13 47.23 27.01 47.23L27.01 47.23Q27.57 47.23 28.05 47.33Q28.53 47.43 28.87 47.61Q29.21 47.79 29.40 48.01Q29.59 48.24 29.59 48.47L29.59 48.47Q29.59 48.69 29.46 48.85Q29.34 49.01 29.14 49.10L29.14 49.10Q28.74 48.83 28.27 48.63Q27.81 48.43 27.05 48.43ZM33.28 55.74L33.28 55.74Q33.19 55.78 33.01 55.82Q32.83 55.87 32.61 55.87L32.61 55.87Q31.84 55.87 31.84 55.22L31.84 55.22L31.84 44.11Q31.93 44.08 32.12 44.03Q32.31 43.99 32.52 43.99L32.52 43.99Q33.28 43.99 33.28 44.64L33.28 44.64L33.28 47.88Q33.71 47.62 34.30 47.43Q34.88 47.23 35.62 47.23L35.62 47.23Q36.37 47.23 36.99 47.43Q37.62 47.62 38.07 48.03Q38.52 48.43 38.77 49.06Q39.02 49.68 39.02 50.50L39.02 50.50L39.02 55.74Q38.93 55.78 38.74 55.82Q38.55 55.87 38.35 55.87L38.35 55.87Q37.58 55.87 37.58 55.22L37.58 55.22L37.58 50.54Q37.58 49.46 36.99 48.94Q36.39 48.42 35.42 48.42L35.42 48.42Q34.79 48.42 34.24 48.64Q33.69 48.87 33.28 49.19L33.28 49.19L33.28 55.74ZM45.57 48.43L45.57 48.43Q44.96 48.43 44.44 48.64Q43.92 48.85 43.54 49.25Q43.16 49.66 42.94 50.26Q42.73 50.86 42.73 51.64L42.73 51.64Q42.73 53.19 43.50 54.01Q44.28 54.82 45.57 54.82L45.57 54.82Q46.33 54.82 46.83 54.62Q47.34 54.41 47.73 54.14L47.73 54.14Q47.93 54.25 48.06 54.41Q48.18 54.57 48.18 54.81L48.18 54.81Q48.18 55.06 47.98 55.27Q47.79 55.49 47.43 55.65Q47.08 55.81 46.61 55.91Q46.13 56.01 45.57 56.01L45.57 56.01Q44.64 56.01 43.84 55.74Q43.05 55.47 42.48 54.93Q41.90 54.39 41.58 53.57Q41.25 52.75 41.25 51.64L41.25 51.64Q41.25 50.54 41.59 49.72Q41.94 48.90 42.51 48.34Q43.09 47.79 43.87 47.51Q44.65 47.23 45.54 47.23L45.54 47.23Q46.09 47.23 46.57 47.33Q47.05 47.43 47.39 47.61Q47.73 47.79 47.92 48.01Q48.11 48.24 48.11 48.47L48.11 48.47Q48.11 48.69 47.98 48.85Q47.86 49.01 47.66 49.10L47.66 49.10Q47.26 48.83 46.80 48.63Q46.33 48.43 45.57 48.43ZM51.76 49.01L51.76 55.74Q51.67 55.78 51.49 55.82Q51.31 55.87 51.10 55.87L51.10 55.87Q50.32 55.87 50.32 55.22L50.32 55.22L50.32 49.12Q50.32 48.70 50.48 48.46Q50.63 48.22 50.99 47.98L50.99 47.98Q51.46 47.68 52.26 47.45Q53.06 47.23 54.07 47.23L54.07 47.23Q55.51 47.23 55.51 47.95L55.51 47.95Q55.51 48.13 55.45 48.28Q55.40 48.43 55.31 48.54L55.31 48.54Q55.13 48.51 54.84 48.47Q54.55 48.43 54.27 48.43L54.27 48.43Q53.44 48.43 52.81 48.61Q52.18 48.78 51.76 49.01L51.76 49.01ZM57.20 52.74L57.20 47.50Q57.29 47.46 57.48 47.42Q57.67 47.37 57.88 47.37L57.88 47.37Q58.64 47.37 58.64 48.04L58.64 48.04L58.64 52.66Q58.64 53.83 59.25 54.33Q59.86 54.82 60.94 54.82L60.94 54.82Q61.66 54.82 62.17 54.67Q62.67 54.52 62.96 54.36L62.96 54.36L62.96 47.50Q63.05 47.46 63.24 47.42Q63.43 47.37 63.63 47.37L63.63 47.37Q64.40 47.37 64.40 48.04L64.40 48.04L64.40 54.30Q64.40 54.68 64.30 54.91Q64.20 55.13 63.82 55.35L63.82 55.35Q63.41 55.58 62.68 55.80Q61.95 56.01 60.93 56.01L60.93 56.01Q59.13 56.01 58.16 55.22Q57.20 54.43 57.20 52.74L57.20 52.74ZM72.86 50.36L72.86 50.36Q72.86 49.35 72.29 48.88Q71.73 48.42 70.77 48.42L70.77 48.42Q70.05 48.42 69.49 48.60Q68.94 48.78 68.54 49.01L68.54 49.01L68.54 55.74Q68.45 55.78 68.27 55.82Q68.09 55.87 67.87 55.87L67.87 55.87Q67.10 55.87 67.10 55.22L67.10 55.22L67.10 49.08Q67.10 48.70 67.25 48.46Q67.41 48.22 67.78 47.98L67.78 47.98Q68.25 47.70 69.03 47.46Q69.80 47.23 70.77 47.23L70.77 47.23Q72.41 47.23 73.36 47.97Q74.30 48.70 74.30 50.29L74.30 50.29L74.30 55.74Q74.21 55.78 74.02 55.82Q73.83 55.87 73.63 55.87L73.63 55.87Q72.86 55.87 72.86 55.22L72.86 55.22L72.86 50.36ZM80.85 48.43L80.85 48.43Q80.24 48.43 79.72 48.64Q79.20 48.85 78.82 49.25Q78.44 49.66 78.22 50.26Q78.01 50.86 78.01 51.64L78.01 51.64Q78.01 53.19 78.78 54.01Q79.56 54.82 80.85 54.82L80.85 54.82Q81.61 54.82 82.11 54.62Q82.62 54.41 83.01 54.14L83.01 54.14Q83.21 54.25 83.34 54.41Q83.46 54.57 83.46 54.81L83.46 54.81Q83.46 55.06 83.26 55.27Q83.07 55.49 82.72 55.65Q82.36 55.81 81.89 55.91Q81.41 56.01 80.85 56.01L80.85 56.01Q79.92 56.01 79.12 55.74Q78.33 55.47 77.76 54.93Q77.18 54.39 76.86 53.57Q76.53 52.75 76.53 51.64L76.53 51.64Q76.53 50.54 76.87 49.72Q77.22 48.90 77.79 48.34Q78.37 47.79 79.15 47.51Q79.93 47.23 80.82 47.23L80.82 47.23Q81.37 47.23 81.85 47.33Q82.33 47.43 82.67 47.61Q83.01 47.79 83.20 48.01Q83.39 48.24 83.39 48.47L83.39 48.47Q83.39 48.69 83.26 48.85Q83.14 49.01 82.94 49.10L82.94 49.10Q82.54 48.83 82.08 48.63Q81.61 48.43 80.85 48.43ZM87.08 55.74L87.08 55.74Q86.99 55.78 86.81 55.82Q86.63 55.87 86.41 55.87L86.41 55.87Q85.64 55.87 85.64 55.22L85.64 55.22L85.64 44.11Q85.73 44.08 85.92 44.03Q86.11 43.99 86.32 43.99L86.32 43.99Q87.08 43.99 87.08 44.64L87.08 44.64L87.08 47.88Q87.51 47.62 88.10 47.43Q88.68 47.23 89.42 47.23L89.42 47.23Q90.18 47.23 90.80 47.43Q91.42 47.62 91.87 48.03Q92.32 48.43 92.57 49.06Q92.82 49.68 92.82 50.50L92.82 50.50L92.82 55.74Q92.73 55.78 92.54 55.82Q92.35 55.87 92.16 55.87L92.16 55.87Q91.38 55.87 91.38 55.22L91.38 55.22L91.38 50.54Q91.38 49.46 90.79 48.94Q90.19 48.42 89.22 48.42L89.22 48.42Q88.59 48.42 88.04 48.64Q87.49 48.87 87.08 49.19L87.08 49.19L87.08 55.74Z"></path></svg>