<svg xmlns="http://www.w3.org/2000/svg" width="256" height="256" viewBox="0 0 100 100"><rect width="100" height="100" rx="20" fill="#9b9b9b"></rect><path fill="#fff" d="M13.78 56.68L13.78 56.68Q12.38 56.68 11.51 56.06Q10.64 55.44 10.64 54.00L10.64 54.00L10.64 44.50Q10.74 44.46 10.95 44.41Q11.16 44.36 11.40 44.36L11.40 44.36Q12.24 44.36 12.24 45.08L12.24 45.08L12.24 47.38L15.52 47.38Q15.58 47.48 15.64 47.65Q15.70 47.82 15.70 48.02L15.70 48.02Q15.70 48.70 15.10 48.70L15.10 48.70L12.24 48.70L12.24 53.90Q12.24 54.70 12.69 55.03Q13.14 55.36 13.96 55.36L13.96 55.36Q14.30 55.36 14.72 55.24Q15.14 55.12 15.42 54.96L15.42 54.96Q15.54 55.08 15.64 55.26Q15.74 55.44 15.74 55.68L15.74 55.68Q15.74 56.12 15.22 56.40Q14.70 56.68 13.78 56.68ZM19.70 56.38L19.70 56.38Q19.60 56.42 19.40 56.47Q19.20 56.52 18.96 56.52L18.96 56.52Q18.10 56.52 18.10 55.80L18.10 55.80L18.10 43.46Q18.20 43.42 18.41 43.37Q18.62 43.32 18.86 43.32L18.86 43.32Q19.70 43.32 19.70 44.04L19.70 44.04L19.70 47.64Q20.18 47.36 20.83 47.14Q21.48 46.92 22.30 46.92L22.30 46.92Q23.14 46.92 23.83 47.14Q24.52 47.36 25.02 47.81Q25.52 48.26 25.80 48.95Q26.08 49.64 26.08 50.56L26.08 50.56L26.08 56.38Q25.98 56.42 25.77 56.47Q25.56 56.52 25.34 56.52L25.34 56.52Q24.48 56.52 24.48 55.80L24.48 55.80L24.48 50.60Q24.48 49.40 23.82 48.82Q23.16 48.24 22.08 48.24L22.08 48.24Q21.38 48.24 20.77 48.49Q20.16 48.74 19.70 49.10L19.70 49.10L19.70 56.38ZM36.38 51.88L30.22 52.74Q30.76 55.36 33.66 55.36L33.66 55.36Q34.50 55.36 35.18 55.08Q35.86 54.80 36.26 54.48L36.26 54.48Q36.74 54.76 36.74 55.24L36.74 55.24Q36.74 55.52 36.49 55.78Q36.24 56.04 35.81 56.24Q35.38 56.44 34.81 56.56Q34.24 56.68 33.58 56.68L33.58 56.68Q31.26 56.68 29.91 55.42Q28.56 54.16 28.56 51.74L28.56 51.74Q28.56 50.60 28.89 49.71Q29.22 48.82 29.81 48.20Q30.40 47.58 31.22 47.25Q32.04 46.92 33.00 46.92L33.00 46.92Q33.90 46.92 34.66 47.22Q35.42 47.52 35.97 48.07Q36.52 48.62 36.83 49.37Q37.14 50.12 37.14 51.02L37.14 51.02Q37.14 51.46 36.94 51.65Q36.74 51.84 36.38 51.88L36.38 51.88ZM32.98 48.22L32.98 48.22Q31.76 48.22 30.96 49.07Q30.16 49.92 30.12 51.50L30.12 51.50L35.62 50.74Q35.52 49.64 34.85 48.93Q34.18 48.22 32.98 48.22ZM45.98 53.96L45.98 53.96Q45.98 55.24 45.04 55.96Q44.10 56.68 42.32 56.68L42.32 56.68Q41.56 56.68 40.92 56.55Q40.28 56.42 39.83 56.21Q39.38 56.00 39.13 55.73Q38.88 55.46 38.88 55.18L38.88 55.18Q38.88 54.94 39.01 54.72Q39.14 54.50 39.40 54.34L39.40 54.34Q39.94 54.74 40.66 55.05Q41.38 55.36 42.30 55.36L42.30 55.36Q44.38 55.36 44.38 53.96L44.38 53.96Q44.38 52.82 43.00 52.48L43.00 52.48L41.34 52.04Q40.12 51.72 39.56 51.11Q39.00 50.50 39.00 49.54L39.00 49.54Q39.00 49.02 39.21 48.54Q39.42 48.06 39.86 47.70Q40.30 47.34 40.95 47.13Q41.60 46.92 42.48 46.92L42.48 46.92Q43.88 46.92 44.74 47.33Q45.60 47.74 45.60 48.28L45.60 48.28Q45.60 48.54 45.47 48.74Q45.34 48.94 45.12 49.04L45.12 49.04Q44.76 48.80 44.10 48.52Q43.44 48.24 42.54 48.24L42.54 48.24Q41.64 48.24 41.11 48.58Q40.58 48.92 40.58 49.54L40.58 49.54Q40.58 50.00 40.88 50.32Q41.18 50.64 41.88 50.80L41.88 50.80L43.26 51.14Q44.62 51.48 45.30 52.15Q45.98 52.82 45.98 53.96ZM51.56 56.68L51.56 56.68Q50.16 56.68 49.29 56.06Q48.42 55.44 48.42 54.00L48.42 54.00L48.42 44.50Q48.52 44.46 48.73 44.41Q48.94 44.36 49.18 44.36L49.18 44.36Q50.02 44.36 50.02 45.08L50.02 45.08L50.02 47.38L53.30 47.38Q53.36 47.48 53.42 47.65Q53.48 47.82 53.48 48.02L53.48 48.02Q53.48 48.70 52.88 48.70L52.88 48.70L50.02 48.70L50.02 53.90Q50.02 54.70 50.47 55.03Q50.92 55.36 51.74 55.36L51.74 55.36Q52.08 55.36 52.50 55.24Q52.92 55.12 53.20 54.96L53.20 54.96Q53.32 55.08 53.42 55.26Q53.52 55.44 53.52 55.68L53.52 55.68Q53.52 56.12 53.00 56.40Q52.48 56.68 51.56 56.68ZM57.44 48.90L57.44 56.38Q57.34 56.42 57.14 56.47Q56.94 56.52 56.70 56.52L56.70 56.52Q55.84 56.52 55.84 55.80L55.84 55.80L55.84 49.02Q55.84 48.56 56.01 48.29Q56.18 48.02 56.58 47.76L56.58 47.76Q57.10 47.42 57.99 47.17Q58.88 46.92 60.00 46.92L60.00 46.92Q61.60 46.92 61.60 47.72L61.60 47.72Q61.60 47.92 61.54 48.09Q61.48 48.26 61.38 48.38L61.38 48.38Q61.18 48.34 60.86 48.30Q60.54 48.26 60.22 48.26L60.22 48.26Q59.30 48.26 58.60 48.45Q57.90 48.64 57.44 48.90L57.44 48.90ZM70.78 51.88L64.62 52.74Q65.16 55.36 68.06 55.36L68.06 55.36Q68.90 55.36 69.58 55.08Q70.26 54.80 70.66 54.48L70.66 54.48Q71.14 54.76 71.14 55.24L71.14 55.24Q71.14 55.52 70.89 55.78Q70.64 56.04 70.21 56.24Q69.78 56.44 69.21 56.56Q68.64 56.68 67.98 56.68L67.98 56.68Q65.66 56.68 64.31 55.42Q62.96 54.16 62.96 51.74L62.96 51.74Q62.96 50.60 63.29 49.71Q63.62 48.82 64.21 48.20Q64.80 47.58 65.62 47.25Q66.44 46.92 67.40 46.92L67.40 46.92Q68.30 46.92 69.06 47.22Q69.82 47.52 70.37 48.07Q70.92 48.62 71.23 49.37Q71.54 50.12 71.54 51.02L71.54 51.02Q71.54 51.46 71.34 51.65Q71.14 51.84 70.78 51.88L70.78 51.88ZM67.38 48.22L67.38 48.22Q66.16 48.22 65.36 49.07Q64.56 49.92 64.52 51.50L64.52 51.50L70.02 50.74Q69.92 49.64 69.25 48.93Q68.58 48.22 67.38 48.22ZM81.16 51.88L75.00 52.74Q75.54 55.36 78.44 55.36L78.44 55.36Q79.28 55.36 79.96 55.08Q80.64 54.80 81.04 54.48L81.04 54.48Q81.52 54.76 81.52 55.24L81.52 55.24Q81.52 55.52 81.27 55.78Q81.02 56.04 80.59 56.24Q80.16 56.44 79.59 56.56Q79.02 56.68 78.36 56.68L78.36 56.68Q76.04 56.68 74.69 55.42Q73.34 54.16 73.34 51.74L73.34 51.74Q73.34 50.60 73.67 49.71Q74.00 48.82 74.59 48.20Q75.18 47.58 76.00 47.25Q76.82 46.92 77.78 46.92L77.78 46.92Q78.68 46.92 79.44 47.22Q80.20 47.52 80.75 48.07Q81.30 48.62 81.61 49.37Q81.92 50.12 81.92 51.02L81.92 51.02Q81.92 51.46 81.72 51.65Q81.52 51.84 81.16 51.88L81.16 51.88ZM77.76 48.22L77.76 48.22Q76.54 48.22 75.74 49.07Q74.94 49.92 74.90 51.50L74.90 51.50L80.40 50.74Q80.30 49.64 79.63 48.93Q78.96 48.22 77.76 48.22ZM87.40 56.68L87.40 56.68Q86.00 56.68 85.13 56.06Q84.26 55.44 84.26 54.00L84.26 54.00L84.26 44.50Q84.36 44.46 84.57 44.41Q84.78 44.36 85.02 44.36L85.02 44.36Q85.86 44.36 85.86 45.08L85.86 45.08L85.86 47.38L89.14 47.38Q89.20 47.48 89.26 47.65Q89.32 47.82 89.32 48.02L89.32 48.02Q89.32 48.70 88.72 48.70L88.72 48.70L85.86 48.70L85.86 53.90Q85.86 54.70 86.31 55.03Q86.76 55.36 87.58 55.36L87.58 55.36Q87.92 55.36 88.34 55.24Q88.76 55.12 89.04 54.96L89.04 54.96Q89.16 55.08 89.26 55.26Q89.36 55.44 89.36 55.68L89.36 55.68Q89.36 56.12 88.84 56.40Q88.32 56.68 87.40 56.68Z"></path></svg>