<svg xmlns="http://www.w3.org/2000/svg" width="256" height="256" viewBox="0 0 100 100"><rect width="100" height="100" rx="20" fill="#9b9b9b"></rect><path fill="#fff" d="M8.49 54.82L8.49 54.82Q7.09 54.82 6.22 54.20Q5.35 53.58 5.35 52.14L5.35 52.14L5.35 42.64Q5.45 42.60 5.66 42.55Q5.87 42.50 6.11 42.50L6.11 42.50Q6.95 42.50 6.95 43.22L6.95 43.22L6.95 45.52L10.23 45.52Q10.29 45.62 10.35 45.79Q10.41 45.96 10.41 46.16L10.41 46.16Q10.41 46.84 9.81 46.84L9.81 46.84L6.95 46.84L6.95 52.04Q6.95 52.84 7.40 53.17Q7.85 53.50 8.67 53.50L8.67 53.50Q9.01 53.50 9.43 53.38Q9.85 53.26 10.13 53.10L10.13 53.10Q10.25 53.22 10.35 53.40Q10.45 53.58 10.45 53.82L10.45 53.82Q10.45 54.26 9.93 54.54Q9.41 54.82 8.49 54.82ZM21.35 49.94L21.35 49.94Q21.35 51.06 21.03 51.96Q20.71 52.86 20.12 53.50Q19.53 54.14 18.69 54.48Q17.85 54.82 16.81 54.82L16.81 54.82Q15.77 54.82 14.93 54.48Q14.09 54.14 13.49 53.50Q12.89 52.86 12.57 51.96Q12.25 51.06 12.25 49.94L12.25 49.94Q12.25 48.82 12.58 47.92Q12.91 47.02 13.51 46.38Q14.11 45.74 14.95 45.40Q15.79 45.06 16.81 45.06L16.81 45.06Q17.83 45.06 18.67 45.40Q19.51 45.74 20.10 46.38Q20.69 47.02 21.02 47.92Q21.35 48.82 21.35 49.94ZM16.81 46.38L16.81 46.38Q15.45 46.38 14.67 47.32Q13.89 48.26 13.89 49.94L13.89 49.94Q13.89 51.64 14.66 52.57Q15.43 53.50 16.81 53.50L16.81 53.50Q18.19 53.50 18.95 52.56Q19.71 51.62 19.71 49.94L19.71 49.94Q19.71 48.26 18.94 47.32Q18.17 46.38 16.81 46.38ZM35.55 48.28L35.55 48.28Q35.55 47.30 34.99 46.84Q34.43 46.38 33.49 46.38L33.49 46.38Q32.19 46.38 31.17 47.30L31.17 47.30Q31.29 47.70 31.29 48.16L31.29 48.16L31.29 54.52Q31.19 54.56 30.98 54.61Q30.77 54.66 30.55 54.66L30.55 54.66Q29.69 54.66 29.69 53.94L29.69 53.94L29.69 48.28Q29.69 47.30 29.13 46.84Q28.57 46.38 27.61 46.38L27.61 46.38Q26.97 46.38 26.40 46.58Q25.83 46.78 25.43 47.04L25.43 47.04L25.43 54.52Q25.33 54.56 25.13 54.61Q24.93 54.66 24.69 54.66L24.69 54.66Q23.83 54.66 23.83 53.94L23.83 53.94L23.83 47.12Q23.83 46.72 24 46.45Q24.17 46.18 24.59 45.90L24.59 45.90Q25.13 45.56 25.96 45.31Q26.79 45.06 27.63 45.06L27.63 45.06Q28.61 45.06 29.37 45.35Q30.13 45.64 30.53 46.14L30.53 46.14Q31.05 45.68 31.83 45.37Q32.61 45.06 33.61 45.06L33.61 45.06Q35.23 45.06 36.19 45.83Q37.15 46.60 37.15 48.20L37.15 48.20L37.15 54.52Q37.05 54.56 36.84 54.61Q36.63 54.66 36.41 54.66L36.41 54.66Q35.55 54.66 35.55 53.94L35.55 53.94L35.55 48.28ZM46.67 52.10L46.67 52.10Q46.67 53.38 45.73 54.10Q44.79 54.82 43.01 54.82L43.01 54.82Q42.25 54.82 41.61 54.69Q40.97 54.56 40.52 54.35Q40.07 54.14 39.82 53.87Q39.57 53.60 39.57 53.32L39.57 53.32Q39.57 53.08 39.70 52.86Q39.83 52.64 40.09 52.48L40.09 52.48Q40.63 52.88 41.35 53.19Q42.07 53.50 42.99 53.50L42.99 53.50Q45.07 53.50 45.07 52.10L45.07 52.10Q45.07 50.96 43.69 50.62L43.69 50.62L42.03 50.18Q40.81 49.86 40.25 49.25Q39.69 48.64 39.69 47.68L39.69 47.68Q39.69 47.16 39.90 46.68Q40.11 46.20 40.55 45.84Q40.99 45.48 41.64 45.27Q42.29 45.06 43.17 45.06L43.17 45.06Q44.57 45.06 45.43 45.47Q46.29 45.88 46.29 46.42L46.29 46.42Q46.29 46.68 46.16 46.88Q46.03 47.08 45.81 47.18L45.81 47.18Q45.45 46.94 44.79 46.66Q44.13 46.38 43.23 46.38L43.23 46.38Q42.33 46.38 41.80 46.72Q41.27 47.06 41.27 47.68L41.27 47.68Q41.27 48.14 41.57 48.46Q41.87 48.78 42.57 48.94L42.57 48.94L43.95 49.28Q45.31 49.62 45.99 50.29Q46.67 50.96 46.67 52.10ZM55.27 54.86L55.27 53.60Q54.93 53.88 54.34 54.08Q53.75 54.28 52.93 54.28L52.93 54.28Q52.05 54.28 51.27 54.03Q50.49 53.78 49.90 53.23Q49.31 52.68 48.96 51.80Q48.61 50.92 48.61 49.66L48.61 49.66Q48.61 48.52 48.95 47.66Q49.29 46.80 49.90 46.22Q50.51 45.64 51.35 45.35Q52.19 45.06 53.21 45.06L53.21 45.06Q54.13 45.06 54.90 45.29Q55.67 45.52 56.19 45.86L56.19 45.86Q56.49 46.06 56.68 46.31Q56.87 46.56 56.87 46.92L56.87 46.92L56.87 54.96Q56.87 55.96 56.54 56.65Q56.21 57.34 55.62 57.77Q55.03 58.20 54.23 58.40Q53.43 58.60 52.51 58.60L52.51 58.60Q51.49 58.60 50.78 58.39Q50.07 58.18 49.81 58.02L49.81 58.02Q49.21 57.68 49.21 57.16L49.21 57.16Q49.21 56.88 49.34 56.69Q49.47 56.50 49.67 56.40L49.67 56.40Q50.09 56.72 50.85 56.99Q51.61 57.26 52.51 57.26L52.51 57.26Q53.85 57.26 54.56 56.69Q55.27 56.12 55.27 54.86L55.27 54.86ZM53.11 52.96L53.11 52.96Q53.91 52.96 54.42 52.71Q54.93 52.46 55.27 52.14L55.27 52.14L55.27 46.94Q54.93 46.72 54.42 46.55Q53.91 46.38 53.21 46.38L53.21 46.38Q51.85 46.38 51.04 47.20Q50.23 48.02 50.23 49.64L50.23 49.64Q50.23 50.54 50.45 51.17Q50.67 51.80 51.06 52.20Q51.45 52.60 51.98 52.78Q52.51 52.96 53.11 52.96ZM59.83 51.18L59.83 45.36Q59.93 45.32 60.14 45.27Q60.35 45.22 60.59 45.22L60.59 45.22Q61.43 45.22 61.43 45.96L61.43 45.96L61.43 51.10Q61.43 52.40 62.11 52.95Q62.79 53.50 63.99 53.50L63.99 53.50Q64.79 53.50 65.35 53.33Q65.91 53.16 66.23 52.98L66.23 52.98L66.23 45.36Q66.33 45.32 66.54 45.27Q66.75 45.22 66.97 45.22L66.97 45.22Q67.83 45.22 67.83 45.96L67.83 45.96L67.83 52.92Q67.83 53.34 67.72 53.59Q67.61 53.84 67.19 54.08L67.19 54.08Q66.73 54.34 65.92 54.58Q65.11 54.82 63.97 54.82L63.97 54.82Q61.97 54.82 60.90 53.94Q59.83 53.06 59.83 51.18L59.83 51.18ZM72.53 45.96L72.53 54.52Q72.43 54.56 72.23 54.61Q72.03 54.66 71.79 54.66L71.79 54.66Q70.93 54.66 70.93 53.94L70.93 53.94L70.93 45.36Q71.03 45.32 71.24 45.27Q71.45 45.22 71.69 45.22L71.69 45.22Q72.53 45.22 72.53 45.96L72.53 45.96ZM70.69 42.40L70.69 42.40Q70.69 41.98 70.98 41.69Q71.27 41.40 71.73 41.40L71.73 41.40Q72.19 41.40 72.47 41.69Q72.75 41.98 72.75 42.40L72.75 42.40Q72.75 42.82 72.47 43.11Q72.19 43.40 71.73 43.40L71.73 43.40Q71.27 43.40 70.98 43.11Q70.69 42.82 70.69 42.40ZM83.55 42.18L83.55 53.04Q83.55 53.44 83.38 53.66Q83.21 53.88 82.85 54.10L82.85 54.10Q82.45 54.36 81.71 54.59Q80.97 54.82 80.01 54.82L80.01 54.82Q78.93 54.82 78.03 54.54Q77.13 54.26 76.48 53.67Q75.83 53.08 75.48 52.17Q75.13 51.26 75.13 49.98L75.13 49.98Q75.13 48.68 75.49 47.75Q75.85 46.82 76.46 46.22Q77.07 45.62 77.90 45.34Q78.73 45.06 79.67 45.06L79.67 45.06Q80.31 45.06 80.91 45.22Q81.51 45.38 81.95 45.62L81.95 45.62L81.95 41.60Q82.05 41.56 82.26 41.51Q82.47 41.46 82.69 41.46L82.69 41.46Q83.55 41.46 83.55 42.18L83.55 42.18ZM81.95 52.98L81.95 47.06Q81.55 46.78 81.03 46.58Q80.51 46.38 79.83 46.38L79.83 46.38Q79.21 46.38 78.66 46.57Q78.11 46.76 77.69 47.19Q77.27 47.62 77.02 48.32Q76.77 49.02 76.77 50.02L76.77 50.02Q76.77 51.86 77.65 52.68Q78.53 53.50 79.99 53.50L79.99 53.50Q80.69 53.50 81.14 53.35Q81.59 53.20 81.95 52.98L81.95 52.98ZM93.89 50.02L87.73 50.88Q88.27 53.50 91.17 53.50L91.17 53.50Q92.01 53.50 92.69 53.22Q93.37 52.94 93.77 52.62L93.77 52.62Q94.25 52.90 94.25 53.38L94.25 53.38Q94.25 53.66 94 53.92Q93.75 54.18 93.32 54.38Q92.89 54.58 92.32 54.70Q91.75 54.82 91.09 54.82L91.09 54.82Q88.77 54.82 87.42 53.56Q86.07 52.30 86.07 49.88L86.07 49.88Q86.07 48.74 86.40 47.85Q86.73 46.96 87.32 46.34Q87.91 45.72 88.73 45.39Q89.55 45.06 90.51 45.06L90.51 45.06Q91.41 45.06 92.17 45.36Q92.93 45.66 93.48 46.21Q94.03 46.76 94.34 47.51Q94.65 48.26 94.65 49.16L94.65 49.16Q94.65 49.60 94.45 49.79Q94.25 49.98 93.89 50.02L93.89 50.02ZM90.49 46.36L90.49 46.36Q89.27 46.36 88.47 47.21Q87.67 48.06 87.63 49.64L87.63 49.64L93.13 48.88Q93.03 47.78 92.36 47.07Q91.69 46.36 90.49 46.36Z"></path></svg>