<svg xmlns="http://www.w3.org/2000/svg" width="256" height="256" viewBox="0 0 100 100"><rect width="100" height="100" rx="20" fill="#9b9b9b"></rect><path fill="#fff" d="M3.03 53.18L3.03 47.36Q3.13 47.32 3.34 47.27Q3.55 47.22 3.79 47.22L3.79 47.22Q4.63 47.22 4.63 47.96L4.63 47.96L4.63 53.10Q4.63 54.40 5.31 54.95Q5.99 55.50 7.19 55.50L7.19 55.50Q7.99 55.50 8.55 55.33Q9.11 55.16 9.43 54.98L9.43 54.98L9.43 47.36Q9.53 47.32 9.74 47.27Q9.95 47.22 10.17 47.22L10.17 47.22Q11.03 47.22 11.03 47.96L11.03 47.96L11.03 54.92Q11.03 55.34 10.92 55.59Q10.81 55.84 10.39 56.08L10.39 56.08Q9.93 56.34 9.12 56.58Q8.31 56.82 7.17 56.82L7.17 56.82Q5.17 56.82 4.10 55.94Q3.03 55.06 3.03 53.18L3.03 53.18ZM17.33 55.52L17.33 55.52Q18.17 55.52 18.72 55.35Q19.27 55.18 19.51 55.02L19.51 55.02L19.51 52.12L17.03 52.38Q15.99 52.48 15.49 52.85Q14.99 53.22 14.99 53.94L14.99 53.94Q14.99 54.70 15.57 55.11Q16.15 55.52 17.33 55.52ZM17.31 47.06L17.31 47.06Q19.05 47.06 20.07 47.84Q21.09 48.62 21.09 50.30L21.09 50.30L21.09 55.04Q21.09 55.48 20.92 55.71Q20.75 55.94 20.41 56.14L20.41 56.14Q19.93 56.42 19.14 56.63Q18.35 56.84 17.33 56.84L17.33 56.84Q15.45 56.84 14.42 56.10Q13.39 55.36 13.39 53.96L13.39 53.96Q13.39 52.64 14.25 51.97Q15.11 51.30 16.67 51.14L16.67 51.14L19.51 50.86L19.51 50.30Q19.51 49.30 18.91 48.84Q18.31 48.38 17.29 48.38L17.29 48.38Q16.45 48.38 15.71 48.62Q14.97 48.86 14.39 49.16L14.39 49.16Q14.23 49.02 14.10 48.84Q13.97 48.66 13.97 48.44L13.97 48.44Q13.97 48.16 14.11 47.98Q14.25 47.80 14.55 47.64L14.55 47.64Q15.09 47.36 15.79 47.21Q16.49 47.06 17.31 47.06ZM28.51 52L23.73 52Q23.67 51.86 23.63 51.71Q23.59 51.56 23.59 51.36L23.59 51.36Q23.59 50.68 24.29 50.68L24.29 50.68L29.07 50.68Q29.11 50.80 29.16 50.96Q29.21 51.12 29.21 51.30L29.21 51.30Q29.21 52 28.51 52L28.51 52ZM33.41 46.58L33.41 47.84L37.37 47.84Q37.43 47.94 37.49 48.10Q37.55 48.26 37.55 48.48L37.55 48.48Q37.55 49.14 36.93 49.14L36.93 49.14L33.43 49.14L33.43 56.52Q33.33 56.56 33.13 56.61Q32.93 56.66 32.69 56.66L32.69 56.66Q31.83 56.66 31.83 55.94L31.83 55.94L31.83 46.50Q31.83 44.74 32.78 43.95Q33.73 43.16 35.43 43.16L35.43 43.16Q36.57 43.16 37.22 43.46Q37.87 43.76 37.87 44.20L37.87 44.20Q37.87 44.64 37.53 44.94L37.53 44.94Q37.17 44.74 36.63 44.61Q36.09 44.48 35.59 44.48L35.59 44.48Q34.37 44.48 33.89 44.98Q33.41 45.48 33.41 46.58L33.41 46.58ZM48.35 51.94L48.35 51.94Q48.35 53.06 48.03 53.96Q47.71 54.86 47.12 55.50Q46.53 56.14 45.69 56.48Q44.85 56.82 43.81 56.82L43.81 56.82Q42.77 56.82 41.93 56.48Q41.09 56.14 40.49 55.50Q39.89 54.86 39.57 53.96Q39.25 53.06 39.25 51.94L39.25 51.94Q39.25 50.82 39.58 49.92Q39.91 49.02 40.51 48.38Q41.11 47.74 41.95 47.40Q42.79 47.06 43.81 47.06L43.81 47.06Q44.83 47.06 45.67 47.40Q46.51 47.74 47.10 48.38Q47.69 49.02 48.02 49.92Q48.35 50.82 48.35 51.94ZM43.81 48.38L43.81 48.38Q42.45 48.38 41.67 49.32Q40.89 50.26 40.89 51.94L40.89 51.94Q40.89 53.64 41.66 54.57Q42.43 55.50 43.81 55.50L43.81 55.50Q45.19 55.50 45.95 54.56Q46.71 53.62 46.71 51.94L46.71 51.94Q46.71 50.26 45.94 49.32Q45.17 48.38 43.81 48.38ZM59.41 51.94L59.41 51.94Q59.41 53.06 59.09 53.96Q58.77 54.86 58.18 55.50Q57.59 56.14 56.75 56.48Q55.91 56.82 54.87 56.82L54.87 56.82Q53.83 56.82 52.99 56.48Q52.15 56.14 51.55 55.50Q50.95 54.86 50.63 53.96Q50.31 53.06 50.31 51.94L50.31 51.94Q50.31 50.82 50.64 49.92Q50.97 49.02 51.57 48.38Q52.17 47.74 53.01 47.40Q53.85 47.06 54.87 47.06L54.87 47.06Q55.89 47.06 56.73 47.40Q57.57 47.74 58.16 48.38Q58.75 49.02 59.08 49.92Q59.41 50.82 59.41 51.94ZM54.87 48.38L54.87 48.38Q53.51 48.38 52.73 49.32Q51.95 50.26 51.95 51.94L51.95 51.94Q51.95 53.64 52.72 54.57Q53.49 55.50 54.87 55.50L54.87 55.50Q56.25 55.50 57.01 54.56Q57.77 53.62 57.77 51.94L57.77 51.94Q57.77 50.26 57.00 49.32Q56.23 48.38 54.87 48.38ZM65.05 56.82L65.05 56.82Q63.65 56.82 62.78 56.20Q61.91 55.58 61.91 54.14L61.91 54.14L61.91 44.64Q62.01 44.60 62.22 44.55Q62.43 44.50 62.67 44.50L62.67 44.50Q63.51 44.50 63.51 45.22L63.51 45.22L63.51 47.52L66.79 47.52Q66.85 47.62 66.91 47.79Q66.97 47.96 66.97 48.16L66.97 48.16Q66.97 48.84 66.37 48.84L66.37 48.84L63.51 48.84L63.51 54.04Q63.51 54.84 63.96 55.17Q64.41 55.50 65.23 55.50L65.23 55.50Q65.57 55.50 65.99 55.38Q66.41 55.26 66.69 55.10L66.69 55.10Q66.81 55.22 66.91 55.40Q67.01 55.58 67.01 55.82L67.01 55.82Q67.01 56.26 66.49 56.54Q65.97 56.82 65.05 56.82ZM73.45 47.06L73.45 47.06Q74.37 47.06 75.17 47.36Q75.97 47.66 76.56 48.26Q77.15 48.86 77.48 49.78Q77.81 50.70 77.81 51.94L77.81 51.94Q77.81 53.20 77.47 54.12Q77.13 55.04 76.52 55.64Q75.91 56.24 75.05 56.53Q74.19 56.82 73.17 56.82L73.17 56.82Q72.19 56.82 71.40 56.59Q70.61 56.36 70.11 56.06L70.11 56.06Q69.69 55.80 69.53 55.55Q69.37 55.30 69.37 54.88L69.37 54.88L69.37 43.60Q69.47 43.56 69.68 43.51Q69.89 43.46 70.13 43.46L70.13 43.46Q70.97 43.46 70.97 44.18L70.97 44.18L70.97 47.76Q71.41 47.48 72.02 47.27Q72.63 47.06 73.45 47.06ZM73.21 48.38L73.21 48.38Q72.51 48.38 71.94 48.63Q71.37 48.88 70.97 49.22L70.97 49.22L70.97 54.88Q71.27 55.10 71.84 55.30Q72.41 55.50 73.17 55.50L73.17 55.50Q73.85 55.50 74.40 55.29Q74.95 55.08 75.35 54.64Q75.75 54.20 75.97 53.53Q76.19 52.86 76.19 51.94L76.19 51.94Q76.19 51.02 75.97 50.34Q75.75 49.66 75.35 49.23Q74.95 48.80 74.40 48.59Q73.85 48.38 73.21 48.38ZM83.61 55.52L83.61 55.52Q84.45 55.52 85 55.35Q85.55 55.18 85.79 55.02L85.79 55.02L85.79 52.12L83.31 52.38Q82.27 52.48 81.77 52.85Q81.27 53.22 81.27 53.94L81.27 53.94Q81.27 54.70 81.85 55.11Q82.43 55.52 83.61 55.52ZM83.59 47.06L83.59 47.06Q85.33 47.06 86.35 47.84Q87.37 48.62 87.37 50.30L87.37 50.30L87.37 55.04Q87.37 55.48 87.20 55.71Q87.03 55.94 86.69 56.14L86.69 56.14Q86.21 56.42 85.42 56.63Q84.63 56.84 83.61 56.84L83.61 56.84Q81.73 56.84 80.70 56.10Q79.67 55.36 79.67 53.96L79.67 53.96Q79.67 52.64 80.53 51.97Q81.39 51.30 82.95 51.14L82.95 51.14L85.79 50.86L85.79 50.30Q85.79 49.30 85.19 48.84Q84.59 48.38 83.57 48.38L83.57 48.38Q82.73 48.38 81.99 48.62Q81.25 48.86 80.67 49.16L80.67 49.16Q80.51 49.02 80.38 48.84Q80.25 48.66 80.25 48.44L80.25 48.44Q80.25 48.16 80.39 47.98Q80.53 47.80 80.83 47.64L80.83 47.64Q81.37 47.36 82.07 47.21Q82.77 47.06 83.59 47.06ZM92.05 56.52L92.05 56.52Q91.95 56.56 91.75 56.61Q91.55 56.66 91.31 56.66L91.31 56.66Q90.45 56.66 90.45 55.94L90.45 55.94L90.45 43.60Q90.55 43.56 90.76 43.51Q90.97 43.46 91.19 43.46L91.19 43.46Q92.05 43.46 92.05 44.18L92.05 44.18L92.05 56.52ZM96.97 56.52L96.97 56.52Q96.87 56.56 96.67 56.61Q96.47 56.66 96.23 56.66L96.23 56.66Q95.37 56.66 95.37 55.94L95.37 55.94L95.37 43.60Q95.47 43.56 95.68 43.51Q95.89 43.46 96.11 43.46L96.11 43.46Q96.97 43.46 96.97 44.18L96.97 44.18L96.97 56.52Z"></path></svg>