<svg xmlns="http://www.w3.org/2000/svg" width="256" height="256" viewBox="0 0 100 100"><rect width="100" height="100" rx="20" fill="#9b9b9b"></rect><path fill="#fff" d="M20.50 57.37L20.50 57.37Q18.96 57.37 18.00 56.69Q17.04 56.01 17.04 54.42L17.04 54.42L17.04 43.97Q17.15 43.93 17.38 43.87Q17.62 43.82 17.88 43.82L17.88 43.82Q18.80 43.82 18.80 44.61L18.80 44.61L18.80 47.14L22.41 47.14Q22.48 47.25 22.54 47.44Q22.61 47.62 22.61 47.84L22.61 47.84Q22.61 48.59 21.95 48.59L21.95 48.59L18.80 48.59L18.80 54.31Q18.80 55.19 19.30 55.55Q19.79 55.92 20.70 55.92L20.70 55.92Q21.07 55.92 21.53 55.79Q21.99 55.65 22.30 55.48L22.30 55.48Q22.43 55.61 22.54 55.81Q22.65 56.01 22.65 56.27L22.65 56.27Q22.65 56.75 22.08 57.06Q21.51 57.37 20.50 57.37ZM26.97 48.81L26.97 57.04Q26.86 57.08 26.64 57.14Q26.42 57.19 26.15 57.19L26.15 57.19Q25.21 57.19 25.21 56.40L25.21 56.40L25.21 48.94Q25.21 48.44 25.39 48.14Q25.58 47.84 26.02 47.56L26.02 47.56Q26.59 47.18 27.57 46.91Q28.55 46.63 29.78 46.63L29.78 46.63Q31.54 46.63 31.54 47.51L31.54 47.51Q31.54 47.73 31.48 47.92Q31.41 48.11 31.30 48.24L31.30 48.24Q31.08 48.20 30.73 48.15Q30.38 48.11 30.02 48.11L30.02 48.11Q29.01 48.11 28.24 48.32Q27.47 48.53 26.97 48.81L26.97 48.81ZM35.48 47.62L35.48 57.04Q35.37 57.08 35.15 57.14Q34.93 57.19 34.67 57.19L34.67 57.19Q33.72 57.19 33.72 56.40L33.72 56.40L33.72 46.96Q33.83 46.92 34.06 46.86Q34.29 46.81 34.56 46.81L34.56 46.81Q35.48 46.81 35.48 47.62L35.48 47.62ZM33.46 43.71L33.46 43.71Q33.46 43.25 33.77 42.93Q34.09 42.61 34.60 42.61L34.60 42.61Q35.11 42.61 35.41 42.93Q35.72 43.25 35.72 43.71L35.72 43.71Q35.72 44.17 35.41 44.49Q35.11 44.81 34.60 44.81L34.60 44.81Q34.09 44.81 33.77 44.49Q33.46 44.17 33.46 43.71ZM43.44 46.63L43.44 46.63Q44.46 46.63 45.34 46.96Q46.22 47.29 46.87 47.95Q47.51 48.61 47.88 49.63Q48.24 50.64 48.24 52.00L48.24 52.00Q48.24 53.39 47.87 54.40Q47.49 55.41 46.82 56.07Q46.15 56.73 45.20 57.05Q44.26 57.37 43.14 57.37L43.14 57.37Q42.06 57.37 41.19 57.12Q40.32 56.86 39.77 56.53L39.77 56.53Q39.31 56.25 39.13 55.97Q38.96 55.70 38.96 55.24L38.96 55.24L38.96 42.83Q39.07 42.78 39.30 42.73Q39.53 42.67 39.79 42.67L39.79 42.67Q40.72 42.67 40.72 43.47L40.72 43.47L40.72 47.40Q41.20 47.10 41.87 46.86Q42.54 46.63 43.44 46.63ZM43.18 48.09L43.18 48.09Q42.41 48.09 41.78 48.36Q41.16 48.64 40.72 49.01L40.72 49.01L40.72 55.24Q41.05 55.48 41.67 55.70Q42.30 55.92 43.14 55.92L43.14 55.92Q43.88 55.92 44.49 55.69Q45.09 55.46 45.53 54.97Q45.97 54.49 46.22 53.75Q46.46 53.01 46.46 52.00L46.46 52.00Q46.46 50.99 46.22 50.24Q45.97 49.49 45.53 49.02Q45.09 48.55 44.49 48.32Q43.88 48.09 43.18 48.09ZM50.99 53.37L50.99 46.96Q51.10 46.92 51.33 46.86Q51.56 46.81 51.83 46.81L51.83 46.81Q52.75 46.81 52.75 47.62L52.75 47.62L52.75 53.28Q52.75 54.71 53.50 55.31Q54.25 55.92 55.57 55.92L55.57 55.92Q56.45 55.92 57.06 55.73Q57.68 55.54 58.03 55.35L58.03 55.35L58.03 46.96Q58.14 46.92 58.37 46.86Q58.60 46.81 58.84 46.81L58.84 46.81Q59.79 46.81 59.79 47.62L59.79 47.62L59.79 55.28Q59.79 55.74 59.67 56.02Q59.55 56.29 59.09 56.56L59.09 56.56Q58.58 56.84 57.69 57.11Q56.80 57.37 55.54 57.37L55.54 57.37Q53.34 57.37 52.17 56.40Q50.99 55.43 50.99 53.37L50.99 53.37ZM70.13 50.46L70.13 50.46Q70.13 49.23 69.44 48.66Q68.74 48.09 67.58 48.09L67.58 48.09Q66.70 48.09 66.02 48.31Q65.33 48.53 64.85 48.81L64.85 48.81L64.85 57.04Q64.74 57.08 64.52 57.14Q64.30 57.19 64.04 57.19L64.04 57.19Q63.09 57.19 63.09 56.40L63.09 56.40L63.09 48.90Q63.09 48.44 63.28 48.14Q63.46 47.84 63.93 47.56L63.93 47.56Q64.50 47.21 65.44 46.92Q66.39 46.63 67.58 46.63L67.58 46.63Q69.58 46.63 70.73 47.54Q71.89 48.44 71.89 50.37L71.89 50.37L71.89 57.04Q71.78 57.08 71.55 57.14Q71.32 57.19 71.08 57.19L71.08 57.19Q70.13 57.19 70.13 56.40L70.13 56.40L70.13 50.46ZM78.82 55.94L78.82 55.94Q79.74 55.94 80.35 55.75Q80.95 55.57 81.22 55.39L81.22 55.39L81.22 52.20L78.49 52.49Q77.35 52.60 76.80 53.00Q76.25 53.41 76.25 54.20L76.25 54.20Q76.25 55.04 76.88 55.49Q77.52 55.94 78.82 55.94ZM78.80 46.63L78.80 46.63Q80.71 46.63 81.83 47.49Q82.96 48.35 82.96 50.20L82.96 50.20L82.96 55.41Q82.96 55.90 82.77 56.15Q82.58 56.40 82.21 56.62L82.21 56.62Q81.68 56.93 80.81 57.16Q79.94 57.39 78.82 57.39L78.82 57.39Q76.75 57.39 75.62 56.58Q74.49 55.76 74.49 54.22L74.49 54.22Q74.49 52.77 75.43 52.03Q76.38 51.30 78.09 51.12L78.09 51.12L81.22 50.81L81.22 50.20Q81.22 49.10 80.56 48.59Q79.90 48.09 78.78 48.09L78.78 48.09Q77.85 48.09 77.04 48.35Q76.22 48.61 75.59 48.94L75.59 48.94Q75.41 48.79 75.27 48.59Q75.12 48.39 75.12 48.15L75.12 48.15Q75.12 47.84 75.28 47.65Q75.43 47.45 75.76 47.27L75.76 47.27Q76.36 46.96 77.13 46.80Q77.90 46.63 78.80 46.63Z"></path></svg>